<svg width="26" height="26" viewBox="0 0 26 26" fill="none" xmlns="http://www.w3.org/2000/svg">
<path d="M20.5192 1.92932H18.0551V2.76569C18.0534 4.37071 16.7525 5.67159 15.1475 5.67326H10.8366C9.23161 5.67159 7.93072 4.37071 7.92906 2.76569V1.92932H5.46492C4.40878 1.93071 3.55327 2.78622 3.55188 3.84236V24.0869C3.55299 25.143 4.40878 25.9988 5.46492 25.9999H20.5192C21.5753 25.9988 22.4311 25.143 22.4322 24.0869V3.84236C22.4311 2.78622 21.5753 1.93071 20.5192 1.92932V1.92932ZM17.3516 12.7821L12.1914 17.82C11.9982 18.0084 11.6899 18.0084 11.4968 17.82L8.6325 15.0234C8.43604 14.8316 8.43215 14.5167 8.62418 14.3202C8.81593 14.1238 9.13088 14.1199 9.32735 14.3119L11.8442 16.7691L16.6568 12.0703C16.8532 11.8786 17.1682 11.8822 17.3599 12.0786C17.552 12.2754 17.5481 12.5901 17.3516 12.7821Z" fill="white"/>
<path d="M10.8366 4.67881H15.1475C16.2036 4.6777 17.0594 3.82191 17.0605 2.76577V1.92941H15.4386C15.2052 1.92941 15.0032 1.7668 14.9529 1.5387C14.757 0.647114 13.9326 0 12.9922 0C12.0518 0 11.2271 0.647114 11.0314 1.53898C10.9815 1.76708 10.7792 1.92969 10.5458 1.92969H8.92358V2.76605C8.92497 3.82191 9.78076 4.6777 10.8366 4.67881Z" fill="white"/>
</svg>
