<svg width="24" height="24" viewBox="0 0 24 24" fill="none" xmlns="http://www.w3.org/2000/svg">
<g clip-path="url(#clip0)">
<path d="M19.9454 1.92542C18.1116 1.92542 16.6627 3.39698 16.6627 5.23078C16.6627 7.06458 18.1343 8.5135 19.9454 8.5135C21.7566 8.5135 23.2508 7.04194 23.2508 5.20814C23.2508 3.37434 21.7792 1.92542 19.9454 1.92542ZM19.9454 7.78904C18.5192 7.78904 17.3645 6.63443 17.3645 5.20814C17.3645 3.78185 18.5418 2.64988 19.9454 2.64988C21.3717 2.64988 22.5263 3.80449 22.5263 5.23078C22.5263 6.65707 21.3717 7.78904 19.9454 7.78904Z" fill="#6D86E0"/>
<path d="M20.9867 5.72889C20.9641 5.66098 20.9641 5.6157 20.9188 5.54778C20.8961 5.5025 20.8735 5.43458 20.8282 5.3893C20.7829 5.34402 20.7603 5.29874 20.715 5.25346C20.6697 5.20819 20.6245 5.16291 20.5565 5.14027C20.5113 5.09499 20.4433 5.07235 20.3981 5.04971C20.3302 5.02707 20.2849 4.98179 20.217 4.95915C20.149 4.93651 20.0811 4.91387 20.0358 4.89123C20.0132 4.89123 19.9679 4.86859 19.9453 4.84596C19.9226 4.82332 19.8774 4.82332 19.8547 4.80068C19.8321 4.77804 19.7868 4.77804 19.7642 4.7554C19.7415 4.73276 19.7189 4.71012 19.6962 4.68748C19.6736 4.66484 19.651 4.6422 19.651 4.59692C19.6283 4.57428 19.6283 4.529 19.6283 4.50636C19.6283 4.46108 19.6283 4.43845 19.6283 4.39317C19.6283 4.37053 19.651 4.32525 19.651 4.30261C19.6736 4.27997 19.6736 4.23469 19.6962 4.21205C19.7189 4.18941 19.7415 4.16677 19.7642 4.14413C19.7868 4.12149 19.8321 4.09885 19.8774 4.09885C19.9226 4.07621 19.9453 4.07621 19.9906 4.07621C20.0132 4.07621 20.0358 4.07621 20.0585 4.07621C20.0811 4.07621 20.1038 4.07621 20.1264 4.07621C20.1717 4.07621 20.1943 4.07621 20.2396 4.09885C20.2849 4.09885 20.3302 4.12149 20.3528 4.12149C20.3754 4.12149 20.4207 4.14413 20.4434 4.14413C20.4886 4.14413 20.5113 4.16677 20.5339 4.16677L20.6471 4.21205L20.6697 4.07621L20.715 3.71398V3.62342L20.6245 3.60079C20.6018 3.60079 20.5565 3.57815 20.5339 3.57815C20.5113 3.57815 20.4886 3.55551 20.4434 3.55551C20.4207 3.55551 20.3754 3.53287 20.3302 3.53287C20.2849 3.53287 20.2622 3.51023 20.217 3.51023H20.1943V3.19328V3.08008H20.0811H19.7642H19.651V3.19328V3.53287H19.6283C19.5604 3.55551 19.4925 3.57815 19.4246 3.62342C19.3567 3.64606 19.3114 3.69134 19.2661 3.73662C19.2208 3.7819 19.1755 3.82718 19.1303 3.8951C19.085 3.94038 19.0623 4.0083 19.0397 4.07621C19.0171 4.14413 18.9944 4.21205 18.9718 4.27997C18.9491 4.34789 18.9491 4.43845 18.9491 4.50636C18.9491 4.57428 18.9491 4.61956 18.9718 4.68748C18.9944 4.7554 18.9944 4.80068 19.0397 4.86859C19.0623 4.91387 19.1076 4.98179 19.1303 5.02707C19.1755 5.07235 19.1982 5.11763 19.2435 5.16291C19.2887 5.20819 19.334 5.25347 19.4019 5.2761C19.4472 5.32138 19.5151 5.34402 19.5604 5.36666C19.6283 5.3893 19.6962 5.43458 19.7415 5.45722C19.8094 5.47986 19.8774 5.5025 19.9226 5.52514C19.9453 5.52514 19.9906 5.54778 20.0132 5.57042C20.0358 5.59306 20.0811 5.59306 20.1038 5.6157C20.1264 5.63834 20.149 5.66097 20.1717 5.66097C20.1943 5.68361 20.217 5.70625 20.2396 5.72889C20.2622 5.75153 20.2622 5.77417 20.2849 5.81945C20.2849 5.84209 20.3075 5.88737 20.3075 5.93265C20.3075 5.97793 20.3075 6.00057 20.3075 6.04585C20.3075 6.06849 20.2849 6.11376 20.2622 6.1364C20.2396 6.15904 20.217 6.18168 20.1943 6.20432C20.1717 6.22696 20.149 6.2496 20.1038 6.27224C20.0811 6.29488 20.0358 6.29488 20.0132 6.31752C19.9906 6.31752 19.9453 6.34016 19.9 6.34016C19.8774 6.34016 19.8547 6.34016 19.8094 6.34016C19.7868 6.34016 19.7415 6.34016 19.7189 6.34016C19.6736 6.34016 19.6283 6.34016 19.6057 6.34016C19.5604 6.34016 19.5151 6.31752 19.4925 6.31752C19.4472 6.31752 19.4019 6.29488 19.3567 6.27224C19.3114 6.2496 19.2661 6.2496 19.2208 6.22696C19.1982 6.22696 19.1755 6.20432 19.1529 6.20432C19.1303 6.20432 19.1076 6.18168 19.085 6.18168L18.9491 6.11376L18.9265 6.27224L18.8812 6.67975V6.74767L18.9491 6.77031C19.0397 6.74767 19.085 6.77031 19.1529 6.79295C19.1982 6.81559 19.2661 6.83823 19.3114 6.83823C19.3567 6.86087 19.4246 6.86087 19.4925 6.88351C19.5604 6.90614 19.6057 6.90614 19.6736 6.90614H19.7189V7.24574V7.35893H19.8321H20.149H20.2622V7.24574V6.88351H20.2849C20.3528 6.86087 20.4207 6.83823 20.4886 6.79295C20.5565 6.77031 20.6018 6.72503 20.6697 6.67975C20.715 6.63447 20.7603 6.58919 20.8056 6.52127C20.8509 6.476 20.8735 6.40808 20.9188 6.34016C20.9414 6.27224 20.9641 6.20432 20.9867 6.1364C21.0093 6.06849 21.0093 6.00057 21.0093 5.91001C21.0093 5.84209 21.0093 5.79681 20.9867 5.72889Z" fill="#6D86E0"/>
<path d="M18.3604 8.9436C18.2472 8.78512 17.9982 8.76248 17.8397 8.87568L14.1721 11.7962L9.44049 9.82654C9.3273 9.78126 9.19146 9.8039 9.1009 9.87182L4.02966 13.4941C3.87118 13.6073 3.8259 13.8337 3.9391 13.9922C4.00702 14.1054 4.12022 14.1507 4.23341 14.1507C4.30133 14.1507 4.36925 14.1281 4.43717 14.0828L9.34994 10.5736L14.1042 12.5433C14.2174 12.5886 14.3759 12.5659 14.4665 12.498L18.2925 9.46431C18.451 9.35111 18.4736 9.10208 18.3604 8.9436Z" fill="#6D86E0"/>
<path d="M23.6583 21.3502H21.983V10.8681C21.983 10.6643 21.8245 10.5059 21.6207 10.5059H18.2927C18.089 10.5059 17.9305 10.6643 17.9305 10.8681V21.3502H16.708V14.4904C16.708 14.2867 16.5495 14.1282 16.3457 14.1282H12.9951C12.7913 14.1282 12.6328 14.2867 12.6328 14.4904V21.3502H11.4103V13.9471C11.4103 13.7433 11.2518 13.5848 11.0481 13.5848H7.72007C7.51631 13.5848 7.35784 13.7433 7.35784 13.9471V21.3502H6.13531V16.0752C6.13531 15.8714 5.97683 15.7129 5.77307 15.7129H2.42243C2.21867 15.7129 2.06019 15.8714 2.06019 16.0752V21.3502H0.362232C0.158477 21.3502 0 21.5087 0 21.7124C0 21.9162 0.158477 22.0746 0.362232 22.0746H2.39979H5.72779H7.72007H11.0481H12.9951H16.3231H18.2701H21.5981H23.6356C23.8394 22.0746 23.9979 21.9162 23.9979 21.7124C24.0205 21.5087 23.862 21.3502 23.6583 21.3502ZM5.3882 21.3502H2.78466V16.4374H5.3882V21.3502ZM10.6858 21.3502H8.0823V14.3093H10.6858V21.3502ZM15.9608 21.3502H13.3573V14.8526H15.9608V21.3502ZM21.2585 21.3502H18.655V11.2303H21.2585V21.3502Z" fill="#6D86E0"/>
</g>
<defs>
<clipPath id="clip0">
<rect width="24" height="24" fill="white"/>
</clipPath>
</defs>
</svg>
