<svg width="25" height="23" viewBox="0 0 25 23" fill="none" xmlns="http://www.w3.org/2000/svg">
<path d="M24.8081 1.5166C24.685 1.22559 24.5087 0.964844 24.2846 0.740723C24.0605 0.516602 23.7998 0.340332 23.5087 0.217285C23.208 0.0898438 22.8882 0.0253906 22.5586 0.0253906H14.6904C14.4208 0.0253906 14.2021 0.244629 14.2021 0.513672C14.2021 0.782715 14.4208 1.00195 14.6904 1.00195H22.5586C23.3647 1.00342 24.022 1.66064 24.0234 2.4668V13.6973H5.37109V1.00195H10.2954C10.565 1.00195 10.7837 0.782715 10.7837 0.513672C10.7837 0.244629 10.565 0.0253906 10.2954 0.0253906H2.44141C2.11182 0.0253906 1.79199 0.0898438 1.49121 0.217285C1.2002 0.340332 0.939453 0.516602 0.715283 0.740723C0.490674 0.964844 0.314941 1.22559 0.191846 1.5166C0.0644043 1.81738 0 2.13721 0 2.4668V14.1855V15.6504C0 16.9966 1.09521 18.0918 2.44141 18.0918H9.81445V19.8008H9.08203C7.73584 19.8008 6.64062 20.896 6.64062 22.2422V22.4863C6.64062 22.756 6.85928 22.9746 7.12891 22.9746H17.8711C18.1407 22.9746 18.3594 22.756 18.3594 22.4863V22.2422C18.3594 20.896 17.2642 19.8008 15.918 19.8008H15.1855V18.0918H22.5586C23.9048 18.0918 25 16.9966 25 15.6504V14.1855V2.4668C25 2.13721 24.9355 1.81738 24.8081 1.5166ZM0.976562 13.6973V5.20117H4.39453V13.6973H0.976562ZM2.44141 1.00195H4.39453V4.22461H0.976562V2.4668C0.978027 1.66064 1.63525 1.00342 2.44141 1.00195ZM14.6973 20.7773H15.918C16.6425 20.7773 17.2459 21.3062 17.3625 21.998H7.63755C7.7541 21.3062 8.35747 20.7773 9.08203 20.7773H10.3027C10.5724 20.7773 10.791 20.5587 10.791 20.2891V18.0918H14.209V20.2891C14.209 20.5587 14.4276 20.7773 14.6973 20.7773ZM24.0234 15.6504C24.0234 16.4581 23.3663 17.1152 22.5586 17.1152H2.44141C1.63369 17.1152 0.976562 16.4581 0.976562 15.6504V14.6738H24.0234V15.6504Z" fill="#6D86E0"/>
<path d="M12.493 1.00195C12.7621 1.00195 12.9808 0.782715 12.9808 0.513672C12.9808 0.244629 12.7621 0.0253906 12.493 0.0253906C12.2235 0.0253906 12.0043 0.244629 12.0043 0.513672C12.0043 0.782715 12.2236 1.00195 12.493 1.00195Z" fill="#6D86E0"/>
<path d="M17.5214 9.59952L18.0032 6.9337L18.7961 9.61768C18.7978 9.6235 18.7996 9.62931 18.8015 9.63502C18.8822 9.87476 19.1057 10.0353 19.3585 10.0353H19.3616C19.6156 10.0339 19.839 9.87076 19.9175 9.62926C19.9193 9.62369 19.921 9.61808 19.9226 9.61241L20.6882 6.93048L21.1998 9.60445C21.2505 9.86935 21.5061 10.043 21.7712 9.99225C22.0361 9.94156 22.2097 9.68575 22.159 9.42091C22.159 9.42091 21.339 5.13624 21.3386 5.13424C21.2853 4.87301 21.0621 4.68014 20.7959 4.6651C20.5296 4.6503 20.2863 4.81666 20.2039 5.07022C20.2021 5.07579 19.3521 8.05318 19.3521 8.05318C19.3521 8.05318 18.4708 5.07052 18.4688 5.0648C18.3839 4.81197 18.1385 4.64796 17.8724 4.66573C17.6063 4.6836 17.3852 4.87896 17.3347 5.14083C17.3343 5.14269 16.5602 9.42584 16.5602 9.42584C16.5123 9.69122 16.6886 9.94522 16.9539 9.99317C17.2192 10.0413 17.4733 9.8649 17.5214 9.59952Z" fill="#6D86E0"/>
<path d="M7.03125 7.34961C7.03125 8.83042 8.19097 10.0352 9.61646 10.0352C10.1894 10.0352 10.7025 9.83887 11.1005 9.46753C11.1777 9.39546 11.2511 9.31611 11.3187 9.23169C11.4872 9.02114 11.4532 8.71387 11.2426 8.54536C11.032 8.37686 10.7248 8.41099 10.5563 8.62144C10.5181 8.66914 10.477 8.71362 10.4342 8.75361C10.2173 8.95601 9.94219 9.05859 9.61646 9.05859C8.72944 9.05859 8.00781 8.29194 8.00781 7.34961C8.00781 6.40728 8.72944 5.64062 9.61646 5.64062C9.93501 5.64062 10.2429 5.73936 10.5067 5.92612C10.7268 6.08188 11.0315 6.02979 11.1874 5.80972C11.3431 5.5896 11.291 5.28486 11.0709 5.12905C10.6412 4.82485 10.1382 4.66406 9.61641 4.66406C8.19097 4.66406 7.03125 5.8688 7.03125 7.34961Z" fill="#6D86E0"/>
<path d="M15.5762 6.27539C15.5762 5.40195 14.8271 4.66406 13.9404 4.66406H12.8906C12.621 4.66406 12.4023 4.88267 12.4023 5.15234V9.54688C12.4023 9.81655 12.621 10.0352 12.8906 10.0352C13.1603 10.0352 13.3789 9.81655 13.3789 9.54688V8.52847L14.7426 9.89219C14.838 9.9875 14.9629 10.0352 15.0879 10.0352C15.2129 10.0352 15.3378 9.9875 15.4332 9.89214C15.6238 9.70146 15.6238 9.39228 15.4332 9.20156L14.0645 7.83291C14.9086 7.77212 15.5762 7.09707 15.5762 6.27539ZM13.9404 6.86133H13.3789V5.64062H13.9404C14.2792 5.64062 14.5996 5.94912 14.5996 6.27539C14.5996 6.59302 14.2977 6.86133 13.9404 6.86133Z" fill="#6D86E0"/>
<path d="M2.68555 12.0371C2.95522 12.0371 3.17383 11.8185 3.17383 11.5488C3.17383 11.2792 2.95522 11.0605 2.68555 11.0605C2.41588 11.0605 2.19727 11.2792 2.19727 11.5488C2.19727 11.8185 2.41588 12.0371 2.68555 12.0371Z" fill="#6D86E0"/>
<path d="M2.68555 9.83984C2.95522 9.83984 3.17383 9.62123 3.17383 9.35156C3.17383 9.08189 2.95522 8.86328 2.68555 8.86328C2.41588 8.86328 2.19727 9.08189 2.19727 9.35156C2.19727 9.62123 2.41588 9.83984 2.68555 9.83984Z" fill="#6D86E0"/>
<path d="M2.68555 7.64258C2.95522 7.64258 3.17383 7.42397 3.17383 7.1543C3.17383 6.88463 2.95522 6.66602 2.68555 6.66602C2.41588 6.66602 2.19727 6.88463 2.19727 7.1543C2.19727 7.42397 2.41588 7.64258 2.68555 7.64258Z" fill="#6D86E0"/>
</svg>
