<svg width="195" height="180" viewBox="0 0 195 180" fill="none" xmlns="http://www.w3.org/2000/svg">
<g clip-path="url(#clip0_262_375)">
<path d="M3.05351 6.18002C2.44528 6.18002 1.85078 5.99816 1.34505 5.65744C0.839324 5.31672 0.445094 4.83244 0.212334 4.26584C-0.0204266 3.69924 -0.0812862 3.07577 0.0373741 2.47427C0.156034 1.87277 0.448924 1.32027 0.87901 0.886609C1.3091 0.452953 1.85701 0.15762 2.45355 0.0379742C3.0501 -0.0816712 3.66845 -0.0202573 4.23038 0.214436C4.79231 0.449129 5.27259 0.846569 5.61051 1.35649C5.94843 1.86642 6.12878 2.46593 6.12878 3.07921C6.13089 3.48701 6.05286 3.89118 5.89906 4.26835C5.74526 4.64552 5.51876 4.9882 5.23278 5.27656C4.94679 5.56492 4.60697 5.79324 4.23291 5.94832C3.85885 6.10339 3.45795 6.18215 3.05351 6.18002Z" fill="#6D86E0" fill-opacity="0.21"/>
<path d="M37.4847 6.18051C36.8764 6.18051 36.2818 5.99865 35.7761 5.65793C35.2704 5.31721 34.8762 4.83293 34.6435 4.26633C34.4107 3.69973 34.3499 3.07626 34.4685 2.47476C34.5872 1.87326 34.8801 1.32075 35.3102 0.887098C35.7402 0.453442 36.2882 0.158108 36.8847 0.0384625C37.4812 -0.081183 38.0996 -0.0197691 38.6615 0.214924C39.2235 0.449617 39.7037 0.847058 40.0417 1.35698C40.3796 1.86691 40.5599 2.46642 40.5599 3.0797C40.5599 3.90209 40.236 4.69079 39.6593 5.2723C39.0825 5.85382 38.3003 6.18051 37.4847 6.18051Z" fill="#6D86E0" fill-opacity="0.21"/>
<path d="M71.9318 6.18058C71.3229 6.18377 70.7268 6.0046 70.2189 5.66582C69.7111 5.32704 69.3144 4.84388 69.0792 4.27757C68.844 3.71126 68.7809 3.08729 68.8978 2.48474C69.0146 1.88218 69.3062 1.32817 69.7357 0.892908C70.1651 0.457643 70.7131 0.160728 71.31 0.0397741C71.907 -0.0811793 72.5261 -0.0207236 73.089 0.21349C73.6519 0.447703 74.1331 0.845122 74.4718 1.35539C74.8104 1.86566 74.9911 2.46581 74.9911 3.07977C74.9932 3.48622 74.9156 3.88907 74.7628 4.26519C74.61 4.6413 74.385 4.98326 74.1007 5.27141C73.8164 5.55956 73.4784 5.78822 73.1062 5.94424C72.734 6.10027 72.3349 6.18059 71.9318 6.18058V6.18058Z" fill="#6D86E0" fill-opacity="0.21"/>
<path d="M106.347 6.18051C105.739 6.18051 105.144 5.99865 104.639 5.65793C104.133 5.31721 103.739 4.83293 103.506 4.26633C103.273 3.69973 103.212 3.07626 103.331 2.47476C103.45 1.87326 103.743 1.32075 104.173 0.887098C104.603 0.453442 105.151 0.158108 105.747 0.0384625C106.344 -0.081183 106.962 -0.0197691 107.524 0.214924C108.086 0.449617 108.566 0.847058 108.904 1.35698C109.242 1.86691 109.423 2.46642 109.423 3.0797C109.423 3.90209 109.099 4.69079 108.522 5.2723C107.945 5.85382 107.163 6.18051 106.347 6.18051V6.18051Z" fill="#6D86E0" fill-opacity="0.21"/>
<path d="M140.794 6.18058C140.186 6.18377 139.589 6.0046 139.081 5.66582C138.574 5.32704 138.177 4.84388 137.942 4.27757C137.707 3.71126 137.643 3.08729 137.76 2.48474C137.877 1.88218 138.169 1.32817 138.598 0.892908C139.028 0.457643 139.576 0.160728 140.173 0.0397741C140.77 -0.0811793 141.389 -0.0207236 141.952 0.21349C142.514 0.447703 142.996 0.845122 143.334 1.35539C143.673 1.86566 143.854 2.46581 143.854 3.07977C143.856 3.48622 143.778 3.88907 143.625 4.26519C143.473 4.6413 143.248 4.98326 142.963 5.27141C142.679 5.55956 142.341 5.78822 141.969 5.94424C141.597 6.10027 141.198 6.18059 140.794 6.18058V6.18058Z" fill="#6D86E0" fill-opacity="0.21"/>
<path d="M175.209 6.18051C174.601 6.18051 174.007 5.99865 173.501 5.65793C172.995 5.31721 172.601 4.83293 172.368 4.26633C172.136 3.69973 172.075 3.07626 172.193 2.47476C172.312 1.87326 172.605 1.32075 173.035 0.887098C173.465 0.453442 174.013 0.158108 174.61 0.0384625C175.206 -0.081183 175.824 -0.0197691 176.386 0.214924C176.948 0.449617 177.429 0.847058 177.766 1.35698C178.104 1.86691 178.285 2.46642 178.285 3.0797C178.285 3.90209 177.961 4.69079 177.384 5.2723C176.807 5.85382 176.025 6.18051 175.209 6.18051V6.18051Z" fill="#6D86E0" fill-opacity="0.21"/>
<path d="M3.05437 40.8681C2.44613 40.8681 1.85163 40.6863 1.34591 40.3455C0.840178 40.0048 0.445949 39.5205 0.213188 38.9539C-0.0195721 38.3873 -0.0804317 37.7639 0.0382286 37.1624C0.156889 36.5609 0.449779 36.0084 0.879864 35.5747C1.30995 35.1411 1.85786 34.8457 2.45441 34.7261C3.05095 34.6064 3.6693 34.6679 4.23124 34.9025C4.79317 35.1372 5.27345 35.5347 5.61137 36.0446C5.94928 36.5545 6.12963 37.154 6.12963 37.7673C6.12963 38.5897 5.80569 39.3784 5.22896 39.9599C4.65224 40.5414 3.86998 40.8681 3.05437 40.8681V40.8681Z" fill="#6D86E0" fill-opacity="0.21"/>
<path d="M37.4856 40.8681C36.8774 40.8681 36.2828 40.6863 35.7771 40.3455C35.2714 40.0048 34.8772 39.5205 34.6445 38.9539C34.4117 38.3873 34.3508 37.7639 34.4695 37.1624C34.5882 36.5609 34.8811 36.0084 35.3111 35.5747C35.7412 35.1411 36.2891 34.8457 36.8857 34.7261C37.4822 34.6064 38.1006 34.6679 38.6625 34.9025C39.2244 35.1372 39.7047 35.5347 40.0426 36.0446C40.3806 36.5545 40.5609 37.154 40.5609 37.7673C40.5567 38.5884 40.2314 39.3746 39.6556 39.9552C39.0797 40.5359 38.3 40.8639 37.4856 40.8681V40.8681Z" fill="#6D86E0" fill-opacity="0.21"/>
<path d="M71.9323 40.8681C71.3234 40.8713 70.7273 40.6921 70.2194 40.3533C69.7116 40.0146 69.3149 39.5314 69.0797 38.9651C68.8445 38.3988 68.7814 37.7748 68.8982 37.1723C69.0151 36.5697 69.3067 36.0157 69.7362 35.5804C70.1656 35.1452 70.7136 34.8482 71.3105 34.7273C71.9075 34.6063 72.5266 34.6668 73.0895 34.901C73.6524 35.1352 74.1336 35.5326 74.4723 36.0429C74.8109 36.5532 74.9916 37.1533 74.9916 37.7673C74.9916 38.5869 74.6699 39.3732 74.0966 39.9542C73.5233 40.5353 72.7451 40.8638 71.9323 40.8681V40.8681Z" fill="#6D86E0" fill-opacity="0.21"/>
<path d="M106.348 40.8681C105.739 40.8681 105.145 40.6863 104.639 40.3455C104.133 40.0048 103.739 39.5205 103.506 38.9539C103.274 38.3873 103.213 37.7639 103.331 37.1624C103.45 36.5609 103.743 36.0084 104.173 35.5747C104.603 35.1411 105.151 34.8457 105.748 34.7261C106.344 34.6064 106.962 34.6679 107.524 34.9025C108.086 35.1372 108.567 35.5347 108.905 36.0446C109.242 36.5545 109.423 37.154 109.423 37.7673C109.419 38.5884 109.093 39.3746 108.517 39.9552C107.942 40.5359 107.162 40.8639 106.348 40.8681Z" fill="#6D86E0" fill-opacity="0.21"/>
<path d="M140.795 40.8681C140.186 40.8713 139.59 40.6921 139.082 40.3533C138.574 40.0146 138.178 39.5314 137.942 38.9651C137.707 38.3988 137.644 37.7748 137.761 37.1723C137.878 36.5697 138.169 36.0157 138.599 35.5804C139.028 35.1452 139.576 34.8482 140.173 34.7273C140.77 34.6063 141.389 34.6668 141.952 34.901C142.515 35.1352 142.996 35.5326 143.335 36.0429C143.673 36.5532 143.854 37.1533 143.854 37.7673C143.854 38.5869 143.532 39.3732 142.959 39.9542C142.386 40.5353 141.608 40.8638 140.795 40.8681V40.8681Z" fill="#6D86E0" fill-opacity="0.21"/>
<path d="M175.21 40.8681C174.602 40.8681 174.007 40.6863 173.502 40.3455C172.996 40.0048 172.602 39.5205 172.369 38.9539C172.136 38.3873 172.075 37.7639 172.194 37.1624C172.313 36.5609 172.605 36.0084 173.036 35.5747C173.466 35.1411 174.013 34.8457 174.61 34.7261C175.207 34.6064 175.825 34.6679 176.387 34.9025C176.949 35.1372 177.429 35.5347 177.767 36.0446C178.105 36.5545 178.285 37.154 178.285 37.7673C178.281 38.5884 177.956 39.3746 177.38 39.9552C176.804 40.5359 176.024 40.8639 175.21 40.8681V40.8681Z" fill="#6D86E0" fill-opacity="0.21"/>
<path d="M3.05437 75.5556C2.44613 75.5556 1.85163 75.3738 1.34591 75.0331C0.840178 74.6923 0.445949 74.208 0.213188 73.6414C-0.0195721 73.0748 -0.0804317 72.4514 0.0382286 71.8499C0.156889 71.2484 0.449779 70.6959 0.879864 70.2622C1.30995 69.8286 1.85786 69.5332 2.45441 69.4136C3.05095 69.2939 3.6693 69.3554 4.23124 69.59C4.79317 69.8247 5.27345 70.2222 5.61137 70.7321C5.94928 71.242 6.12963 71.8415 6.12963 72.4548C6.12963 73.2772 5.80569 74.0659 5.22896 74.6474C4.65224 75.2289 3.86998 75.5556 3.05437 75.5556V75.5556Z" fill="#6D86E0" fill-opacity="0.21"/>
<path d="M37.4836 75.5556C36.8802 75.5552 36.2902 75.3758 35.7872 75.0398C35.2842 74.7038 34.8904 74.226 34.6547 73.6659C34.419 73.1059 34.3519 72.4883 34.4618 71.89C34.5717 71.2918 34.8537 70.7394 35.2727 70.3016C35.6917 69.8638 36.2292 69.56 36.8182 69.4279C37.4072 69.2959 38.0217 69.3415 38.5852 69.559C39.1487 69.7765 39.6364 70.1564 39.9873 70.6514C40.3383 71.1463 40.537 71.7343 40.5589 72.3423C40.5717 72.7583 40.5017 73.1727 40.3531 73.561C40.2045 73.9493 39.9803 74.3036 39.6936 74.6031C39.407 74.9026 39.0637 75.1412 38.6841 75.3048C38.3046 75.4684 37.8964 75.5537 37.4836 75.5556V75.5556Z" fill="#6D86E0" fill-opacity="0.21"/>
<path d="M71.9318 75.5556C71.3229 75.5588 70.7268 75.3796 70.2189 75.0408C69.7111 74.7021 69.3144 74.2189 69.0792 73.6526C68.844 73.0863 68.7809 72.4623 68.8978 71.8598C69.0146 71.2572 69.3062 70.7032 69.7357 70.2679C70.1651 69.8327 70.7131 69.5357 71.31 69.4148C71.907 69.2938 72.5261 69.3543 73.089 69.5885C73.6519 69.8227 74.1331 70.2201 74.4718 70.7304C74.8104 71.2407 74.9911 71.8408 74.9911 72.4548C74.9911 73.2744 74.6694 74.0607 74.0961 74.6417C73.5228 75.2228 72.7446 75.5513 71.9318 75.5556V75.5556Z" fill="#6D86E0" fill-opacity="0.21"/>
<path d="M106.347 75.5556C105.739 75.5556 105.144 75.3738 104.639 75.0331C104.133 74.6923 103.739 74.208 103.506 73.6414C103.273 73.0748 103.212 72.4514 103.331 71.8499C103.45 71.2484 103.743 70.6959 104.173 70.2622C104.603 69.8286 105.151 69.5332 105.747 69.4136C106.344 69.2939 106.962 69.3554 107.524 69.59C108.086 69.8247 108.566 70.2222 108.904 70.7321C109.242 71.242 109.423 71.8415 109.423 72.4548C109.418 73.2759 109.093 74.0621 108.517 74.6427C107.941 75.2233 107.162 75.5514 106.347 75.5556Z" fill="#6D86E0" fill-opacity="0.21"/>
<path d="M140.792 75.5556C140.188 75.5583 139.597 75.3817 139.092 75.0476C138.587 74.7135 138.19 74.2368 137.952 73.6771C137.714 73.1173 137.645 72.4992 137.753 71.8999C137.861 71.3007 138.142 70.7468 138.56 70.3074C138.978 69.868 139.516 69.5626 140.105 69.4292C140.694 69.2959 141.31 69.3405 141.874 69.5576C142.439 69.7746 142.927 70.1544 143.279 70.6497C143.63 71.1449 143.83 71.7336 143.852 72.3423C143.867 72.7575 143.799 73.1716 143.652 73.5598C143.505 73.948 143.282 74.3025 142.997 74.6022C142.712 74.9019 142.369 75.1408 141.991 75.3046C141.612 75.4683 141.204 75.5537 140.792 75.5556V75.5556Z" fill="#6D86E0" fill-opacity="0.21"/>
<path d="M175.21 75.5556C174.602 75.5556 174.007 75.3738 173.502 75.0331C172.996 74.6923 172.602 74.208 172.369 73.6414C172.136 73.0748 172.075 72.4514 172.194 71.8499C172.313 71.2484 172.605 70.6959 173.036 70.2622C173.466 69.8286 174.013 69.5332 174.61 69.4136C175.207 69.2939 175.825 69.3554 176.387 69.59C176.949 69.8247 177.429 70.2222 177.767 70.7321C178.105 71.242 178.285 71.8415 178.285 72.4548C178.281 73.2759 177.956 74.0621 177.38 74.6427C176.804 75.2233 176.024 75.5514 175.21 75.5556V75.5556Z" fill="#6D86E0" fill-opacity="0.21"/>
<path d="M3.05436 110.243C2.44613 110.243 1.85163 110.062 1.34591 109.721C0.840178 109.38 0.445949 108.896 0.213188 108.329C-0.0195721 107.763 -0.0804317 107.139 0.0382286 106.538C0.156889 105.936 0.449779 105.384 0.879864 104.95C1.30995 104.516 1.85786 104.221 2.45441 104.101C3.05095 103.982 3.6693 104.043 4.23123 104.278C4.79317 104.512 5.27345 104.91 5.61137 105.42C5.94928 105.93 6.12963 106.529 6.12963 107.143C6.13174 107.55 6.05372 107.955 5.89992 108.332C5.74612 108.709 5.51962 109.052 5.23363 109.34C4.94764 109.628 4.60783 109.857 4.23376 110.012C3.8597 110.167 3.45881 110.245 3.05436 110.243V110.243Z" fill="#6D86E0" fill-opacity="0.21"/>
<path d="M37.4856 110.243C36.8774 110.243 36.2828 110.062 35.7771 109.721C35.2714 109.38 34.8772 108.896 34.6445 108.329C34.4117 107.763 34.3508 107.139 34.4695 106.538C34.5882 105.936 34.8811 105.384 35.3111 104.95C35.7412 104.516 36.2891 104.221 36.8857 104.101C37.4822 103.982 38.1006 104.043 38.6625 104.278C39.2244 104.512 39.7047 104.91 40.0426 105.42C40.3806 105.93 40.5609 106.529 40.5609 107.143C40.5609 107.965 40.237 108.754 39.6602 109.335C39.0835 109.917 38.3013 110.243 37.4856 110.243Z" fill="#6D86E0" fill-opacity="0.21"/>
<path d="M71.9328 110.243C71.3239 110.247 70.7277 110.067 70.2199 109.729C69.7121 109.39 69.3154 108.907 69.0802 108.34C68.845 107.774 68.7819 107.15 68.8987 106.547C69.0156 105.945 69.3072 105.391 69.7367 104.956C70.1661 104.52 70.714 104.223 71.311 104.103C71.908 103.982 72.5271 104.042 73.09 104.276C73.6528 104.51 74.1341 104.908 74.4727 105.418C74.8114 105.928 74.9921 106.529 74.9921 107.143C74.9942 107.549 74.9166 107.952 74.7638 108.328C74.611 108.704 74.386 109.046 74.1017 109.334C73.8174 109.622 73.4794 109.851 73.1072 110.007C72.735 110.163 72.3359 110.243 71.9328 110.243V110.243Z" fill="#6D86E0" fill-opacity="0.21"/>
<path d="M106.348 110.243C105.74 110.243 105.145 110.062 104.639 109.721C104.134 109.38 103.74 108.896 103.507 108.329C103.274 107.763 103.213 107.139 103.332 106.538C103.45 105.936 103.743 105.384 104.173 104.95C104.604 104.516 105.152 104.221 105.748 104.101C106.345 103.982 106.963 104.043 107.525 104.278C108.087 104.512 108.567 104.91 108.905 105.42C109.243 105.93 109.423 106.529 109.423 107.143C109.423 107.965 109.099 108.754 108.523 109.335C107.946 109.917 107.164 110.243 106.348 110.243V110.243Z" fill="#6D86E0" fill-opacity="0.21"/>
<path d="M140.795 110.243C140.186 110.247 139.59 110.067 139.082 109.729C138.574 109.39 138.178 108.907 137.943 108.34C137.707 107.774 137.644 107.15 137.761 106.547C137.878 105.945 138.17 105.391 138.599 104.956C139.028 104.52 139.576 104.223 140.173 104.103C140.77 103.982 141.389 104.042 141.952 104.276C142.515 104.51 142.996 104.908 143.335 105.418C143.674 105.928 143.854 106.529 143.854 107.143C143.857 107.549 143.779 107.952 143.626 108.328C143.473 108.704 143.248 109.046 142.964 109.334C142.68 109.622 142.342 109.851 141.97 110.007C141.597 110.163 141.198 110.243 140.795 110.243V110.243Z" fill="#6D86E0" fill-opacity="0.21"/>
<path d="M175.21 110.243C174.602 110.243 174.008 110.062 173.502 109.721C172.996 109.38 172.602 108.896 172.369 108.329C172.137 107.763 172.076 107.139 172.194 106.538C172.313 105.936 172.606 105.384 173.036 104.95C173.466 104.516 174.014 104.221 174.611 104.101C175.207 103.982 175.825 104.043 176.387 104.278C176.949 104.512 177.43 104.91 177.767 105.42C178.105 105.93 178.286 106.529 178.286 107.143C178.286 107.965 177.962 108.754 177.385 109.335C176.808 109.917 176.026 110.243 175.21 110.243V110.243Z" fill="#6D86E0" fill-opacity="0.21"/>
<path d="M3.05436 144.931C2.44613 144.931 1.85163 144.749 1.34591 144.408C0.840178 144.068 0.445949 143.583 0.213188 143.017C-0.0195721 142.45 -0.0804317 141.827 0.0382286 141.225C0.156889 140.624 0.449779 140.071 0.879864 139.637C1.30995 139.204 1.85786 138.908 2.45441 138.789C3.05095 138.669 3.6693 138.731 4.23123 138.965C4.79317 139.2 5.27345 139.597 5.61137 140.107C5.94928 140.617 6.12963 141.217 6.12963 141.83C6.13174 142.238 6.05372 142.642 5.89992 143.019C5.74612 143.396 5.51962 143.739 5.23363 144.027C4.94764 144.316 4.60783 144.544 4.23376 144.699C3.8597 144.854 3.45881 144.933 3.05436 144.931Z" fill="#6D86E0" fill-opacity="0.21"/>
<path d="M37.4856 144.931C36.8774 144.931 36.2828 144.749 35.7771 144.408C35.2714 144.068 34.8772 143.583 34.6445 143.017C34.4117 142.45 34.3508 141.827 34.4695 141.225C34.5882 140.624 34.8811 140.071 35.3111 139.637C35.7412 139.204 36.2891 138.908 36.8857 138.789C37.4822 138.669 38.1006 138.731 38.6625 138.965C39.2244 139.2 39.7047 139.597 40.0426 140.107C40.3806 140.617 40.5609 141.217 40.5609 141.83C40.5609 142.652 40.237 143.441 39.6602 144.023C39.0835 144.604 38.3013 144.931 37.4856 144.931V144.931Z" fill="#6D86E0" fill-opacity="0.21"/>
<path d="M71.9328 144.931C71.3239 144.934 70.7277 144.755 70.2199 144.416C69.7121 144.077 69.3154 143.594 69.0802 143.028C68.845 142.462 68.7819 141.838 68.8987 141.235C69.0156 140.632 69.3072 140.078 69.7367 139.643C70.1661 139.208 70.714 138.911 71.311 138.79C71.908 138.669 72.5271 138.73 73.09 138.964C73.6528 139.198 74.1341 139.595 74.4727 140.106C74.8114 140.616 74.9921 141.216 74.9921 141.83C74.9942 142.236 74.9166 142.639 74.7638 143.015C74.611 143.392 74.386 143.733 74.1017 144.022C73.8174 144.31 73.4794 144.538 73.1072 144.694C72.735 144.851 72.3359 144.931 71.9328 144.931V144.931Z" fill="#6D86E0" fill-opacity="0.21"/>
<path d="M106.348 144.931C105.74 144.931 105.145 144.749 104.639 144.408C104.134 144.068 103.74 143.583 103.507 143.017C103.274 142.45 103.213 141.827 103.332 141.225C103.45 140.624 103.743 140.071 104.173 139.637C104.604 139.204 105.152 138.908 105.748 138.789C106.345 138.669 106.963 138.731 107.525 138.965C108.087 139.2 108.567 139.597 108.905 140.107C109.243 140.617 109.423 141.217 109.423 141.83C109.423 142.652 109.099 143.441 108.523 144.023C107.946 144.604 107.164 144.931 106.348 144.931V144.931Z" fill="#6D86E0" fill-opacity="0.21"/>
<path d="M140.795 144.931C140.186 144.934 139.59 144.755 139.082 144.416C138.574 144.077 138.178 143.594 137.943 143.028C137.707 142.462 137.644 141.838 137.761 141.235C137.878 140.632 138.17 140.078 138.599 139.643C139.028 139.208 139.576 138.911 140.173 138.79C140.77 138.669 141.389 138.73 141.952 138.964C142.515 139.198 142.996 139.595 143.335 140.106C143.674 140.616 143.854 141.216 143.854 141.83C143.857 142.236 143.779 142.639 143.626 143.015C143.473 143.392 143.248 143.733 142.964 144.022C142.68 144.31 142.342 144.538 141.97 144.694C141.597 144.851 141.198 144.931 140.795 144.931V144.931Z" fill="#6D86E0" fill-opacity="0.21"/>
<path d="M175.21 144.931C174.602 144.931 174.008 144.749 173.502 144.408C172.996 144.068 172.602 143.583 172.369 143.017C172.137 142.45 172.076 141.827 172.194 141.225C172.313 140.624 172.606 140.071 173.036 139.637C173.466 139.204 174.014 138.908 174.611 138.789C175.207 138.669 175.825 138.731 176.387 138.965C176.949 139.2 177.43 139.597 177.767 140.107C178.105 140.617 178.286 141.217 178.286 141.83C178.286 142.652 177.962 143.441 177.385 144.023C176.808 144.604 176.026 144.931 175.21 144.931V144.931Z" fill="#6D86E0" fill-opacity="0.21"/>
<path d="M3.05437 179.619C2.44613 179.619 1.85163 179.437 1.34591 179.096C0.840178 178.755 0.445949 178.271 0.213188 177.704C-0.0195721 177.138 -0.0804317 176.514 0.0382286 175.913C0.156889 175.311 0.449779 174.759 0.879864 174.325C1.30995 173.892 1.85786 173.596 2.45441 173.477C3.05095 173.357 3.6693 173.418 4.23124 173.653C4.79317 173.888 5.27345 174.285 5.61137 174.795C5.94928 175.305 6.12963 175.905 6.12963 176.518C6.12963 177.34 5.80569 178.129 5.22896 178.71C4.65224 179.292 3.86998 179.619 3.05437 179.619V179.619Z" fill="#6D86E0" fill-opacity="0.21"/>
<path d="M37.4856 179.619C36.8774 179.619 36.2828 179.437 35.7771 179.096C35.2714 178.755 34.8772 178.271 34.6445 177.704C34.4117 177.138 34.3508 176.514 34.4695 175.913C34.5882 175.311 34.8811 174.759 35.3111 174.325C35.7412 173.892 36.2891 173.596 36.8857 173.477C37.4822 173.357 38.1006 173.418 38.6625 173.653C39.2244 173.888 39.7047 174.285 40.0426 174.795C40.3806 175.305 40.5609 175.905 40.5609 176.518C40.5567 177.339 40.2314 178.125 39.6556 178.706C39.0797 179.286 38.3 179.614 37.4856 179.619V179.619Z" fill="#6D86E0" fill-opacity="0.21"/>
<path d="M71.9323 179.619C71.3234 179.622 70.7273 179.443 70.2194 179.104C69.7116 178.765 69.3149 178.282 69.0797 177.716C68.8445 177.149 68.7814 176.525 68.8982 175.923C69.0151 175.32 69.3067 174.766 69.7362 174.331C70.1656 173.896 70.7136 173.599 71.3105 173.478C71.9075 173.357 72.5266 173.417 73.0895 173.651C73.6524 173.886 74.1336 174.283 74.4723 174.793C74.8109 175.304 74.9916 175.904 74.9916 176.518C74.9916 177.337 74.6699 178.124 74.0966 178.705C73.5233 179.286 72.7451 179.614 71.9323 179.619V179.619Z" fill="#6D86E0" fill-opacity="0.21"/>
<path d="M106.348 179.619C105.739 179.619 105.145 179.437 104.639 179.096C104.133 178.755 103.739 178.271 103.506 177.704C103.274 177.138 103.213 176.514 103.331 175.913C103.45 175.311 103.743 174.759 104.173 174.325C104.603 173.892 105.151 173.596 105.748 173.477C106.344 173.357 106.962 173.418 107.524 173.653C108.086 173.888 108.567 174.285 108.905 174.795C109.242 175.305 109.423 175.905 109.423 176.518C109.419 177.339 109.093 178.125 108.517 178.706C107.942 179.286 107.162 179.614 106.348 179.619Z" fill="#6D86E0" fill-opacity="0.21"/>
<path d="M140.795 179.619C140.186 179.622 139.59 179.443 139.082 179.104C138.574 178.765 138.178 178.282 137.942 177.716C137.707 177.149 137.644 176.525 137.761 175.923C137.878 175.32 138.169 174.766 138.599 174.331C139.028 173.896 139.576 173.599 140.173 173.478C140.77 173.357 141.389 173.417 141.952 173.651C142.515 173.886 142.996 174.283 143.335 174.793C143.673 175.304 143.854 175.904 143.854 176.518C143.854 177.337 143.532 178.124 142.959 178.705C142.386 179.286 141.608 179.614 140.795 179.619V179.619Z" fill="#6D86E0" fill-opacity="0.21"/>
<path d="M175.21 179.619C174.602 179.619 174.007 179.437 173.502 179.096C172.996 178.755 172.602 178.271 172.369 177.704C172.136 177.138 172.075 176.514 172.194 175.913C172.313 175.311 172.605 174.759 173.036 174.325C173.466 173.892 174.013 173.596 174.61 173.477C175.207 173.357 175.825 173.418 176.387 173.653C176.949 173.888 177.429 174.285 177.767 174.795C178.105 175.305 178.285 175.905 178.285 176.518C178.281 177.339 177.956 178.125 177.38 178.706C176.804 179.286 176.024 179.614 175.21 179.619V179.619Z" fill="#6D86E0" fill-opacity="0.21"/>
</g>
<defs>
<clipPath id="clip0_262_375">
<rect width="195" height="180" fill="white"/>
</clipPath>
</defs>
</svg>
