<svg width="28" height="28" viewBox="0 0 28 28" fill="none" xmlns="http://www.w3.org/2000/svg">
<path d="M14.4667 13.0667C14.5973 13.0667 13.846 13.328 26.0027 8.81067C26.1192 8.76766 26.2139 8.67994 26.2655 8.56694C26.3172 8.45393 26.3217 8.32499 26.278 8.20867C24.4306 3.28279 19.7276 0.0142691 14.4667 0C14.2089 0 14 0.208934 14 0.466667V12.6C14 12.8577 14.2089 13.0667 14.4667 13.0667ZM14.9333 0.933333C19.4639 1.12944 23.475 3.92102 25.2327 8.10133L14.9333 11.928V0.933333Z" fill="#C6C7C9"/>
<path d="M25.1995 15.4C25.2044 13.8965 24.9389 12.4043 24.4155 10.9947C24.3699 10.8772 24.2787 10.7831 24.1627 10.7339C24.0467 10.6847 23.9157 10.6845 23.7995 10.7334L13.0662 14.728V3.26669C13.0662 3.00895 12.8572 2.80002 12.5995 2.80002C7.49726 2.79701 2.89685 5.87136 0.947708 10.5866C-1.00143 15.3019 0.0855142 20.7272 3.70069 24.3277C7.31586 27.9282 12.7455 28.9931 17.4528 27.0247C20.6489 28.8618 24.722 27.9053 26.7662 24.8376C28.8105 21.77 28.1253 17.6426 25.1995 15.4ZM12.1328 3.73336V14.812L1.36684 12.278C2.70177 7.38258 7.06215 3.92186 12.1328 3.73336ZM1.14751 13.188L11.9928 15.736L8.39951 26.2641C3.13969 24.2308 0.0869997 18.7266 1.14751 13.188ZM9.26284 26.5674L12.9682 15.7594L23.7015 11.774C24.0253 12.7535 24.2153 13.7723 24.2662 14.8027C21.0932 13.1255 17.1658 14.1197 15.1731 17.1046C13.1803 20.0895 13.7679 24.098 16.5335 26.3854C14.1925 27.2258 11.643 27.2896 9.26284 26.5674ZM20.9995 27.0667C17.649 27.0667 14.9328 24.3506 14.9328 21.0001C14.9328 17.6495 17.649 14.9334 20.9995 14.9334C24.35 14.9334 27.0662 17.6495 27.0662 21.0001C27.0662 22.609 26.427 24.1521 25.2893 25.2898C24.1516 26.4276 22.6085 27.0667 20.9995 27.0667Z" fill="#C6C7C9"/>
<path d="M24.1314 17.8687C24.0438 17.7804 23.9245 17.7307 23.8001 17.7307C23.6757 17.7307 23.5564 17.7804 23.4688 17.8687L17.8688 23.4687C17.7342 23.6022 17.6937 23.8039 17.7664 23.979C17.8391 24.1541 18.0105 24.2678 18.2001 24.2667C18.3241 24.2674 18.4434 24.2187 18.5314 24.1314L24.1314 18.5314C24.2198 18.4438 24.2695 18.3245 24.2695 18.2001C24.2695 18.0756 24.2198 17.9563 24.1314 17.8687Z" fill="#C6C7C9"/>
<path d="M20.0663 18.6665C20.0663 17.8933 19.4395 17.2665 18.6664 17.2665C17.8932 17.2665 17.2664 17.8933 17.2664 18.6665C17.2664 19.4397 17.8932 20.0665 18.6664 20.0665C19.4395 20.0665 20.0663 19.4397 20.0663 18.6665ZM18.1997 18.6665C18.1997 18.4088 18.4086 18.1999 18.6664 18.1999C18.9241 18.1999 19.133 18.4088 19.133 18.6665C19.133 18.9243 18.9241 19.1332 18.6664 19.1332C18.4086 19.1332 18.1997 18.9243 18.1997 18.6665Z" fill="#C6C7C9"/>
<path d="M23.3319 21.9334C22.5587 21.9334 21.9319 22.5602 21.9319 23.3334C21.9319 24.1066 22.5587 24.7334 23.3319 24.7334C24.1051 24.7334 24.7319 24.1066 24.7319 23.3334C24.7319 22.5602 24.1051 21.9334 23.3319 21.9334ZM23.3319 23.8001C23.0741 23.8001 22.8652 23.5911 22.8652 23.3334C22.8652 23.0757 23.0741 22.8667 23.3319 22.8667C23.5896 22.8667 23.7985 23.0757 23.7985 23.3334C23.7985 23.5911 23.5896 23.8001 23.3319 23.8001Z" fill="#C6C7C9"/>
</svg>
