<svg width="32" height="32" viewBox="0 0 32 32" fill="none" xmlns="http://www.w3.org/2000/svg">
<g clip-path="url(#clip0)">
<path d="M16.561 14.5636H18.0195V15.7513C18.0195 16.004 18.1719 16.2321 18.4053 16.3287C18.4827 16.3607 18.564 16.3763 18.6445 16.3763C18.8071 16.3763 18.967 16.3129 19.0864 16.1932L20.7161 14.5636H28.8123C30.5698 14.5636 32 13.1337 32 11.3759V4.50012C32 2.74231 30.5698 1.31238 28.8123 1.31238H16.561C14.8032 1.31238 13.373 2.74231 13.373 4.50012V11.3759C13.373 13.1337 14.8032 14.5636 16.561 14.5636ZM14.6233 4.50012C14.6233 3.43176 15.4924 2.56238 16.561 2.56238H28.8123C29.8806 2.56238 30.7498 3.43176 30.7498 4.50012V11.3759C30.7498 12.4442 29.8806 13.3136 28.8123 13.3136H20.4573C20.2915 13.3136 20.1326 13.3795 20.0151 13.4967L19.2695 14.2423V13.9386C19.2695 13.5934 18.9897 13.3136 18.6445 13.3136H16.561C15.4924 13.3136 14.6233 12.4442 14.6233 11.3759V4.50012Z" fill="#C6C7C9" stroke="white" stroke-width="0.1"/>
<path d="M16.6819 11.7407H23.1826C23.5276 11.7407 23.8076 11.4607 23.8076 11.1155V10.1267C23.8076 8.95166 22.9817 7.96655 21.8801 7.71948C22.0352 7.41895 22.1233 7.07886 22.1233 6.71826V6.32666C22.1233 5.11841 21.1404 4.1355 19.9321 4.1355C18.7241 4.1355 17.7412 5.11841 17.7412 6.32666V6.71826C17.7412 7.07886 17.8293 7.41895 17.9844 7.71948C16.8826 7.96655 16.0569 8.95166 16.0569 10.1267V11.1155C16.0569 11.4607 16.3367 11.7407 16.6819 11.7407ZM18.9912 6.32666C18.9912 5.80786 19.4133 5.38574 19.9321 5.38574C20.4509 5.38574 20.873 5.80786 20.873 6.32666V6.71826C20.873 7.23706 20.4509 7.65918 19.9321 7.65918C19.4133 7.65918 18.9912 7.23706 18.9912 6.71826V6.32666ZM17.3069 10.1267C17.3069 9.45532 17.853 8.90918 18.5244 8.90918H21.3398C22.0112 8.90918 22.5574 9.45532 22.5574 10.1267V10.4905H17.3069V10.1267Z" fill="#C6C7C9" stroke="white" stroke-width="0.1"/>
<path d="M25.7495 6.40894H28.3958C28.7407 6.40894 29.0208 6.12915 29.0208 5.78394C29.0208 5.43872 28.7407 5.15894 28.3958 5.15894H25.7495C25.4045 5.15894 25.1245 5.43872 25.1245 5.78394C25.1245 6.12915 25.4045 6.40894 25.7495 6.40894Z" fill="#C6C7C9" stroke="white" stroke-width="0.1"/>
<path d="M25.7495 8.90924H28.3958C28.7407 8.90924 29.0208 8.62946 29.0208 8.28424C29.0208 7.93903 28.7407 7.65924 28.3958 7.65924H25.7495C25.4045 7.65924 25.1245 7.93903 25.1245 8.28424C25.1245 8.62946 25.4045 8.90924 25.7495 8.90924Z" fill="#C6C7C9" stroke="white" stroke-width="0.1"/>
<path d="M25.7495 11.4094H28.3958C28.7407 11.4094 29.0208 11.1296 29.0208 10.7844C29.0208 10.4391 28.7407 10.1594 28.3958 10.1594H25.7495C25.4045 10.1594 25.1245 10.4391 25.1245 10.7844C25.1245 11.1296 25.4045 11.4094 25.7495 11.4094Z" fill="#C6C7C9" stroke="white" stroke-width="0.1"/>
<path d="M31.8173 29.7364L30.415 28.334C30.2124 28.1314 29.9431 28.0198 29.6565 28.0198C29.3698 28.0198 29.1003 28.1314 28.8977 28.334L27.8923 29.3394L26.8852 28.3323C26.4668 27.9141 25.7861 27.9141 25.3679 28.3323L24.3674 29.3328L23.3098 28.2752C22.8913 27.857 22.2106 27.857 21.7924 28.2752L20.8896 29.178L19.5224 26.8606L20.2548 26.368C20.2553 26.3675 20.2561 26.3672 20.2565 26.3667L20.343 26.3086C21.1779 25.7466 21.7126 24.8499 21.8095 23.8479C21.9065 22.8462 21.5539 21.8636 20.8425 21.1519L18.2619 18.5713C17.0942 17.4039 15.2143 17.2657 13.8886 18.25L12.2185 19.4903C12.092 19.5843 11.9128 19.5711 11.8015 19.4598L8.85273 16.511C8.74141 16.3997 8.72822 16.2205 8.82197 16.094L10.0625 14.4239C11.0468 13.0982 10.9086 11.2181 9.74116 10.0508L7.1606 7.47002C6.44893 6.75835 5.46602 6.40606 4.46431 6.50298C3.4626 6.59991 2.56587 7.13457 2.00386 7.96953L1.92817 8.08208C1.92744 8.08306 1.92671 8.08404 1.92622 8.08501L0.989208 9.47759C-0.561574 11.7823 -0.261525 14.8807 1.70259 16.8448L4.81733 19.9593C5.06147 20.2034 5.45723 20.2034 5.70137 19.9593C5.94551 19.7154 5.94551 19.3194 5.70137 19.0752L2.58662 15.9607C1.04414 14.4183 0.808544 11.9852 2.02632 10.1756L2.5439 9.40655L8.10298 14.9656L7.81831 15.3489C7.35786 15.969 7.42256 16.8489 7.9687 17.3951L10.9174 20.3436C11.4636 20.8899 12.3432 20.9546 12.9636 20.4939L13.3728 20.1905L18.9328 25.7505L18.1369 26.2862C16.3271 27.504 13.894 27.2684 12.3518 25.7259L9.23726 22.6114C8.99312 22.3675 8.59761 22.3675 8.35322 22.6114C8.10908 22.8555 8.10908 23.2513 8.35322 23.4954L11.4677 26.6099C12.591 27.7332 14.0847 28.3121 15.5893 28.3121C16.5813 28.3121 17.5778 28.0599 18.4753 27.5464L19.9294 30.0103C20.0993 30.2981 20.3869 30.4874 20.7185 30.5293C21.0502 30.5711 21.3759 30.46 21.612 30.2237L22.551 29.2845L23.6086 30.3421C24.0271 30.7603 24.7077 30.7603 25.1259 30.3421L26.1264 29.3416L27.1335 30.3489C27.552 30.7671 28.2326 30.7671 28.6508 30.3489L29.6565 29.3433L30.9333 30.6202C31.0554 30.7422 31.2153 30.8033 31.3752 30.8033C31.5354 30.8033 31.6953 30.7422 31.8173 30.6202C32.0615 30.376 32.0615 29.9803 31.8173 29.7364ZM3.27949 8.37432C3.62397 8.01983 4.0832 7.79595 4.58491 7.74737C5.21406 7.68658 5.83003 7.90752 6.27656 8.35406L8.85713 10.9349C9.58955 11.6673 9.67622 12.847 9.05879 13.6785L8.8564 13.9512L3.27949 8.37432ZM14.634 19.2537C15.4655 18.636 16.6452 18.7227 17.3776 19.4554L19.9582 22.0359C20.4047 22.4825 20.6259 23.0992 20.5651 23.7276C20.5175 24.2186 20.302 24.6687 19.9606 25.0105L14.3872 19.4371L14.634 19.2537Z" fill="#C6C7C9" stroke="white" stroke-width="0.1"/>
<path d="M7.02588 20.6602C6.86084 20.6602 6.7002 20.7271 6.58398 20.8433C6.46704 20.9597 6.40088 21.1208 6.40088 21.2852C6.40088 21.4497 6.46704 21.6108 6.58398 21.7273C6.7002 21.8433 6.86109 21.9104 7.02588 21.9104C7.19043 21.9104 7.35157 21.8435 7.46778 21.7273C7.58399 21.6108 7.65088 21.4497 7.65088 21.2852C7.65088 21.1208 7.58423 20.9597 7.46778 20.8433C7.35157 20.7271 7.19043 20.6602 7.02588 20.6602Z" fill="#C6C7C9" stroke="white" stroke-width="0.1"/>
</g>
<defs>
<clipPath id="clip0">
<rect width="32" height="32" fill="white"/>
</clipPath>
</defs>
</svg>
