<svg width="36" height="36" viewBox="0 0 36 36" fill="none" xmlns="http://www.w3.org/2000/svg">
<g id="partner 1" clip-path="url(#clip0_262_598)">
<g id="XMLID 1321">
<g id="XMLID 396">
<path id="XMLID 429" d="M35.7741 14.6584L34.8364 13.0342C34.6423 12.6979 34.2125 12.5827 33.8759 12.7768C33.5396 12.971 33.4244 13.401 33.6186 13.7373L34.5563 15.3615C34.6058 15.4472 34.5948 15.5287 34.5838 15.5697C34.5729 15.6107 34.5416 15.6869 34.4559 15.7363L31.9762 17.168C31.845 17.2435 31.677 17.1984 31.6013 17.0675L26.6128 8.42737C26.5372 8.29631 26.5822 8.12813 26.7133 8.05241L29.1929 6.62082C29.324 6.5453 29.4923 6.59016 29.5679 6.72122L30.4546 8.25715C30.6488 8.59351 31.0789 8.70875 31.4151 8.51449C31.7514 8.32036 31.8666 7.89034 31.6724 7.55405L30.7857 6.01812C30.3224 5.21567 29.2926 4.93956 28.4899 5.40297L26.0102 6.83463C25.6335 7.05217 25.3728 7.39451 25.2501 7.77953H18.2205C17.2336 7.77953 16.3057 8.16385 15.6077 8.86175L14.8874 9.58201C14.2559 9.43147 13.6089 9.35406 12.9583 9.35406H10.7756C10.6665 8.93283 10.3956 8.55372 9.98991 8.31944L7.51021 6.88779C7.12139 6.66329 6.66831 6.60373 6.23485 6.71988C5.80125 6.83604 5.4388 7.11419 5.21437 7.50293L0.22592 16.1432C0.00148965 16.5319 -0.0582038 16.9848 0.0579488 17.4185C0.174101 17.8522 0.452249 18.2146 0.841065 18.439L3.32077 19.8707C3.58478 20.0231 3.87327 20.0955 4.15824 20.0955C4.26208 20.0955 4.36537 20.0855 4.4669 20.0666L6.49647 22.0963C6.4654 22.2558 6.4493 22.4194 6.4493 22.5856C6.4493 23.2612 6.7124 23.8965 7.19016 24.3742C7.64759 24.8315 8.23806 25.0764 8.83816 25.1095C8.82895 25.1977 8.82396 25.2867 8.82396 25.3766C8.82396 26.0523 9.08706 26.6874 9.56482 27.1651C10.0426 27.6429 10.6778 27.906 11.3534 27.906C11.3717 27.906 11.3899 27.9051 11.4081 27.9047C11.4077 27.9229 11.4068 27.9411 11.4068 27.9594C11.4068 28.6351 11.6699 29.2703 12.1477 29.748C12.6254 30.2257 13.2606 30.4888 13.9362 30.4888C13.9546 30.4888 13.9727 30.4879 13.991 30.4875C13.9906 30.5058 13.9897 30.5239 13.9897 30.5423C13.9897 31.2179 14.2528 31.8531 14.7305 32.3308C15.2083 32.8085 15.8435 33.0717 16.5191 33.0717C17.1947 33.0717 17.8299 32.8086 18.3076 32.3308L19.3079 31.3307C19.6011 31.0374 19.8064 30.6892 19.9253 30.3191C20.3697 30.647 20.8977 30.8111 21.426 30.811C22.0736 30.8109 22.7215 30.5644 23.2145 30.0713C23.5095 29.7763 23.7224 29.4212 23.8423 29.0337C24.2493 29.2998 24.7248 29.443 25.2224 29.443C25.898 29.443 26.5333 29.1799 27.011 28.7021C27.366 28.3471 27.6022 27.9051 27.7003 27.4242C27.9543 27.5083 28.2226 27.5526 28.4978 27.5526C29.1734 27.5526 29.8088 27.2895 30.2865 26.8117C31.2726 25.8254 31.2726 24.2208 30.2865 23.2345L28.6454 21.5935L31.6408 18.598C31.7074 18.606 31.7744 18.6105 31.8417 18.6105C32.1266 18.6105 32.4152 18.5381 32.6791 18.3857L35.1588 16.9541C35.5476 16.7296 35.8257 16.3672 35.9419 15.9336C36.0582 15.4999 35.9985 15.0472 35.7741 14.6584ZM1.5441 17.2212C1.45846 17.1718 1.42724 17.0956 1.41627 17.0546C1.40531 17.0136 1.39427 16.932 1.44377 16.8463L6.43221 8.20603C6.48164 8.1204 6.55786 8.08918 6.59885 8.07821C6.61635 8.07357 6.64124 8.06886 6.67063 8.06886C6.71022 8.06886 6.75796 8.07737 6.80704 8.10563L9.28674 9.53729C9.41773 9.61294 9.46287 9.78113 9.38721 9.91218L4.39877 18.5524C4.32304 18.6834 4.155 18.7285 4.02387 18.6529L1.5441 17.2212ZM7.8555 22.5855C7.8555 22.2855 7.97236 22.0034 8.18456 21.7913L8.79133 21.1845C9.01028 20.9655 9.29792 20.856 9.58563 20.856C9.8732 20.856 10.1609 20.9655 10.3799 21.1845C10.592 21.3967 10.7089 21.6787 10.7089 21.9787C10.7089 22.2787 10.592 22.5608 10.3799 22.7729L9.77308 23.3797C9.33511 23.8177 8.62252 23.8177 8.18456 23.3797C7.97236 23.1676 7.8555 22.8856 7.8555 22.5855ZM11.3534 26.4998C11.0534 26.4998 10.7713 26.3829 10.5592 26.1708C10.347 25.9587 10.2302 25.6766 10.2302 25.3766C10.2302 25.0766 10.347 24.7945 10.5592 24.5824L11.5594 23.5822C11.7783 23.3632 12.066 23.2538 12.3536 23.2538C12.6413 23.2538 12.929 23.3632 13.1479 23.5822C13.3601 23.7943 13.477 24.0764 13.477 24.3764C13.477 24.6764 13.3601 24.9585 13.1479 25.1706L12.1477 26.1708C11.9355 26.383 11.6535 26.4998 11.3534 26.4998ZM13.9363 29.0827C13.6362 29.0827 13.3542 28.9659 13.1421 28.7537C12.9299 28.5416 12.813 28.2595 12.813 27.9595C12.813 27.6595 12.9299 27.3774 13.1421 27.1652L14.1422 26.165C14.3612 25.9461 14.6488 25.8366 14.9365 25.8366C15.2241 25.8366 15.5118 25.9461 15.7307 26.1651C15.9429 26.3772 16.0598 26.6593 16.0598 26.9593C16.0598 27.2594 15.9429 27.5414 15.7307 27.7536L14.7306 28.7537C14.5185 28.9659 14.2364 29.0827 13.9363 29.0827ZM18.3136 30.3364L17.3134 31.3366C17.1012 31.5488 16.8192 31.6656 16.5191 31.6656C16.2191 31.6656 15.937 31.5488 15.7249 31.3366C15.5127 31.1245 15.3959 30.8424 15.3959 30.5424C15.3959 30.2423 15.5127 29.9603 15.7249 29.7481L16.7251 28.748C16.944 28.5289 17.2317 28.4195 17.5194 28.4195C17.8069 28.4195 18.0947 28.529 18.3136 28.7479C18.7516 29.1858 18.7516 29.8984 18.3136 30.3364ZM29.2923 25.8175C29.0801 26.0297 28.7981 26.1465 28.498 26.1465C28.198 26.1465 27.9159 26.0297 27.7038 25.8175L20.9926 19.1064C20.7181 18.8319 20.273 18.8318 19.9982 19.1064C19.7237 19.3809 19.7237 19.8261 19.9982 20.1007L26.0168 26.1193C26.229 26.3315 26.3458 26.6136 26.3458 26.9136C26.3458 27.2136 26.229 27.4957 26.0168 27.7079C25.8047 27.92 25.5227 28.0368 25.2226 28.0368C24.9225 28.0368 24.6405 27.92 24.4283 27.7079L17.1962 20.4757C16.9216 20.2012 16.4764 20.2012 16.2018 20.4757C15.9272 20.7502 15.9272 21.1954 16.2018 21.47L22.2203 27.4886C22.4325 27.7008 22.5494 27.9828 22.5494 28.2829C22.5494 28.5829 22.4325 28.865 22.2203 29.0771C21.7824 29.515 21.0698 29.5152 20.6318 29.0771L19.3081 27.7534C19.3063 27.7516 19.3043 27.75 19.3024 27.7483C18.7961 27.2449 18.1281 27.001 17.4647 27.0153C17.4651 26.9967 17.466 26.9781 17.466 26.9593C17.466 26.2837 17.2029 25.6485 16.7251 25.1707C16.2181 24.6637 15.5477 24.4181 14.8818 24.4324C14.8822 24.4138 14.8831 24.3952 14.8831 24.3765C14.8831 23.7008 14.62 23.0656 14.1422 22.5879C13.5878 22.0334 12.8378 21.7908 12.1122 21.8597C12.0831 21.2288 11.8237 20.6398 11.3742 20.1902C10.3879 19.204 8.78318 19.2042 7.79693 20.1902L7.19016 20.797C7.18945 20.7977 7.18875 20.7985 7.18805 20.7992L5.62674 19.2379L10.5212 10.7603H12.9582C13.197 10.7603 13.4351 10.7729 13.6719 10.7975L12.8682 11.6012C12.3904 12.079 12.1273 12.7143 12.1273 13.3899C12.1273 14.0656 12.3904 14.7007 12.8682 15.1785C13.3614 15.6716 14.0091 15.9182 14.6568 15.9182C15.3045 15.9182 15.9523 15.6717 16.4454 15.1785L18.3435 13.2804L29.2922 24.229C29.7302 24.6669 29.7302 25.3796 29.2923 25.8175ZM22.537 15.485C23.5602 14.7445 24.1873 13.5495 24.1873 12.2513C24.1873 11.8629 23.8725 11.5482 23.4842 11.5482C23.096 11.5482 22.7811 11.8629 22.7811 12.2513C22.7811 13.1697 22.296 14.0075 21.5219 14.47L18.8439 11.7921C18.5693 11.5175 18.1249 11.5103 17.8503 11.7849L15.4511 14.1841C15.0131 14.6221 14.3005 14.622 13.8625 14.1841C13.6503 13.972 13.5335 13.6899 13.5335 13.3899C13.5335 13.0899 13.6503 12.8078 13.8625 12.5956L16.602 9.85608C17.0343 9.42381 17.6091 9.18574 18.2205 9.18574H25.427L30.3835 17.7708C30.3952 17.7911 30.408 17.8104 30.4205 17.83L27.6512 20.5993L22.537 15.485Z" fill="white" stroke="white" stroke-width="0.1"/>
<path id="XMLID 436" d="M32.6453 11.349C32.8302 11.349 33.0109 11.2738 33.1424 11.143C33.2731 11.0115 33.3484 10.8308 33.3484 10.6459C33.3484 10.4603 33.2732 10.2796 33.1424 10.1481C33.0109 10.0173 32.8302 9.94278 32.6453 9.94278C32.4596 9.94278 32.2789 10.0173 32.1482 10.1481C32.0167 10.2796 31.9421 10.4603 31.9421 10.6459C31.9421 10.8308 32.0167 11.0115 32.1482 11.143C32.2789 11.2739 32.4596 11.349 32.6453 11.349Z" fill="white" stroke="white" stroke-width="0.1"/>
</g>
</g>
</g>
<defs>
<clipPath id="clip0_262_598">
<rect width="36" height="36" fill="white"/>
</clipPath>
</defs>
</svg>
