<svg width="32" height="32" viewBox="0 0 32 32" fill="none" xmlns="http://www.w3.org/2000/svg">
<g id="cheque 1" clip-path="url(#clip0_262_618)">
<g id="Group">
<path id="Vector" d="M31.5312 6.28382C31.7902 6.28382 32 6.07395 32 5.81507V3.54945C32 3.50364 31.9933 3.45807 31.9801 3.4142C31.9646 3.36276 31.816 2.8937 31.3806 2.27964C30.982 1.71732 30.2511 0.916761 29.0328 0.296136C28.8991 0.228011 28.7409 0.228073 28.6071 0.296136C27.2856 0.969698 26.5251 1.84964 26.1086 2.50332C25.6921 1.8497 24.9313 0.969761 23.6097 0.296136C23.476 0.227948 23.3177 0.227948 23.1839 0.296136C21.8626 0.969636 21.102 1.84951 20.6856 2.50314C20.2692 1.84951 19.5086 0.969636 18.1871 0.296136C18.0534 0.227948 17.8952 0.227948 17.7614 0.296136C16.4399 0.969698 15.6793 1.84957 15.2629 2.50332C14.8465 1.84964 14.0859 0.969761 12.7647 0.296198C12.6309 0.228011 12.4726 0.227948 12.3389 0.296198C9.99394 1.49139 9.41456 3.33614 9.39106 3.41407C9.37781 3.45801 9.37106 3.50357 9.37106 3.54945V13.0613H0.46875C0.209875 13.0613 0 13.2712 0 13.5301V16.2151C0 16.4739 0.209875 16.6838 0.46875 16.6838C0.727625 16.6838 0.9375 16.4739 0.9375 16.2151V13.9988H9.37125V26.6007C9.37125 28.9259 7.47956 30.8176 5.15438 30.8176C2.82919 30.8176 0.9375 28.9259 0.9375 26.6007V18.0901C0.9375 17.8312 0.727625 17.6213 0.46875 17.6213C0.209875 17.6213 0 17.8312 0 18.0901V26.6007C0 29.4428 2.31225 31.7551 5.15438 31.7551H26.8456C29.6877 31.7551 32 29.4428 32 26.6007V7.69007C32 7.4312 31.7902 7.22132 31.5312 7.22132C31.2723 7.22132 31.0625 7.4312 31.0625 7.69007V26.6007C31.0625 28.9259 29.1708 30.8176 26.8456 30.8176H8.11294C9.4395 29.884 10.3088 28.3424 10.3088 26.6007V3.62814C10.4146 3.34532 10.9439 2.14101 12.5519 1.24495C14.3444 2.24414 14.7961 3.62664 14.8144 3.68482C14.8738 3.88182 15.0552 4.01576 15.261 4.01689C15.4684 4.0192 15.6497 3.88351 15.7113 3.68714C15.7303 3.62657 16.1815 2.24407 17.9744 1.24489C19.7674 2.24407 20.2186 3.62645 20.2369 3.68464C20.2962 3.8817 20.4776 4.0157 20.6834 4.01689H20.6861C20.8908 4.01689 21.0724 3.8827 21.1338 3.68714C21.1528 3.62657 21.604 2.24407 23.3969 1.24489C25.19 2.24414 25.6418 3.62664 25.6601 3.68482C25.7195 3.88182 25.9009 4.01576 26.1067 4.01689C26.3119 4.01614 26.4953 3.88351 26.5569 3.68714C26.5759 3.62657 27.027 2.24414 28.82 1.24495C29.7408 1.75914 30.3016 2.37851 30.6157 2.82182C30.8842 3.20045 31.0162 3.50832 31.0625 3.62932V5.81507C31.0625 6.07395 31.2723 6.28382 31.5312 6.28382Z" fill="white"/>
<path id="Vector_2" d="M19.0921 10.9941C18.8641 10.8712 18.5798 10.9565 18.4571 11.1844C18.3343 11.4122 18.4194 11.6966 18.6474 11.8194C19.2598 12.1493 19.6767 12.2466 20.2166 12.2709V12.6357C20.2166 12.8946 20.4264 13.1045 20.6853 13.1045C20.9443 13.1045 21.1541 12.8946 21.1541 12.6357V12.2389C22.2581 12.057 22.9308 11.263 23.0403 10.4801C23.1656 9.58356 22.5888 8.81269 21.5706 8.51625C21.4338 8.47637 21.2938 8.43469 21.1541 8.39125V6.62669C21.5561 6.69769 21.7954 6.865 21.8154 6.87937C22.0213 7.03306 22.3131 6.99219 22.4688 6.78712C22.6254 6.581 22.5852 6.28694 22.3791 6.13031C22.352 6.10975 21.8962 5.77175 21.154 5.68062V5.36206C21.154 5.10319 20.9442 4.89331 20.6853 4.89331C20.4263 4.89331 20.2165 5.10319 20.2165 5.36206V5.7105C20.1474 5.72306 20.0774 5.73744 20.0059 5.75519C19.2796 5.93537 18.7371 6.4905 18.6239 7.1695C18.5279 7.74556 18.7633 8.294 19.2382 8.60075C19.4868 8.76137 19.7956 8.90875 20.2165 9.06412V11.3333C19.8126 11.3122 19.5423 11.2366 19.0921 10.9941ZM19.7469 7.81337C19.519 7.66612 19.5324 7.42187 19.5488 7.32375C19.5894 7.08 19.7866 6.78206 20.2166 6.6695V8.05575C20.0384 7.97887 19.8781 7.89806 19.7469 7.81337ZM21.3086 9.41637C21.8788 9.58237 22.1716 9.92281 22.1118 10.3502C22.0448 10.8304 21.6246 11.1462 21.1541 11.2749V9.37075C21.2048 9.38587 21.2557 9.401 21.3086 9.41637Z" fill="white"/>
<path id="Vector_3" d="M14.3349 15.5312H12.7874C12.5285 15.5312 12.3186 15.7411 12.3186 16C12.3186 16.2589 12.5285 16.4688 12.7874 16.4688H14.3349C14.5937 16.4688 14.8036 16.2589 14.8036 16C14.8036 15.7411 14.5937 15.5312 14.3349 15.5312Z" fill="white"/>
<path id="Vector_4" d="M28.6699 15.5312H16.3638C16.1048 15.5312 15.895 15.7411 15.895 16C15.895 16.2589 16.1048 16.4688 16.3638 16.4688H28.6698C28.9288 16.4688 29.1386 16.2589 29.1386 16C29.1386 15.7411 28.9288 15.5312 28.6699 15.5312Z" fill="white"/>
<path id="Vector_5" d="M14.3349 18.2292H12.7874C12.5285 18.2292 12.3186 18.4391 12.3186 18.698C12.3186 18.9569 12.5285 19.1667 12.7874 19.1667H14.3349C14.5937 19.1667 14.8036 18.9569 14.8036 18.698C14.8036 18.4391 14.5937 18.2292 14.3349 18.2292Z" fill="white"/>
<path id="Vector_6" d="M28.6699 18.2292H16.3638C16.1048 18.2292 15.895 18.4391 15.895 18.698C15.895 18.9569 16.1048 19.1667 16.3638 19.1667H28.6698C28.9288 19.1667 29.1386 18.9569 29.1386 18.698C29.1386 18.4391 28.9288 18.2292 28.6699 18.2292Z" fill="white"/>
<path id="Vector_7" d="M14.3349 23.838H12.7874C12.5285 23.838 12.3186 24.0479 12.3186 24.3068C12.3186 24.5656 12.5285 24.7755 12.7874 24.7755H14.3349C14.5937 24.7755 14.8036 24.5656 14.8036 24.3068C14.8036 24.0479 14.5937 23.838 14.3349 23.838Z" fill="white"/>
<path id="Vector_8" d="M28.6699 23.838H16.3638C16.1048 23.838 15.895 24.0479 15.895 24.3068C15.895 24.5656 16.1048 24.7755 16.3638 24.7755H28.6698C28.9288 24.7755 29.1386 24.5656 29.1386 24.3068C29.1386 24.0479 28.9288 23.838 28.6699 23.838Z" fill="white"/>
<path id="Vector_9" d="M14.3349 26.4838H12.7874C12.5285 26.4838 12.3186 26.6936 12.3186 26.9525C12.3186 27.2114 12.5285 27.4213 12.7874 27.4213H14.3349C14.5937 27.4213 14.8036 27.2114 14.8036 26.9525C14.8036 26.6936 14.5937 26.4838 14.3349 26.4838Z" fill="white"/>
<path id="Vector_10" d="M28.6699 26.4838H16.3638C16.1048 26.4838 15.895 26.6936 15.895 26.9525C15.895 27.2114 16.1048 27.4213 16.3638 27.4213H28.6698C28.9288 27.4213 29.1386 27.2114 29.1386 26.9525C29.1386 26.6936 28.9288 26.4838 28.6699 26.4838Z" fill="white"/>
</g>
</g>
<defs>
<clipPath id="clip0_262_618">
<rect width="32" height="32" fill="white"/>
</clipPath>
</defs>
</svg>
