<svg width="34" height="34" viewBox="0 0 34 34" fill="none" xmlns="http://www.w3.org/2000/svg">
<path d="M17 11.1562C19.0501 11.1562 20.7188 9.48812 20.7188 7.4375C20.7188 5.38688 19.0501 3.71875 17 3.71875C14.9499 3.71875 13.2812 5.38688 13.2812 7.4375C13.2812 9.48812 14.9499 11.1562 17 11.1562ZM17 4.78125C18.4647 4.78125 19.6562 5.97284 19.6562 7.4375C19.6562 8.90216 18.4647 10.0938 17 10.0938C15.5353 10.0938 14.3438 8.90216 14.3438 7.4375C14.3438 5.97284 15.5353 4.78125 17 4.78125Z" fill="white"/>
<path d="M10.6967 10.9007L13.5368 13.7413L14.6715 13.0608L14.9913 14.3438H19.0087L19.329 13.0602L20.4637 13.7408L23.3038 10.9002L22.6238 9.76597L23.9062 9.44616V5.42884L22.6227 5.1085L23.3033 3.97481L20.4637 1.13369L19.329 1.81422L19.0087 0.53125H14.9913L14.671 1.81475L13.5362 1.13369L10.6962 3.97428L11.3767 5.10797L10.0938 5.42884V9.44616L11.3767 9.7665L10.6967 10.9007ZM11.1562 8.61634V6.25866L12.1917 5.99994L12.4759 5.89209L12.7224 5.28541L12.0339 4.13897L13.7015 2.47191L14.8484 3.16041L15.4966 2.89319L15.8212 1.59375H18.1788L18.5034 2.89319L19.1516 3.16041L20.2985 2.47191L21.9661 4.13897L21.2776 5.28541L21.5411 5.93353L22.8438 6.25866V8.61634L21.8083 8.87506L21.5247 8.98238L21.2776 9.58906L21.9661 10.7366L20.2985 12.4036L19.1516 11.7151L18.5034 11.9823L18.1788 13.2812H15.8212L15.4966 11.9818L14.8484 11.7146L13.7015 12.4031L12.0339 10.736L12.7224 9.58853L12.4589 8.94147L11.1562 8.61634Z" fill="white"/>
<path d="M23.9062 20.7188H10.0938C9.21506 20.7188 8.5 21.4338 8.5 22.3125V31.875C8.5 32.7537 9.21506 33.4688 10.0938 33.4688H23.9062C24.7849 33.4688 25.5 32.7537 25.5 31.875V22.3125C25.5 21.4338 24.7849 20.7188 23.9062 20.7188ZM24.4375 22.3125V23.9062H19.125V21.7812H23.9062C24.1995 21.7812 24.4375 22.0193 24.4375 22.3125ZM15.9375 21.7812H18.0625V26.0312H15.9375V21.7812ZM10.0938 21.7812H14.875V23.9062H9.5625V22.3125C9.5625 22.0193 9.8005 21.7812 10.0938 21.7812ZM23.9062 32.4062H10.0938C9.8005 32.4062 9.5625 32.1683 9.5625 31.875V24.9688H14.875V27.0938H19.125V24.9688H24.4375V31.875C24.4375 32.1683 24.1995 32.4062 23.9062 32.4062Z" fill="white"/>
<path d="M18.0625 30.2812H19.125V31.3438H18.0625V30.2812Z" fill="white"/>
<path d="M22.3125 30.2812H23.375V31.3438H22.3125V30.2812Z" fill="white"/>
<path d="M20.1875 30.2812H21.25V31.3438H20.1875V30.2812Z" fill="white"/>
<path d="M27.2082 16.8942L26.5011 23.9678L33.5747 23.2607L31.1873 20.8727C31.9969 18.9655 32.4065 16.9494 32.4065 14.8749C32.4065 10.6876 30.8345 6.66921 28.4954 4.87518L28.1262 4.59149L25.7446 6.97309L26.2541 7.33805C27.7267 8.39312 29.219 11.3208 29.219 14.8749C29.219 16.0676 29.0453 17.2453 28.7005 18.3865L27.2082 16.8942ZM29.4267 19.5541C29.9941 18.0486 30.2815 16.474 30.2815 14.8749C30.2815 11.6539 29.0995 8.47812 27.3527 6.86737L28.2033 6.01737C30.0701 7.73649 31.344 11.2847 31.344 14.8749C31.344 16.9207 30.9153 18.905 30.0711 20.7734L29.9197 21.1081L31.2383 22.4266L27.6869 22.782L28.0423 19.2306L29.1367 20.325L29.4267 19.5541Z" fill="white"/>
<path d="M4.7815 14.875C4.7815 13.6824 4.95522 12.5051 5.3 11.3635L6.79281 12.8563L7.4999 5.78217L0.425781 6.48926L2.81322 8.87723C2.00359 10.7844 1.594 12.8005 1.594 14.875C1.594 19.0624 3.16597 23.0807 5.50506 24.8748L5.87428 25.1579L8.25587 22.7763L7.7464 22.4114C6.27378 21.3563 4.7815 18.4286 4.7815 14.875ZM5.79725 23.7331C3.93044 22.0134 2.6565 18.4652 2.6565 14.875C2.6565 12.8292 3.08522 10.845 3.92937 8.97657L4.08078 8.64188L2.76222 7.32332L6.31362 6.96845L5.95822 10.5193L4.86384 9.42548L4.57378 10.1963C4.00641 11.7019 3.719 13.276 3.719 14.875C3.719 18.0955 4.90103 21.2713 6.64778 22.8826L5.79725 23.7331Z" fill="white"/>
</svg>
