<svg width="524" height="524" viewBox="0 0 524 524" fill="none" xmlns="http://www.w3.org/2000/svg">
<circle opacity="0.3" cx="262" cy="262" r="116.5" stroke="#6D86E0"/>
<circle opacity="0.2" cx="262" cy="262" r="189.5" stroke="#6D86E0"/>
<circle opacity="0.1" cx="262" cy="262" r="261.5" stroke="#6D86E0"/>
<g opacity="0.7" filter="url(#filter0_f)">
<circle cx="262" cy="262" r="53" fill="#6D86E0"/>
</g>
<circle cx="262" cy="262" r="61" fill="#6D86E0"/>
<g clip-path="url(#clip0)">
<path d="M249.364 245.32C249.392 245.019 249.452 244.724 249.545 244.437C249.826 244.045 250.056 243.614 250.222 243.152C251.01 242.137 252.235 241.535 253.523 241.535H256.914C257.479 241.535 258.026 241.645 258.54 241.863C259.002 242.059 259.535 241.842 259.73 241.38C259.926 240.918 259.71 240.385 259.248 240.19C259.127 240.139 259.005 240.092 258.882 240.049C259.871 239.091 260.486 237.75 260.486 236.268C260.486 233.363 258.123 231 255.219 231C252.314 231 249.951 233.363 249.951 236.268C249.951 237.751 250.568 239.094 251.558 240.052C251.18 240.184 250.815 240.353 250.471 240.557C250.08 238.036 247.895 236.1 245.266 236.1C242.361 236.1 239.998 238.463 239.998 241.368C239.998 242.851 240.614 244.192 241.603 245.15C241.365 245.233 241.133 245.33 240.906 245.443C240.232 245.129 239.481 244.953 238.69 244.953C235.785 244.953 233.422 247.316 233.422 250.221C233.422 251.704 234.038 253.045 235.027 254.004C232.685 254.82 231 257.05 231 259.666V263.784C231 265.887 232.711 267.598 234.814 267.598H237.258C237.76 267.598 238.167 267.192 238.167 266.69C238.167 266.188 237.76 265.782 237.258 265.782H234.814C233.713 265.782 232.816 264.885 232.816 263.784V259.666C232.816 257.363 234.691 255.489 236.994 255.489H240.385C242.688 255.489 244.562 257.363 244.562 259.666V263.784C244.562 264.885 243.666 265.782 242.564 265.782H241.179C240.677 265.782 240.27 266.188 240.27 266.69C240.27 267.192 240.677 267.598 241.179 267.598H242.564C244.668 267.598 246.379 265.887 246.379 263.784V259.666C246.379 259.353 246.355 259.045 246.308 258.745H249.141C251.244 258.745 252.956 257.034 252.956 254.931V253.645H259.094C261.197 253.645 262.908 251.933 262.908 249.83V245.713C262.908 244.916 262.754 244.141 262.45 243.41C262.257 242.947 261.725 242.728 261.262 242.921C260.799 243.113 260.58 243.645 260.773 244.108C260.985 244.616 261.092 245.156 261.092 245.713V249.83C261.092 250.932 260.195 251.828 259.094 251.828H252.956V250.813C252.922 250.213 252.762 248.817 251.788 247.422C250.943 246.209 249.898 245.59 249.364 245.32ZM255.219 232.816C257.122 232.816 258.67 234.365 258.67 236.268C258.67 238.171 257.122 239.719 255.219 239.719C253.316 239.719 251.768 238.171 251.768 236.268C251.768 234.365 253.316 232.816 255.219 232.816ZM245.266 237.917C247.169 237.917 248.717 239.465 248.717 241.368C248.717 241.696 248.671 242.014 248.585 242.315C248.317 242.703 248.096 243.122 247.928 243.562C247.294 244.329 246.336 244.819 245.266 244.819C243.363 244.819 241.815 243.271 241.815 241.368C241.815 239.465 243.363 237.917 245.266 237.917ZM238.689 246.77C240.592 246.77 242.141 248.318 242.141 250.221C242.141 252.124 240.592 253.672 238.689 253.672C236.786 253.672 235.238 252.124 235.238 250.221C235.238 248.318 236.786 246.77 238.689 246.77ZM251.139 254.931C251.139 256.032 250.243 256.929 249.141 256.929H245.716C245.016 255.57 243.811 254.512 242.352 254.004C243.341 253.045 243.957 251.704 243.957 250.221C243.957 248.888 243.459 247.669 242.64 246.74C242.943 246.671 243.255 246.636 243.571 246.636H246.961C247.374 246.636 247.782 246.696 248.174 246.815C249.947 247.352 251.139 248.959 251.139 250.813L251.139 254.931Z" fill="white"/>
<path d="M276.229 263.09C268.984 263.09 263.09 268.984 263.09 276.229C263.09 283.473 268.984 289.367 276.229 289.367C283.473 289.367 289.367 283.473 289.367 276.229C289.367 268.984 283.473 263.09 276.229 263.09ZM276.229 287.551C269.985 287.551 264.906 282.472 264.906 276.229C264.906 269.985 269.985 264.906 276.229 264.906C282.472 264.906 287.551 269.985 287.551 276.229C287.551 282.472 282.472 287.551 276.229 287.551Z" fill="white"/>
<path d="M289.819 266.398C289.524 265.992 288.956 265.901 288.55 266.196C288.144 266.49 288.053 267.058 288.348 267.464C290.203 270.025 291.184 273.055 291.184 276.229C291.184 284.475 284.475 291.184 276.229 291.184C267.982 291.184 261.273 284.475 261.273 276.229C261.273 267.982 267.982 261.273 276.229 261.273C279.752 261.273 283.174 262.522 285.863 264.79C286.247 265.114 286.82 265.065 287.143 264.682C287.466 264.298 287.418 263.725 287.034 263.402C284.018 260.858 280.18 259.457 276.229 259.457C266.981 259.457 259.457 266.981 259.457 276.229C259.457 285.476 266.981 293 276.229 293C285.476 293 293 285.476 293 276.229C293 272.67 291.9 269.271 289.819 266.398Z" fill="white"/>
<path d="M277.361 270.361V269.091C277.361 268.589 276.954 268.183 276.452 268.183C275.951 268.183 275.544 268.589 275.544 269.091V270.361C274.13 270.586 273.046 271.814 273.046 273.29V274.17C273.046 275.806 274.377 277.137 276.013 277.137H277.71C277.893 277.137 278.043 277.286 278.043 277.469V279.167C278.043 279.801 277.526 280.317 276.892 280.317H276.013C275.378 280.317 274.862 279.801 274.862 279.167V278.727C274.862 278.225 274.456 277.819 273.954 277.819C273.452 277.819 273.046 278.225 273.046 278.727V279.167C273.046 280.643 274.13 281.871 275.544 282.097V283.366C275.544 283.868 275.951 284.275 276.452 284.275C276.954 284.275 277.361 283.868 277.361 283.366V282.097C278.775 281.871 279.859 280.643 279.859 279.167V277.469C279.859 276.284 278.895 275.32 277.71 275.32H276.013C275.378 275.32 274.862 274.804 274.862 274.17V273.29C274.862 272.656 275.378 272.14 276.013 272.14H276.892C277.526 272.14 278.043 272.656 278.043 273.29V273.73C278.043 274.232 278.449 274.638 278.951 274.638C279.452 274.638 279.859 274.232 279.859 273.73V273.29C279.859 271.814 278.775 270.586 277.361 270.361Z" fill="white"/>
<path d="M271.069 241.574C276.134 241.574 280.335 245.341 281.017 250.221L280.32 249.706C279.917 249.408 279.348 249.493 279.05 249.897C278.752 250.3 278.837 250.869 279.241 251.167L281.483 252.823C281.64 252.939 281.829 253 282.022 253C282.069 253 282.117 252.997 282.164 252.989C282.404 252.951 282.619 252.818 282.761 252.621L284.478 250.221C284.77 249.813 284.676 249.246 284.268 248.954C283.86 248.662 283.293 248.756 283.001 249.164L282.745 249.522C281.752 243.978 276.894 239.757 271.069 239.757C270.568 239.757 270.161 240.164 270.161 240.665C270.161 241.167 270.568 241.574 271.069 241.574Z" fill="white"/>
<path d="M250.054 280.894C249.755 280.49 249.187 280.405 248.784 280.703C248.38 281.001 248.295 281.569 248.593 281.973L249.107 282.67C244.228 281.987 240.461 277.786 240.461 272.722C240.461 272.22 240.054 271.814 239.552 271.814C239.051 271.814 238.644 272.22 238.644 272.722C238.644 278.547 242.865 283.405 248.408 284.397L248.051 284.653C247.643 284.945 247.549 285.513 247.841 285.92C248.018 286.168 248.297 286.3 248.58 286.3C248.763 286.3 248.948 286.245 249.108 286.131L251.507 284.414C251.705 284.272 251.838 284.057 251.876 283.817C251.914 283.576 251.854 283.331 251.709 283.135L250.054 280.894Z" fill="white"/>
</g>
<defs>
<filter id="filter0_f" x="109" y="109" width="306" height="306" filterUnits="userSpaceOnUse" color-interpolation-filters="sRGB">
<feFlood flood-opacity="0" result="BackgroundImageFix"/>
<feBlend mode="normal" in="SourceGraphic" in2="BackgroundImageFix" result="shape"/>
<feGaussianBlur stdDeviation="50" result="effect1_foregroundBlur"/>
</filter>
<clipPath id="clip0">
<rect width="62" height="62" fill="white" transform="translate(231 231)"/>
</clipPath>
</defs>
</svg>
