<svg width="524" height="524" viewBox="0 0 524 524" fill="none" xmlns="http://www.w3.org/2000/svg">
<circle opacity="0.3" cx="262" cy="262" r="116.5" stroke="#6D86E0"/>
<circle opacity="0.2" cx="262" cy="262" r="189.5" stroke="#6D86E0"/>
<circle opacity="0.1" cx="262" cy="262" r="261.5" stroke="#6D86E0"/>
<g opacity="0.7" filter="url(#filter0_f)">
<circle cx="262" cy="262" r="53" fill="#6D86E0"/>
</g>
<circle cx="262" cy="262" r="61" fill="#6D86E0"/>
<path d="M253.25 276.875H252.063C253.185 275.969 254.048 274.76 254.541 273.375H255.875C257.322 273.375 258.5 272.197 258.5 270.75C258.5 269.611 257.766 268.648 256.75 268.286V264.625C256.75 261.371 254.514 258.636 251.5 257.855V257.625C251.5 255.213 249.537 253.25 247.125 253.25C244.713 253.25 242.75 255.213 242.75 257.625V257.855C239.736 258.636 237.5 261.371 237.5 264.625V268.286C236.484 268.648 235.75 269.611 235.75 270.75C235.75 272.197 236.928 273.375 238.375 273.375H239.709C240.201 274.76 241.064 275.969 242.187 276.875H241C237.623 276.875 234.875 279.623 234.875 283V288.25C234.875 288.734 235.267 289.125 235.75 289.125H258.5C258.983 289.125 259.375 288.734 259.375 288.25V283C259.375 279.623 256.628 276.875 253.25 276.875ZM252.709 278.625L250.234 283.576L248.403 282.661L251.093 278.625H252.709ZM255.875 271.625H254.948C254.981 271.337 255 271.046 255 270.75V269.875H255.875C256.357 269.875 256.75 270.267 256.75 270.75C256.75 271.233 256.357 271.625 255.875 271.625ZM247.125 255C248.572 255 249.75 256.178 249.75 257.625H244.5C244.5 256.178 245.678 255 247.125 255ZM244.5 259.375H249.75C252.645 259.375 255 261.73 255 264.625V268.125H254.125H251.5C250.535 268.125 249.75 267.34 249.75 266.375V263.75V262.875H248V263.75C248 266.162 246.037 268.125 243.625 268.125H240.125H239.25V264.625C239.25 261.73 241.605 259.375 244.5 259.375ZM238.375 271.625C237.893 271.625 237.5 271.233 237.5 270.75C237.5 270.267 237.893 269.875 238.375 269.875H239.25V270.75C239.25 271.046 239.269 271.337 239.302 271.625H238.375ZM241 270.75V269.875H243.625C245.484 269.875 247.149 269.039 248.273 267.728C248.803 268.988 250.049 269.875 251.5 269.875H253.25V270.75C253.25 274.127 250.502 276.875 247.125 276.875C243.748 276.875 241 274.127 241 270.75ZM247.125 278.625C247.835 278.625 248.521 278.522 249.177 278.344L247.125 281.422L245.073 278.344C245.728 278.522 246.415 278.625 247.125 278.625ZM245.847 282.661L244.017 283.576L241.541 278.625H243.157L245.847 282.661ZM257.625 287.375H236.625V283C236.625 281.045 237.923 279.406 239.694 278.846L242.842 285.142C242.996 285.448 243.305 285.625 243.626 285.625C243.757 285.625 243.891 285.595 244.016 285.533L247.125 283.978L250.234 285.532C250.359 285.595 250.493 285.625 250.624 285.625C250.945 285.625 251.254 285.448 251.408 285.141L254.556 278.846C256.327 279.406 257.625 281.045 257.625 283V287.375Z" fill="white"/>
<path d="M283 276.875H281.813C282.935 275.969 283.798 274.76 284.291 273.375H285.625C287.072 273.375 288.25 272.197 288.25 270.75C288.25 269.611 287.516 268.648 286.5 268.286V264.625C286.5 260.765 283.36 257.625 279.5 257.625H274.25C270.39 257.625 267.25 260.765 267.25 264.625V268.286C266.234 268.648 265.5 269.611 265.5 270.75C265.5 272.197 266.678 273.375 268.125 273.375H269.459C269.951 274.76 270.814 275.969 271.936 276.875H270.75C267.372 276.875 264.625 279.623 264.625 283V288.25C264.625 288.734 265.017 289.125 265.5 289.125H288.25C288.733 289.125 289.125 288.734 289.125 288.25V283C289.125 279.623 286.377 276.875 283 276.875ZM282.459 278.625L279.984 283.576L278.153 282.661L280.843 278.625H282.459ZM285.625 271.625H284.698C284.731 271.337 284.75 271.046 284.75 270.75V269.875H285.625C286.107 269.875 286.5 270.267 286.5 270.75C286.5 271.233 286.107 271.625 285.625 271.625ZM274.25 259.375H279.5C282.395 259.375 284.75 261.73 284.75 264.625V268.125H283.875H281.25C280.285 268.125 279.5 267.34 279.5 266.375V263.75V262.875H277.75V263.75C277.75 266.162 275.787 268.125 273.375 268.125H269.875H269V264.625C269 261.73 271.355 259.375 274.25 259.375ZM268.125 271.625C267.643 271.625 267.25 271.233 267.25 270.75C267.25 270.267 267.643 269.875 268.125 269.875H269V270.75C269 271.046 269.019 271.337 269.052 271.625H268.125ZM270.75 270.75V269.875H273.375C275.233 269.875 276.899 269.039 278.023 267.728C278.553 268.988 279.799 269.875 281.25 269.875H283V270.75C283 274.127 280.252 276.875 276.875 276.875C273.497 276.875 270.75 274.127 270.75 270.75ZM276.875 278.625C277.585 278.625 278.271 278.522 278.927 278.344L276.875 281.422L274.823 278.344C275.478 278.522 276.164 278.625 276.875 278.625ZM275.597 282.661L273.767 283.576L271.291 278.625H272.907L275.597 282.661ZM287.375 287.375H266.375V283C266.375 281.045 267.673 279.406 269.444 278.846L272.592 285.142C272.746 285.448 273.055 285.625 273.376 285.625C273.507 285.625 273.641 285.595 273.766 285.533L276.875 283.978L279.984 285.532C280.109 285.595 280.243 285.625 280.374 285.625C280.695 285.625 281.004 285.448 281.158 285.141L284.305 278.846C286.077 279.406 287.375 281.045 287.375 283V287.375Z" fill="white"/>
<path d="M244.5 248.875H251.5V250.625C251.5 250.979 251.714 251.299 252.04 251.434C252.148 251.479 252.262 251.5 252.375 251.5C252.602 251.5 252.827 251.411 252.994 251.244L255.362 248.875H256.75V253.25C256.75 253.734 257.142 254.125 257.625 254.125H267.763L270.131 256.494C270.299 256.661 270.522 256.75 270.75 256.75C270.863 256.75 270.977 256.729 271.085 256.684C271.411 256.549 271.625 256.229 271.625 255.875V254.125H280.375C280.858 254.125 281.25 253.734 281.25 253.25V241C281.25 240.516 280.858 240.125 280.375 240.125H268.125V235.75C268.125 235.266 267.733 234.875 267.25 234.875H244.5C244.017 234.875 243.625 235.266 243.625 235.75V248C243.625 248.484 244.017 248.875 244.5 248.875ZM279.5 252.375H270.75C270.267 252.375 269.875 252.766 269.875 253.25V253.763L268.744 252.631C268.58 252.467 268.357 252.375 268.125 252.375H258.5V241.875H279.5V252.375ZM245.375 236.625H266.375V240.125H257.625C257.142 240.125 256.75 240.516 256.75 241V247.125H255C254.768 247.125 254.545 247.217 254.381 247.381L253.25 248.513V248C253.25 247.516 252.858 247.125 252.375 247.125H245.375V236.625Z" fill="white"/>
<path d="M260.25 244.5H277.75V246.25H260.25V244.5Z" fill="white"/>
<path d="M260.25 248H277.75V249.75H260.25V248Z" fill="white"/>
<defs>
<filter id="filter0_f" x="109" y="109" width="306" height="306" filterUnits="userSpaceOnUse" color-interpolation-filters="sRGB">
<feFlood flood-opacity="0" result="BackgroundImageFix"/>
<feBlend mode="normal" in="SourceGraphic" in2="BackgroundImageFix" result="shape"/>
<feGaussianBlur stdDeviation="50" result="effect1_foregroundBlur"/>
</filter>
</defs>
</svg>
