<svg width="36" height="29" viewBox="0 0 36 29" fill="none" xmlns="http://www.w3.org/2000/svg">
<path d="M35.7741 9.65841L34.8364 8.03417C34.6423 7.69795 34.2125 7.58271 33.8759 7.77684C33.5396 7.97096 33.4244 8.40098 33.6186 8.73728L34.5563 10.3615C34.6058 10.4472 34.5948 10.5287 34.5838 10.5697C34.5729 10.6107 34.5416 10.6869 34.4559 10.7363L31.9762 12.168C31.845 12.2435 31.677 12.1984 31.6013 12.0675L26.6128 3.42737C26.5372 3.29631 26.5822 3.12813 26.7133 3.05241L29.1929 1.62082C29.324 1.5453 29.4923 1.59016 29.5679 1.72122L30.4546 3.25715C30.6488 3.59351 31.0789 3.70875 31.4151 3.51449C31.7514 3.32036 31.8666 2.89034 31.6724 2.55405L30.7857 1.01812C30.3224 0.215667 29.2926 -0.060442 28.4899 0.402973L26.0102 1.83463C25.6335 2.05217 25.3728 2.39451 25.2501 2.77953H18.2205C17.2336 2.77953 16.3057 3.16385 15.6077 3.86175L14.8874 4.58201C14.2559 4.43147 13.6089 4.35406 12.9583 4.35406H10.7756C10.6665 3.93283 10.3956 3.55372 9.98991 3.31944L7.51021 1.88779C7.12139 1.66329 6.66831 1.60373 6.23485 1.71988C5.80125 1.83604 5.4388 2.11419 5.21437 2.50293L0.22592 11.1432C0.00148965 11.5319 -0.0582038 11.9848 0.0579488 12.4185C0.174101 12.8522 0.452249 13.2146 0.841065 13.439L3.32077 14.8707C3.58478 15.0231 3.87327 15.0955 4.15824 15.0955C4.26208 15.0955 4.36537 15.0855 4.4669 15.0666L6.49647 17.0963C6.4654 17.2558 6.4493 17.4194 6.4493 17.5856C6.4493 18.2612 6.7124 18.8965 7.19016 19.3742C7.64759 19.8315 8.23806 20.0764 8.83816 20.1095C8.82895 20.1977 8.82396 20.2867 8.82396 20.3766C8.82396 21.0523 9.08706 21.6874 9.56482 22.1651C10.0426 22.6429 10.6778 22.906 11.3534 22.906C11.3717 22.906 11.3899 22.9051 11.4081 22.9047C11.4077 22.9229 11.4068 22.9411 11.4068 22.9594C11.4068 23.6351 11.6699 24.2703 12.1477 24.748C12.6254 25.2257 13.2606 25.4888 13.9362 25.4888C13.9546 25.4888 13.9727 25.4879 13.991 25.4875C13.9906 25.5058 13.9897 25.5239 13.9897 25.5423C13.9897 26.2179 14.2528 26.8531 14.7305 27.3308C15.2083 27.8085 15.8435 28.0717 16.5191 28.0717C17.1947 28.0717 17.8299 27.8086 18.3076 27.3308L19.3079 26.3307C19.6011 26.0374 19.8064 25.6892 19.9253 25.3191C20.3697 25.647 20.8977 25.8111 21.426 25.811C22.0736 25.8109 22.7215 25.5644 23.2145 25.0713C23.5095 24.7763 23.7224 24.4212 23.8423 24.0337C24.2493 24.2998 24.7248 24.443 25.2224 24.443C25.898 24.443 26.5333 24.1799 27.011 23.7021C27.366 23.3471 27.6022 22.9051 27.7003 22.4242C27.9543 22.5083 28.2226 22.5526 28.4978 22.5526C29.1734 22.5526 29.8088 22.2895 30.2865 21.8117C31.2726 20.8254 31.2726 19.2208 30.2865 18.2345L28.6454 16.5935L31.6408 13.598C31.7074 13.606 31.7744 13.6105 31.8417 13.6105C32.1266 13.6105 32.4152 13.5381 32.6791 13.3857L35.1588 11.9541C35.5476 11.7296 35.8257 11.3672 35.9419 10.9336C36.0582 10.4999 35.9985 10.0472 35.7741 9.65841ZM1.5441 12.2212C1.45846 12.1718 1.42724 12.0956 1.41627 12.0546C1.40531 12.0136 1.39427 11.932 1.44377 11.8463L6.43221 3.20603C6.48164 3.1204 6.55786 3.08918 6.59885 3.07821C6.61635 3.07357 6.64124 3.06886 6.67063 3.06886C6.71022 3.06886 6.75796 3.07737 6.80704 3.10563L9.28674 4.53729C9.41773 4.61294 9.46287 4.78113 9.38721 4.91218L4.39877 13.5524C4.32304 13.6834 4.155 13.7285 4.02387 13.6529L1.5441 12.2212ZM7.8555 17.5855C7.8555 17.2855 7.97236 17.0034 8.18456 16.7913L8.79133 16.1845C9.01028 15.9655 9.29792 15.856 9.58563 15.856C9.8732 15.856 10.1609 15.9655 10.3799 16.1845C10.592 16.3967 10.7089 16.6787 10.7089 16.9787C10.7089 17.2787 10.592 17.5608 10.3799 17.7729L9.77308 18.3797C9.33511 18.8177 8.62252 18.8177 8.18456 18.3797C7.97236 18.1676 7.8555 17.8856 7.8555 17.5855ZM11.3534 21.4998C11.0534 21.4998 10.7713 21.3829 10.5592 21.1708C10.347 20.9587 10.2302 20.6766 10.2302 20.3766C10.2302 20.0766 10.347 19.7945 10.5592 19.5824L11.5594 18.5822C11.7783 18.3632 12.066 18.2538 12.3536 18.2538C12.6413 18.2538 12.929 18.3632 13.1479 18.5822C13.3601 18.7943 13.477 19.0764 13.477 19.3764C13.477 19.6764 13.3601 19.9585 13.1479 20.1706L12.1477 21.1708C11.9355 21.383 11.6535 21.4998 11.3534 21.4998ZM13.9363 24.0827C13.6362 24.0827 13.3542 23.9659 13.1421 23.7537C12.9299 23.5416 12.813 23.2595 12.813 22.9595C12.813 22.6595 12.9299 22.3774 13.1421 22.1652L14.1422 21.165C14.3612 20.9461 14.6488 20.8366 14.9365 20.8366C15.2241 20.8366 15.5118 20.9461 15.7307 21.1651C15.9429 21.3772 16.0598 21.6593 16.0598 21.9593C16.0598 22.2594 15.9429 22.5414 15.7307 22.7536L14.7306 23.7537C14.5185 23.9659 14.2364 24.0827 13.9363 24.0827ZM18.3136 25.3364L17.3134 26.3366C17.1012 26.5488 16.8192 26.6656 16.5191 26.6656C16.2191 26.6656 15.937 26.5488 15.7249 26.3366C15.5127 26.1245 15.3959 25.8424 15.3959 25.5424C15.3959 25.2423 15.5127 24.9603 15.7249 24.7481L16.7251 23.748C16.944 23.5289 17.2317 23.4195 17.5194 23.4195C17.8069 23.4195 18.0947 23.529 18.3136 23.7479C18.7516 24.1858 18.7516 24.8984 18.3136 25.3364ZM29.2923 20.8175C29.0801 21.0297 28.7981 21.1465 28.498 21.1465C28.198 21.1465 27.9159 21.0297 27.7038 20.8175L20.9926 14.1064C20.7181 13.8319 20.273 13.8318 19.9982 14.1064C19.7237 14.3809 19.7237 14.8261 19.9982 15.1007L26.0168 21.1193C26.229 21.3315 26.3458 21.6136 26.3458 21.9136C26.3458 22.2136 26.229 22.4957 26.0168 22.7079C25.8047 22.92 25.5227 23.0368 25.2226 23.0368C24.9225 23.0368 24.6405 22.92 24.4283 22.7079L17.1962 15.4757C16.9216 15.2012 16.4764 15.2012 16.2018 15.4757C15.9272 15.7502 15.9272 16.1954 16.2018 16.47L22.2203 22.4886C22.4325 22.7008 22.5494 22.9828 22.5494 23.2829C22.5494 23.5829 22.4325 23.865 22.2203 24.0771C21.7824 24.515 21.0698 24.5152 20.6318 24.0771L19.3081 22.7534C19.3063 22.7516 19.3043 22.75 19.3024 22.7483C18.7961 22.2449 18.1281 22.001 17.4647 22.0153C17.4651 21.9967 17.466 21.9781 17.466 21.9593C17.466 21.2837 17.2029 20.6485 16.7251 20.1707C16.2181 19.6637 15.5477 19.4181 14.8818 19.4324C14.8822 19.4138 14.8831 19.3952 14.8831 19.3765C14.8831 18.7008 14.62 18.0656 14.1422 17.5879C13.5878 17.0334 12.8378 16.7908 12.1122 16.8597C12.0831 16.2288 11.8237 15.6398 11.3742 15.1902C10.3879 14.204 8.78318 14.2042 7.79693 15.1902L7.19016 15.797C7.18945 15.7977 7.18875 15.7985 7.18805 15.7992L5.62674 14.2379L10.5212 5.76027H12.9582C13.197 5.76027 13.4351 5.77292 13.6719 5.79753L12.8682 6.60125C12.3904 7.07901 12.1273 7.71426 12.1273 8.38987C12.1273 9.06555 12.3904 9.70074 12.8682 10.1785C13.3614 10.6716 14.0091 10.9182 14.6568 10.9182C15.3045 10.9182 15.9523 10.6717 16.4454 10.1785L18.3435 8.2804L29.2922 19.229C29.7302 19.6669 29.7302 20.3796 29.2923 20.8175ZM22.537 10.485C23.5602 9.74454 24.1873 8.54955 24.1873 7.25127C24.1873 6.86294 23.8725 6.54816 23.4842 6.54816C23.096 6.54816 22.7811 6.86294 22.7811 7.25127C22.7811 8.16973 22.296 9.00748 21.5219 9.47005L18.8439 6.79207C18.5693 6.51751 18.1249 6.51034 17.8503 6.7849L15.4511 9.1841C15.0131 9.62206 14.3005 9.62199 13.8625 9.1841C13.6503 8.97197 13.5335 8.68989 13.5335 8.38987C13.5335 8.08986 13.6503 7.80777 13.8625 7.59558L16.602 4.85608C17.0343 4.42381 17.6091 4.18574 18.2205 4.18574H25.427L30.3835 12.7708C30.3952 12.7911 30.408 12.8104 30.4205 12.83L27.6512 15.5993L22.537 10.485Z" fill="#C6C7C9" stroke="white" stroke-width="0.1"/>
<path d="M32.6453 6.34903C32.8302 6.34903 33.0109 6.27379 33.1424 6.14301C33.2731 6.01153 33.3484 5.83083 33.3484 5.6459C33.3484 5.46028 33.2732 5.27958 33.1424 5.14809C33.0109 5.01731 32.8302 4.94278 32.6453 4.94278C32.4596 4.94278 32.2789 5.01731 32.1482 5.14809C32.0167 5.27958 31.9421 5.46028 31.9421 5.6459C31.9421 5.83083 32.0167 6.01153 32.1482 6.14301C32.2789 6.27386 32.4596 6.34903 32.6453 6.34903Z" fill="#C6C7C9" stroke="white" stroke-width="0.1"/>
</svg>
