<svg width="312" height="312" viewBox="0 0 312 312" fill="none" xmlns="http://www.w3.org/2000/svg">
<g opacity="0.05">
<path d="M210.844 194.391C207.479 194.391 204.75 197.119 204.75 200.484V242.531C204.75 259.332 191.082 273 174.281 273H108.488C105.124 273 102.397 275.726 102.395 279.089L102.386 291.205L87.8414 276.661C86.8999 274.5 84.7452 273 82.2528 273H42.6562C25.8558 273 12.1875 259.332 12.1875 242.531V148.688C12.1875 131.887 25.8558 118.219 42.6562 118.219H104.203C107.568 118.219 110.297 115.491 110.297 112.125C110.297 108.759 107.568 106.031 104.203 106.031H42.6562C19.1356 106.031 0 125.167 0 148.688V242.531C0 266.052 19.1356 285.188 42.6562 285.188H79.1322L104.16 310.215C105.326 311.381 106.884 312 108.47 312C109.254 312 110.046 311.848 110.798 311.537C113.076 310.595 114.561 308.374 114.562 305.911L114.577 285.188H174.281C197.802 285.188 216.938 266.052 216.938 242.531V200.484C216.938 197.119 214.209 194.391 210.844 194.391Z" fill="white"/>
<path d="M223.43 0H208.008C159.17 0 119.438 39.7325 119.438 88.5702C119.438 137.408 159.17 177.14 208.007 177.14H223.43C231.052 177.14 238.597 176.172 245.91 174.258L268.692 197.028C269.858 198.193 271.416 198.812 273.001 198.812C273.787 198.812 274.579 198.66 275.333 198.347C277.609 197.404 279.094 195.182 279.094 192.718V157.462C288.74 149.65 296.752 139.783 302.376 128.759C308.762 116.239 312 102.717 312 88.5702C312 39.7325 272.268 0 223.43 0ZM269.333 149.623C267.806 150.774 266.906 152.577 266.906 154.491V178.012L251.994 163.108C250.834 161.949 249.278 161.325 247.686 161.325C247.089 161.325 246.485 161.413 245.897 161.594C238.643 163.823 231.085 164.953 223.43 164.953H208.008C165.89 164.953 131.625 130.688 131.625 88.5702C131.625 46.4527 165.89 12.1875 208.008 12.1875H223.43C265.548 12.1875 299.812 46.4527 299.812 88.5702C299.812 112.781 288.704 135.034 269.333 149.623Z" fill="white"/>
<path d="M243.163 66.6795C242.283 53.9222 232 43.6384 219.242 42.7591C212.01 42.2624 205.108 44.7018 199.825 49.6334C194.615 54.4969 191.627 61.3718 191.627 68.496C191.627 71.8616 194.356 74.5898 197.721 74.5898C201.086 74.5898 203.815 71.8616 203.815 68.496C203.815 64.682 205.352 61.147 208.141 58.5431C210.929 55.9417 214.571 54.6541 218.404 54.9185C225.125 55.3817 230.541 60.7984 231.004 67.518C231.472 74.3046 227.02 80.3021 220.418 81.7792C215.069 82.976 211.333 87.6243 211.333 93.0825V107.723C211.333 111.088 214.062 113.816 217.427 113.816C220.792 113.816 223.521 111.088 223.52 107.723V93.5694C235.799 90.6029 244.037 79.3673 243.163 66.6795Z" fill="white"/>
<path d="M221.734 127.519C220.601 126.385 219.029 125.733 217.426 125.733C215.823 125.733 214.251 126.385 213.118 127.519C211.984 128.652 211.332 130.224 211.332 131.827C211.332 133.436 211.985 135.008 213.118 136.142C214.251 137.275 215.823 137.921 217.426 137.921C219.029 137.921 220.601 137.275 221.734 136.142C222.868 135.002 223.52 133.436 223.52 131.827C223.52 130.224 222.867 128.652 221.734 127.519Z" fill="white"/>
<path d="M167.578 188.906H39C35.635 188.906 32.9062 191.634 32.9062 195C32.9062 198.366 35.635 201.094 39 201.094H167.578C170.944 201.094 173.672 198.366 173.672 195C173.672 191.634 170.943 188.906 167.578 188.906Z" fill="white"/>
<path d="M171.886 224.817C170.753 223.683 169.181 223.031 167.578 223.031C165.975 223.031 164.403 223.683 163.27 224.817C162.136 225.95 161.484 227.522 161.484 229.125C161.484 230.728 162.136 232.3 163.27 233.433C164.403 234.567 165.975 235.219 167.578 235.219C169.181 235.219 170.753 234.567 171.886 233.433C173.02 232.3 173.672 230.734 173.672 229.125C173.672 227.522 173.019 225.95 171.886 224.817Z" fill="white"/>
<path d="M143.61 223.031H39C35.635 223.031 32.9062 225.759 32.9062 229.125C32.9062 232.491 35.635 235.219 39 235.219H143.61C146.975 235.219 149.703 232.491 149.703 229.125C149.703 225.759 146.975 223.031 143.61 223.031Z" fill="white"/>
<path d="M127.969 154.781H39C35.635 154.781 32.9062 157.509 32.9062 160.875C32.9062 164.241 35.635 166.969 39 166.969H127.969C131.334 166.969 134.062 164.241 134.062 160.875C134.062 157.509 131.334 154.781 127.969 154.781Z" fill="white"/>
</g>
</svg>
