<svg width="17" height="17" viewBox="0 0 17 17" fill="none" xmlns="http://www.w3.org/2000/svg">
<g clip-path="url(#clip0)">
<path d="M12.9268 14.1665H4.07263C3.77938 14.1665 3.54138 13.9285 3.54138 13.6353V6.19775C3.54138 5.9045 3.77938 5.6665 4.07263 5.6665H12.9268C13.22 5.6665 13.458 5.9045 13.458 6.19775V13.6353C13.458 13.9285 13.22 14.1665 12.9268 14.1665ZM4.60388 13.104H12.3955V6.729H4.60388V13.104Z" fill="#6D86E0"/>
<path d="M6.90625 14.1665C6.613 14.1665 6.375 13.9285 6.375 13.6353V6.19775C6.375 5.9045 6.613 5.6665 6.90625 5.6665C7.1995 5.6665 7.4375 5.9045 7.4375 6.19775V13.6353C7.4375 13.9285 7.1995 14.1665 6.90625 14.1665Z" fill="#6D86E0"/>
<path d="M12.9268 10.4477H4.07263C3.77938 10.4477 3.54138 10.2097 3.54138 9.9165C3.54138 9.62325 3.77938 9.38525 4.07263 9.38525H12.9268C13.22 9.38525 13.458 9.62325 13.458 9.9165C13.458 10.2097 13.22 10.4477 12.9268 10.4477Z" fill="#6D86E0"/>
<path d="M15.0521 16.2918H1.94792C0.873375 16.2918 0 15.4185 0 14.3439V2.65641C0 1.58187 0.873375 0.708496 1.94792 0.708496H15.0521C16.1266 0.708496 17 1.58187 17 2.65641V14.3439C17 15.4185 16.1266 16.2918 15.0521 16.2918ZM1.94792 1.771C1.45987 1.771 1.0625 2.16837 1.0625 2.65641V14.3439C1.0625 14.832 1.45987 15.2293 1.94792 15.2293H15.0521C15.5401 15.2293 15.9375 14.832 15.9375 14.3439V2.65641C15.9375 2.16837 15.5401 1.771 15.0521 1.771H1.94792Z" fill="#6D86E0"/>
<path d="M16.4688 4.25H0.53125C0.238 4.25 0 4.012 0 3.71875C0 3.4255 0.238 3.1875 0.53125 3.1875H16.4688C16.762 3.1875 17 3.4255 17 3.71875C17 4.012 16.762 4.25 16.4688 4.25Z" fill="#6D86E0"/>
</g>
<defs>
<clipPath id="clip0">
<rect width="17" height="17" fill="white"/>
</clipPath>
</defs>
</svg>
