<svg width="21" height="22" viewBox="0 0 21 22" fill="none" xmlns="http://www.w3.org/2000/svg">
<g clip-path="url(#clip0)">
<path d="M20.7113 1.27182C20.3265 0.886605 19.7023 0.886605 19.3176 1.27182L0.296481 20.2929C-0.0885733 20.6778 -0.0885733 21.3016 0.296481 21.6864C0.488927 21.8791 0.741255 21.9754 0.993419 21.9754C1.24558 21.9754 1.49791 21.8791 1.69019 21.6864L20.7113 2.66537C21.0963 2.28048 21.0963 1.65671 20.7113 1.27182Z" fill="#6D86E0"/>
<path d="M4.68169 0.989746C2.10033 0.989746 0 3.09024 0 5.6716C0 8.25296 2.10033 10.3533 4.68169 10.3533C7.26321 10.3533 9.36338 8.25279 9.36338 5.67143C9.36338 3.09007 7.26305 0.989746 4.68169 0.989746ZM4.68169 8.38191C3.18708 8.38191 1.97121 7.16588 1.97121 5.67143C1.97121 4.17699 3.18724 2.96096 4.68169 2.96096C6.1763 2.96096 7.39216 4.17699 7.39216 5.67143C7.39216 7.16588 6.1763 8.38191 4.68169 8.38191Z" fill="#6D86E0"/>
<path d="M16.3183 12.6104C13.7369 12.6104 11.6366 14.7107 11.6366 17.292C11.6366 19.8734 13.7369 21.9737 16.3183 21.9737C18.8997 21.9737 21 19.8736 21 17.292C21 14.7105 18.8997 12.6104 16.3183 12.6104ZM16.3183 20.0024C14.8237 20.0024 13.6078 18.7863 13.6078 17.2919C13.6078 15.7974 14.8238 14.5814 16.3183 14.5814C17.8127 14.5814 19.0288 15.7974 19.0288 17.2919C19.0288 18.7863 17.8129 20.0024 16.3183 20.0024Z" fill="#6D86E0"/>
</g>
<defs>
<clipPath id="clip0">
<rect width="21" height="21" fill="white" transform="translate(0 0.978516)"/>
</clipPath>
</defs>
</svg>
