<svg width="308" height="308" viewBox="0 0 308 308" fill="none" xmlns="http://www.w3.org/2000/svg">
<g opacity="0.05" clip-path="url(#clip0)">
<path d="M234.203 256.664H73.7868C68.4738 256.664 64.1618 252.352 64.1618 247.039V112.289C64.1618 106.976 68.4738 102.664 73.7868 102.664H234.203C239.516 102.664 243.828 106.976 243.828 112.289V247.039C243.828 252.352 239.516 256.664 234.203 256.664ZM83.4118 237.414H224.578V121.914H83.4118V237.414Z" fill="white"/>
<path d="M125.125 256.664C119.812 256.664 115.5 252.352 115.5 247.039V112.289C115.5 106.976 119.812 102.664 125.125 102.664C130.438 102.664 134.75 106.976 134.75 112.289V247.039C134.75 252.352 130.438 256.664 125.125 256.664Z" fill="white"/>
<path d="M234.203 189.288H73.7868C68.4738 189.288 64.1618 184.976 64.1618 179.664C64.1618 174.351 68.4738 170.039 73.7868 170.039H234.203C239.516 170.039 243.828 174.351 243.828 179.664C243.828 184.976 239.516 189.288 234.203 189.288Z" fill="white"/>
<path d="M272.708 295.169H35.2917C15.8235 295.169 0 279.346 0 259.878V48.1276C0 28.6594 15.8235 12.8359 35.2917 12.8359H272.708C292.176 12.8359 308 28.6594 308 48.1276V259.878C308 279.346 292.176 295.169 272.708 295.169ZM35.2917 32.0859C26.4495 32.0859 19.25 39.2854 19.25 48.1276V259.878C19.25 268.72 26.4495 275.919 35.2917 275.919H272.708C281.551 275.919 288.75 268.72 288.75 259.878V48.1276C288.75 39.2854 281.551 32.0859 272.708 32.0859H35.2917Z" fill="white"/>
<path d="M298.375 77H9.625C4.312 77 0 72.688 0 67.375C0 62.062 4.312 57.75 9.625 57.75H298.375C303.688 57.75 308 62.062 308 67.375C308 72.688 303.688 77 298.375 77Z" fill="white"/>
</g>
<defs>
<clipPath id="clip0">
<rect width="308" height="308" fill="white"/>
</clipPath>
</defs>
</svg>
