<svg width="305" height="305" viewBox="0 0 305 305" fill="none" xmlns="http://www.w3.org/2000/svg">
<g opacity="0.05">
<path d="M300.793 4.25131C295.205 -1.34354 286.138 -1.34354 280.551 4.25131L4.29209 280.51C-1.30037 286.1 -1.30037 295.159 4.29209 300.749C7.08713 303.547 10.7519 304.946 14.4143 304.946C18.0767 304.946 21.7414 303.547 24.5341 300.749L300.793 24.4909C306.385 18.9008 306.385 9.84139 300.793 4.25131Z" fill="white"/>
<path d="M67.9959 0.152832C30.5048 0.152832 0 30.66 0 68.1511C0 105.642 30.5048 136.147 67.9959 136.147C105.49 136.147 135.992 105.64 135.992 68.1488C135.992 30.6576 105.487 0.152832 67.9959 0.152832ZM67.9959 107.515C46.2885 107.515 28.6295 89.8538 28.6295 68.1488C28.6295 46.4437 46.2909 28.7823 67.9959 28.7823C89.7034 28.7823 107.362 46.4437 107.362 68.1488C107.362 89.8538 89.7034 107.515 67.9959 107.515Z" fill="white"/>
<path d="M237.004 168.939C199.513 168.939 169.008 199.444 169.008 236.935C169.008 274.426 199.513 304.931 237.004 304.931C274.495 304.931 305 274.428 305 236.935C305 199.441 274.495 168.939 237.004 168.939ZM237.004 276.299C215.297 276.299 197.638 258.638 197.638 236.933C197.638 215.227 215.299 197.566 237.004 197.566C258.709 197.566 276.37 215.227 276.37 236.933C276.37 258.638 258.711 276.299 237.004 276.299Z" fill="white"/>
</g>
</svg>
