<svg width="296" height="296" viewBox="0 0 296 296" fill="none" xmlns="http://www.w3.org/2000/svg">
<path d="M270.703 0H123.047C116.52 0 110.261 2.59277 105.645 7.20792C101.03 11.8231 98.4375 18.0826 98.4375 24.6094V88.5938C93.3735 88.591 88.3577 89.5774 83.6719 91.4977C78.9861 89.5774 73.9703 88.591 68.9062 88.5938C58.4677 88.6081 48.4609 92.7611 41.0797 100.142C33.6986 107.523 29.5456 117.53 29.5312 127.969V137.812H4.92188C3.61651 137.812 2.36461 138.331 1.44158 139.254C0.518553 140.177 0 141.429 0 142.734V260.859C0.0104214 269.994 3.64364 278.751 10.1026 285.21C16.5616 291.669 25.3188 295.302 34.4531 295.312H132.891C139.417 295.312 145.677 292.72 150.292 288.105C154.907 283.489 157.5 277.23 157.5 270.703V255.938H270.703C277.23 255.938 283.489 253.345 288.105 248.73C292.72 244.114 295.312 237.855 295.312 231.328V24.6094C295.312 18.0826 292.72 11.8231 288.105 7.20792C283.489 2.59277 277.23 0 270.703 0V0ZM98.4375 98.4375C106.27 98.4375 113.781 101.549 119.319 107.087C124.857 112.625 127.969 120.137 127.969 127.969V137.812H108.281V127.969C108.277 122.425 107.099 116.945 104.826 111.89C102.552 106.834 99.2347 102.316 95.0906 98.6344C96.1734 98.5359 97.3055 98.4375 98.4375 98.4375ZM83.6719 102.424C88.1567 105.014 91.8819 108.737 94.4735 113.22C97.0651 117.704 98.4322 122.79 98.4375 127.969V137.812H68.9062V127.969C68.9116 122.79 70.2786 117.704 72.8702 113.22C75.4619 108.737 79.187 105.014 83.6719 102.424V102.424ZM39.375 127.969C39.375 120.137 42.4863 112.625 48.0245 107.087C53.5627 101.549 61.0741 98.4375 68.9062 98.4375C70.0383 98.4375 71.1703 98.5359 72.2531 98.6344C68.1091 102.316 64.7913 106.834 62.5178 111.89C60.2444 116.945 59.0668 122.425 59.0625 127.969V137.812H39.375V127.969ZM103.359 285.469H34.4531C27.9263 285.469 21.6668 282.876 17.0517 278.261C12.4365 273.646 9.84375 267.386 9.84375 260.859V147.656H29.5312V167.344H24.6094C23.304 167.344 22.0521 167.862 21.1291 168.785C20.2061 169.708 19.6875 170.96 19.6875 172.266C19.6875 173.571 20.2061 174.823 21.1291 175.746C22.0521 176.669 23.304 177.188 24.6094 177.188H44.2969C45.6022 177.188 46.8541 176.669 47.7772 175.746C48.7002 174.823 49.2188 173.571 49.2188 172.266C49.2188 170.96 48.7002 169.708 47.7772 168.785C46.8541 167.862 45.6022 167.344 44.2969 167.344H39.375V147.656H98.4375V167.344H93.5156C92.2103 167.344 90.9584 167.862 90.0353 168.785C89.1123 169.708 88.5938 170.96 88.5938 172.266C88.5938 173.571 89.1123 174.823 90.0353 175.746C90.9584 176.669 92.2103 177.188 93.5156 177.188H113.203C114.508 177.188 115.76 176.669 116.683 175.746C117.606 174.823 118.125 173.571 118.125 172.266C118.125 170.96 117.606 169.708 116.683 168.785C115.76 167.862 114.508 167.344 113.203 167.344H108.281V147.656H127.969V260.859C127.969 267.386 125.376 273.646 120.761 278.261C116.146 282.876 109.886 285.469 103.359 285.469V285.469ZM147.656 270.703C147.645 274.616 146.085 278.365 143.319 281.131C140.552 283.898 136.803 285.457 132.891 285.469H127.427C130.716 282.27 133.33 278.443 135.113 274.216C136.897 269.989 137.815 265.447 137.812 260.859V147.656H147.656V270.703ZM285.469 231.328C285.457 235.241 283.898 238.99 281.131 241.756C278.365 244.523 274.616 246.082 270.703 246.094H157.5V231.328H172.266C173.571 231.328 174.823 230.81 175.746 229.887C176.669 228.964 177.188 227.712 177.188 226.406V196.875C177.188 195.57 176.669 194.318 175.746 193.395C174.823 192.472 173.571 191.953 172.266 191.953H157.5V182.109H172.266C173.571 182.109 174.823 181.591 175.746 180.668C176.669 179.745 177.188 178.493 177.188 177.188V147.656C177.188 146.351 176.669 145.099 175.746 144.176C174.823 143.253 173.571 142.734 172.266 142.734H157.5C157.5 141.429 156.981 140.177 156.058 139.254C155.135 138.331 153.883 137.812 152.578 137.812H137.812V127.969C137.794 119.248 134.886 110.778 129.543 103.885C124.2 96.9927 116.723 92.0652 108.281 89.8734V24.6094C108.293 20.6969 109.852 16.948 112.619 14.1814C115.385 11.4148 119.134 9.85543 123.047 9.84375H270.703C274.616 9.85543 278.365 11.4148 281.131 14.1814C283.898 16.948 285.457 20.6969 285.469 24.6094V231.328ZM157.5 221.484V201.797H167.344V221.484H157.5ZM157.5 172.266V152.578H167.344V172.266H157.5Z" fill="white" fill-opacity="0.08"/>
<path d="M270.703 19.6875H123.047C121.742 19.6875 120.49 20.2061 119.567 21.1291C118.644 22.0521 118.125 23.304 118.125 24.6094V68.9062C118.125 70.2116 118.644 71.4635 119.567 72.3865C120.49 73.3096 121.742 73.8281 123.047 73.8281H270.703C272.008 73.8281 273.26 73.3096 274.183 72.3865C275.106 71.4635 275.625 70.2116 275.625 68.9062V24.6094C275.625 23.304 275.106 22.0521 274.183 21.1291C273.26 20.2061 272.008 19.6875 270.703 19.6875ZM265.781 63.9844H127.969V29.5312H265.781V63.9844Z" fill="white" fill-opacity="0.08"/>
<path d="M270.703 93.5156H241.172C239.867 93.5156 238.615 94.0342 237.692 94.9572C236.769 95.8802 236.25 97.1321 236.25 98.4375V127.969C236.25 129.274 236.769 130.526 237.692 131.449C238.615 132.372 239.867 132.891 241.172 132.891H270.703C272.008 132.891 273.26 132.372 274.183 131.449C275.106 130.526 275.625 129.274 275.625 127.969V98.4375C275.625 97.1321 275.106 95.8802 274.183 94.9572C273.26 94.0342 272.008 93.5156 270.703 93.5156ZM265.781 123.047H246.094V103.359H265.781V123.047Z" fill="white" fill-opacity="0.08"/>
<path d="M270.703 142.734H241.172C239.867 142.734 238.615 143.253 237.692 144.176C236.769 145.099 236.25 146.351 236.25 147.656V226.406C236.25 227.712 236.769 228.964 237.692 229.887C238.615 230.81 239.867 231.328 241.172 231.328H270.703C272.008 231.328 273.26 230.81 274.183 229.887C275.106 228.964 275.625 227.712 275.625 226.406V147.656C275.625 146.351 275.106 145.099 274.183 144.176C273.26 143.253 272.008 142.734 270.703 142.734ZM265.781 221.484H246.094V152.578H265.781V221.484Z" fill="white" fill-opacity="0.08"/>
<path d="M221.484 93.5156H191.953C190.648 93.5156 189.396 94.0342 188.473 94.9572C187.55 95.8802 187.031 97.1321 187.031 98.4375V127.969C187.031 129.274 187.55 130.526 188.473 131.449C189.396 132.372 190.648 132.891 191.953 132.891H221.484C222.79 132.891 224.042 132.372 224.965 131.449C225.888 130.526 226.406 129.274 226.406 127.969V98.4375C226.406 97.1321 225.888 95.8802 224.965 94.9572C224.042 94.0342 222.79 93.5156 221.484 93.5156ZM216.562 123.047H196.875V103.359H216.562V123.047Z" fill="white" fill-opacity="0.08"/>
<path d="M221.484 142.734H191.953C190.648 142.734 189.396 143.253 188.473 144.176C187.55 145.099 187.031 146.351 187.031 147.656V177.188C187.031 178.493 187.55 179.745 188.473 180.668C189.396 181.591 190.648 182.109 191.953 182.109H221.484C222.79 182.109 224.042 181.591 224.965 180.668C225.888 179.745 226.406 178.493 226.406 177.188V147.656C226.406 146.351 225.888 145.099 224.965 144.176C224.042 143.253 222.79 142.734 221.484 142.734ZM216.562 172.266H196.875V152.578H216.562V172.266Z" fill="white" fill-opacity="0.08"/>
<path d="M221.484 191.953H191.953C190.648 191.953 189.396 192.472 188.473 193.395C187.55 194.318 187.031 195.57 187.031 196.875V226.406C187.031 227.712 187.55 228.964 188.473 229.887C189.396 230.81 190.648 231.328 191.953 231.328H221.484C222.79 231.328 224.042 230.81 224.965 229.887C225.888 228.964 226.406 227.712 226.406 226.406V196.875C226.406 195.57 225.888 194.318 224.965 193.395C224.042 192.472 222.79 191.953 221.484 191.953ZM216.562 221.484H196.875V201.797H216.562V221.484Z" fill="white" fill-opacity="0.08"/>
<path d="M142.734 132.891H172.266C173.571 132.891 174.823 132.372 175.746 131.449C176.669 130.526 177.188 129.274 177.188 127.969V98.4375C177.188 97.1321 176.669 95.8802 175.746 94.9572C174.823 94.0342 173.571 93.5156 172.266 93.5156H142.734C141.429 93.5156 140.177 94.0342 139.254 94.9572C138.331 95.8802 137.812 97.1321 137.812 98.4375V127.969C137.812 129.274 138.331 130.526 139.254 131.449C140.177 132.372 141.429 132.891 142.734 132.891ZM147.656 103.359H167.344V123.047H147.656V103.359Z" fill="white" fill-opacity="0.08"/>
</svg>
