<svg width="25" height="25" viewBox="0 0 25 25" fill="none" xmlns="http://www.w3.org/2000/svg">
<path d="M22.2656 0.78125H10.5469C10.0289 0.78125 9.53209 0.987025 9.16581 1.35331C8.79953 1.71959 8.59375 2.21637 8.59375 2.73438V7.8125C8.19184 7.81228 7.79377 7.89057 7.42188 8.04297C7.04998 7.89057 6.65191 7.81228 6.25 7.8125C5.42155 7.81364 4.62735 8.14324 4.04155 8.72905C3.45574 9.31485 3.12614 10.109 3.125 10.9375V11.7188H1.17188C1.06827 11.7188 0.968918 11.7599 0.895661 11.8332C0.822405 11.9064 0.78125 12.0058 0.78125 12.1094V21.4844C0.782077 22.2093 1.07043 22.9043 1.58304 23.417C2.09566 23.9296 2.79068 24.2179 3.51562 24.2188H11.3281C11.8461 24.2188 12.3429 24.013 12.7092 23.6467C13.0755 23.2804 13.2812 22.7836 13.2812 22.2656V21.0938H22.2656C22.7836 21.0938 23.2804 20.888 23.6467 20.5217C24.013 20.1554 24.2188 19.6586 24.2188 19.1406V2.73438C24.2188 2.21637 24.013 1.71959 23.6467 1.35331C23.2804 0.987025 22.7836 0.78125 22.2656 0.78125ZM8.59375 8.59375C9.21535 8.59375 9.81149 8.84068 10.251 9.28022C10.6906 9.71976 10.9375 10.3159 10.9375 10.9375V11.7188H9.375V10.9375C9.37466 10.4975 9.2812 10.0626 9.10077 9.66138C8.92033 9.26012 8.65702 8.9016 8.32812 8.60938C8.41406 8.60156 8.50391 8.59375 8.59375 8.59375ZM7.42188 8.91016C7.77782 9.11566 8.07346 9.41115 8.27915 9.76699C8.48483 10.1228 8.59333 10.5265 8.59375 10.9375V11.7188H6.25V10.9375C6.25042 10.5265 6.35892 10.1228 6.5646 9.76699C6.77029 9.41115 7.06593 9.11566 7.42188 8.91016ZM3.90625 10.9375C3.90625 10.3159 4.15318 9.71976 4.59272 9.28022C5.03226 8.84068 5.6284 8.59375 6.25 8.59375C6.33984 8.59375 6.42969 8.60156 6.51562 8.60938C6.18673 8.9016 5.92342 9.26012 5.74298 9.66138C5.56255 10.0626 5.46909 10.4975 5.46875 10.9375V11.7188H3.90625V10.9375ZM8.98438 23.4375H3.51562C2.99762 23.4375 2.50084 23.2317 2.13456 22.8654C1.76828 22.4992 1.5625 22.0024 1.5625 21.4844V12.5H3.125V14.0625H2.73438C2.63077 14.0625 2.53142 14.1037 2.45816 14.1769C2.38491 14.2502 2.34375 14.3495 2.34375 14.4531C2.34375 14.5567 2.38491 14.6561 2.45816 14.7293C2.53142 14.8026 2.63077 14.8438 2.73438 14.8438H4.29688C4.40048 14.8438 4.49983 14.8026 4.57309 14.7293C4.64634 14.6561 4.6875 14.5567 4.6875 14.4531C4.6875 14.3495 4.64634 14.2502 4.57309 14.1769C4.49983 14.1037 4.40048 14.0625 4.29688 14.0625H3.90625V12.5H8.59375V14.0625H8.20312C8.09952 14.0625 8.00017 14.1037 7.92691 14.1769C7.85365 14.2502 7.8125 14.3495 7.8125 14.4531C7.8125 14.5567 7.85365 14.6561 7.92691 14.7293C8.00017 14.8026 8.09952 14.8438 8.20312 14.8438H9.76562C9.86923 14.8438 9.96858 14.8026 10.0418 14.7293C10.1151 14.6561 10.1562 14.5567 10.1562 14.4531C10.1562 14.3495 10.1151 14.2502 10.0418 14.1769C9.96858 14.1037 9.86923 14.0625 9.76562 14.0625H9.375V12.5H10.9375V21.4844C10.9375 22.0024 10.7317 22.4992 10.3654 22.8654C9.99916 23.2317 9.50238 23.4375 8.98438 23.4375ZM12.5 22.2656C12.4991 22.5761 12.3753 22.8737 12.1557 23.0932C11.9362 23.3128 11.6386 23.4366 11.3281 23.4375H10.8945C11.1555 23.1836 11.363 22.8799 11.5045 22.5445C11.6461 22.209 11.719 21.8485 11.7188 21.4844V12.5H12.5V22.2656ZM23.4375 19.1406C23.4366 19.4511 23.3128 19.7487 23.0932 19.9682C22.8737 20.1878 22.5761 20.3116 22.2656 20.3125H13.2812V19.1406H14.4531C14.5567 19.1406 14.6561 19.0995 14.7293 19.0262C14.8026 18.953 14.8438 18.8536 14.8438 18.75V16.4062C14.8438 16.3026 14.8026 16.2033 14.7293 16.13C14.6561 16.0568 14.5567 16.0156 14.4531 16.0156H13.2812V15.2344H14.4531C14.5567 15.2344 14.6561 15.1932 14.7293 15.12C14.8026 15.0467 14.8438 14.9474 14.8438 14.8438V12.5C14.8438 12.3964 14.8026 12.297 14.7293 12.2238C14.6561 12.1505 14.5567 12.1094 14.4531 12.1094H13.2812C13.2812 12.0058 13.2401 11.9064 13.1668 11.8332C13.0936 11.7599 12.9942 11.7188 12.8906 11.7188H11.7188V10.9375C11.7173 10.2453 11.4865 9.57317 11.0624 9.02613C10.6384 8.47908 10.0449 8.08801 9.375 7.91406V2.73438C9.37593 2.42386 9.49969 2.12633 9.71926 1.90676C9.93883 1.68719 10.2364 1.56343 10.5469 1.5625H22.2656C22.5761 1.56343 22.8737 1.68719 23.0932 1.90676C23.3128 2.12633 23.4366 2.42386 23.4375 2.73438V19.1406ZM13.2812 18.3594V16.7969H14.0625V18.3594H13.2812ZM13.2812 14.4531V12.8906H14.0625V14.4531H13.2812Z" fill="#6D86E0"/>
<path d="M22.2656 2.34375H10.5469C10.4433 2.34375 10.3439 2.38491 10.2707 2.45816C10.1974 2.53142 10.1562 2.63077 10.1562 2.73438V6.25C10.1562 6.3536 10.1974 6.45296 10.2707 6.52621C10.3439 6.59947 10.4433 6.64062 10.5469 6.64062H22.2656C22.3692 6.64062 22.4686 6.59947 22.5418 6.52621C22.6151 6.45296 22.6562 6.3536 22.6562 6.25V2.73438C22.6562 2.63077 22.6151 2.53142 22.5418 2.45816C22.4686 2.38491 22.3692 2.34375 22.2656 2.34375ZM21.875 5.85938H10.9375V3.125H21.875V5.85938Z" fill="#6D86E0"/>
<path d="M22.2656 8.20312H19.9219C19.8183 8.20312 19.7189 8.24428 19.6457 8.31754C19.5724 8.39079 19.5312 8.49015 19.5312 8.59375V10.9375C19.5312 11.0411 19.5724 11.1405 19.6457 11.2137C19.7189 11.287 19.8183 11.3281 19.9219 11.3281H22.2656C22.3692 11.3281 22.4686 11.287 22.5418 11.2137C22.6151 11.1405 22.6562 11.0411 22.6562 10.9375V8.59375C22.6562 8.49015 22.6151 8.39079 22.5418 8.31754C22.4686 8.24428 22.3692 8.20312 22.2656 8.20312ZM21.875 10.5469H20.3125V8.98438H21.875V10.5469Z" fill="#6D86E0"/>
<path d="M22.2656 12.1094H19.9219C19.8183 12.1094 19.7189 12.1505 19.6457 12.2238C19.5724 12.297 19.5312 12.3964 19.5312 12.5V18.75C19.5312 18.8536 19.5724 18.953 19.6457 19.0262C19.7189 19.0995 19.8183 19.1406 19.9219 19.1406H22.2656C22.3692 19.1406 22.4686 19.0995 22.5418 19.0262C22.6151 18.953 22.6562 18.8536 22.6562 18.75V12.5C22.6562 12.3964 22.6151 12.297 22.5418 12.2238C22.4686 12.1505 22.3692 12.1094 22.2656 12.1094ZM21.875 18.3594H20.3125V12.8906H21.875V18.3594Z" fill="#6D86E0"/>
<path d="M18.3594 8.20312H16.0156C15.912 8.20312 15.8127 8.24428 15.7394 8.31754C15.6662 8.39079 15.625 8.49015 15.625 8.59375V10.9375C15.625 11.0411 15.6662 11.1405 15.7394 11.2137C15.8127 11.287 15.912 11.3281 16.0156 11.3281H18.3594C18.463 11.3281 18.5623 11.287 18.6356 11.2137C18.7088 11.1405 18.75 11.0411 18.75 10.9375V8.59375C18.75 8.49015 18.7088 8.39079 18.6356 8.31754C18.5623 8.24428 18.463 8.20312 18.3594 8.20312ZM17.9688 10.5469H16.4062V8.98438H17.9688V10.5469Z" fill="#6D86E0"/>
<path d="M18.3594 12.1094H16.0156C15.912 12.1094 15.8127 12.1505 15.7394 12.2238C15.6662 12.297 15.625 12.3964 15.625 12.5V14.8438C15.625 14.9474 15.6662 15.0467 15.7394 15.12C15.8127 15.1932 15.912 15.2344 16.0156 15.2344H18.3594C18.463 15.2344 18.5623 15.1932 18.6356 15.12C18.7088 15.0467 18.75 14.9474 18.75 14.8438V12.5C18.75 12.3964 18.7088 12.297 18.6356 12.2238C18.5623 12.1505 18.463 12.1094 18.3594 12.1094ZM17.9688 14.4531H16.4062V12.8906H17.9688V14.4531Z" fill="#6D86E0"/>
<path d="M18.3594 16.0156H16.0156C15.912 16.0156 15.8127 16.0568 15.7394 16.13C15.6662 16.2033 15.625 16.3026 15.625 16.4062V18.75C15.625 18.8536 15.6662 18.953 15.7394 19.0262C15.8127 19.0995 15.912 19.1406 16.0156 19.1406H18.3594C18.463 19.1406 18.5623 19.0995 18.6356 19.0262C18.7088 18.953 18.75 18.8536 18.75 18.75V16.4062C18.75 16.3026 18.7088 16.2033 18.6356 16.13C18.5623 16.0568 18.463 16.0156 18.3594 16.0156ZM17.9688 18.3594H16.4062V16.7969H17.9688V18.3594Z" fill="#6D86E0"/>
<path d="M12.1094 11.3281H14.4531C14.5567 11.3281 14.6561 11.287 14.7293 11.2137C14.8026 11.1405 14.8438 11.0411 14.8438 10.9375V8.59375C14.8438 8.49015 14.8026 8.39079 14.7293 8.31754C14.6561 8.24428 14.5567 8.20312 14.4531 8.20312H12.1094C12.0058 8.20312 11.9064 8.24428 11.8332 8.31754C11.7599 8.39079 11.7188 8.49015 11.7188 8.59375V10.9375C11.7188 11.0411 11.7599 11.1405 11.8332 11.2137C11.9064 11.287 12.0058 11.3281 12.1094 11.3281ZM12.5 8.98438H14.0625V10.5469H12.5V8.98438Z" fill="#6D86E0"/>
</svg>
