<svg width="34" height="34" viewBox="0 0 34 34" fill="none" xmlns="http://www.w3.org/2000/svg">
<path d="M32.4548 17.1426V12.364C32.4548 10.7436 31.1979 9.42582 29.6099 9.29803L25.1721 1.54674C24.7609 0.829849 24.0968 0.317467 23.3022 0.104704C22.5114 -0.106609 21.6844 0.00437234 20.9765 0.41635L5.76349 9.27311H3.09161C1.38698 9.27311 0.000732422 10.6593 0.000732422 12.364V30.9091C0.000732422 32.6138 1.38691 34 3.09161 34H29.3639C31.0686 34 32.4548 32.6138 32.4548 30.9091V26.1305C33.3523 25.8105 34.0002 24.9608 34.0002 23.9547V19.3184C34.0002 18.3124 33.3523 17.4627 32.4548 17.1426ZM27.8142 9.27311H21.0792L26.1305 6.33225L27.8142 9.27311ZM25.3627 4.99113L18.0077 9.27311H14.957L24.5999 3.65885L25.3627 4.99113ZM21.7545 1.75196C22.1039 1.54746 22.5121 1.49313 22.9023 1.5973C23.2969 1.70292 23.6259 1.95799 23.8305 2.31491L23.832 2.31774L11.8856 9.27311H8.83503L21.7545 1.75196ZM30.9093 30.9091C30.9093 31.7611 30.2159 32.4545 29.3639 32.4545H3.09161C2.2397 32.4545 1.54621 31.7611 1.54621 30.9091V12.364C1.54621 11.5121 2.2397 10.8186 3.09161 10.8186H29.3639C30.2159 10.8186 30.9093 11.5121 30.9093 12.364V17.0003H26.2731C23.7164 17.0003 21.6368 19.0799 21.6368 21.6366C21.6368 24.1932 23.7164 26.2729 26.2731 26.2729H30.9093V30.9091ZM32.4548 23.9547C32.4548 24.381 32.1085 24.7275 31.6821 24.7275H26.2731C24.5684 24.7275 23.1822 23.3413 23.1822 21.6366C23.1822 19.9319 24.5683 18.5457 26.2731 18.5457H31.6821C32.1084 18.5457 32.4548 18.892 32.4548 19.3184V23.9547Z" fill="#6D86E0"/>
<path d="M26.2725 20.0911C25.4205 20.0911 24.7271 20.7846 24.7271 21.6365C24.7271 22.4885 25.4205 23.182 26.2725 23.182C27.1244 23.182 27.8179 22.4885 27.8179 21.6365C27.8179 20.7846 27.1244 20.0911 26.2725 20.0911Z" fill="#6D86E0"/>
</svg>
