<svg width="60" height="83" viewBox="0 0 60 83" fill="none" xmlns="http://www.w3.org/2000/svg">
<path fill-rule="evenodd" clip-rule="evenodd" d="M46.2384 0C54.8611 11.0297 60 24.9147 60 40C60 56.4873 53.8615 71.5409 43.7453 83H15C6.71573 83 0 76.2843 0 68V15C0 6.71573 6.71573 0 15 0H46.2384Z" fill="#6D86E0"/>
<path d="M35.5192 29.9293H33.0551V30.7657C33.0534 32.3707 31.7525 33.6716 30.1475 33.6733H25.8366C24.2316 33.6716 22.9307 32.3707 22.9291 30.7657V29.9293H20.4649C19.4088 29.9307 18.5533 30.7862 18.5519 31.8424V52.0869C18.553 53.143 19.4088 53.9988 20.4649 53.9999H35.5192C36.5753 53.9988 37.4311 53.143 37.4322 52.0869V31.8424C37.4311 30.7862 36.5753 29.9307 35.5192 29.9293ZM32.3516 40.7821L27.1914 45.82C26.9982 46.0084 26.6899 46.0084 26.4968 45.82L23.6325 43.0234C23.436 42.8316 23.4322 42.5167 23.6242 42.3202C23.8159 42.1238 24.1309 42.1199 24.3273 42.3119L26.8442 44.7691L31.6568 40.0703C31.8532 39.8786 32.1682 39.8822 32.3599 40.0786C32.552 40.2754 32.5481 40.5901 32.3516 40.7821Z" fill="white"/>
<path d="M25.8366 32.6788H30.1475C31.2036 32.6777 32.0594 31.8219 32.0605 30.7658V29.9294H30.4386C30.2052 29.9294 30.0032 29.7668 29.9529 29.5387C29.757 28.6471 28.9326 28 27.9922 28C27.0518 28 26.2271 28.6471 26.0314 29.539C25.9815 29.7671 25.7792 29.9297 25.5458 29.9297H23.9236V30.7661C23.925 31.8219 24.7808 32.6777 25.8366 32.6788Z" fill="white"/>
</svg>
