<svg width="167" height="285" viewBox="0 0 167 285" fill="none" xmlns="http://www.w3.org/2000/svg">
<path d="M79.6 284.8C47.6 284.8 21.0667 278.267 1.13249e-06 265.2V251.6C20.8 266 47.0667 273.2 78.8 273.2C103.067 273.2 124.267 266 142.4 251.6C160.533 237.2 169.6 218.133 169.6 194.4C169.6 172 161.6 154 145.6 140.4C129.867 126.533 108.4 119.6 81.2 119.6C72.4 119.6 63.7333 120.533 55.2 122.4V112.8L155.6 11.6H13.6V-1.90735e-05H173.2V9.19998L75.6 108.8C76.4 108.533 78.6667 108.4 82.4 108.4C110.133 108.4 133.733 115.867 153.2 130.8C172.4 145.467 182 166.667 182 194.4C182 220.533 172.133 242.267 152.4 259.6C132.933 276.4 108.667 284.8 79.6 284.8Z" fill="#F5F7FF"/>
</svg>
