<svg width="122" height="285" viewBox="0 0 122 285" fill="none" xmlns="http://www.w3.org/2000/svg">
<path d="M121.4 285H-64.6L-64.2 275L37.4 176.2C59.2667 155.133 74.7333 137.667 83.8 123.8C93.1333 109.667 97.8 94.0667 97.8 77C97.8 57.8 91 42.2 77.4 30.2C64.3333 17.9333 46.7333 11.8 24.6 11.8C7.53334 11.8 -7.53333 15.2667 -20.6 22.2C-33.6667 28.8667 -46.4667 38.8667 -59 52.2V35.8C-36.0667 12.0667 -7.93333 0.199995 25.4 0.199995C50.7333 0.199995 71.2667 7.26666 87 21.4C102.733 35.5333 110.6 53.8 110.6 76.2C110.6 94.8667 105.8 111.8 96.2 127C87.1333 141.4 70.8667 159.933 47.4 182.6L-45.8 273.4H121.8L121.4 285Z" fill="#F5F7FF"/>
</svg>
