<svg width="462" height="146" viewBox="0 0 462 146" fill="none" xmlns="http://www.w3.org/2000/svg">
<path d="M3.45838 5.03033C2.96868 5.03033 2.49003 4.88282 2.08285 4.60646C1.67568 4.3301 1.35827 3.93729 1.17087 3.47772C0.98347 3.01814 0.93447 2.51244 1.03001 2.02456C1.12554 1.53667 1.36136 1.08853 1.70763 0.736786C2.05391 0.385043 2.49504 0.145494 2.97534 0.0484486C3.45564 -0.0485971 3.95349 0.00121635 4.40591 0.191578C4.85834 0.38194 5.24503 0.704309 5.5171 1.11792C5.78916 1.53152 5.93437 2.01779 5.93437 2.51523C5.93607 2.846 5.87325 3.17383 5.74942 3.47976C5.62559 3.78568 5.44323 4.06363 5.21297 4.29752C4.98272 4.53142 4.70912 4.71661 4.40795 4.84239C4.10678 4.96818 3.78401 5.03206 3.45838 5.03033Z" fill="#E0E6F8"/>
<path d="M31.1801 5.03069C30.6904 5.03069 30.2116 4.88318 29.8045 4.60682C29.3973 4.33046 29.08 3.93765 28.8926 3.47808C28.7051 3.0185 28.6562 2.5128 28.7517 2.02491C28.8472 1.53703 29.083 1.08889 29.4293 0.737144C29.7756 0.3854 30.2167 0.145852 30.697 0.0488062C31.1773 -0.0482395 31.6752 0.00157398 32.1276 0.191936C32.58 0.382298 32.9667 0.704667 33.2388 1.11827C33.5108 1.53188 33.656 2.01815 33.656 2.51559C33.656 3.18264 33.3952 3.82236 32.9309 4.29403C32.4666 4.76571 31.8367 5.03069 31.1801 5.03069Z" fill="#E0E6F8"/>
<path d="M58.9144 5.03081C58.4241 5.03339 57.9442 4.88807 57.5353 4.61328C57.1264 4.3385 56.8071 3.9466 56.6177 3.48726C56.4283 3.02791 56.3775 2.52181 56.4716 2.03307C56.5657 1.54433 56.8005 1.09497 57.1462 0.74192C57.492 0.388871 57.9331 0.14804 58.4138 0.0499332C58.8944 -0.0481734 59.3929 0.000862826 59.8461 0.190836C60.2992 0.380809 60.6867 0.70316 60.9594 1.11704C61.232 1.53093 61.3775 2.01772 61.3775 2.51571C61.3792 2.84538 61.3167 3.17214 61.1937 3.47721C61.0707 3.78228 60.8895 4.05965 60.6606 4.29337C60.4317 4.52709 60.1596 4.71256 59.8599 4.83911C59.5602 4.96567 59.2389 5.03082 58.9144 5.03081Z" fill="#E0E6F8"/>
<path d="M86.623 5.03069C86.1333 5.03069 85.6546 4.88318 85.2474 4.60682C84.8402 4.33046 84.5229 3.93765 84.3355 3.47808C84.1481 3.0185 84.099 2.5128 84.1945 2.02491C84.2901 1.53703 84.5259 1.08889 84.8722 0.737144C85.2184 0.3854 85.6596 0.145852 86.1399 0.0488062C86.6202 -0.0482395 87.1181 0.00157398 87.5705 0.191936C88.0229 0.382298 88.4096 0.704667 88.6817 1.11827C88.9538 1.53188 89.099 2.01815 89.099 2.51559C89.099 3.18264 88.8381 3.82236 88.3737 4.29403C87.9094 4.76571 87.2797 5.03069 86.623 5.03069Z" fill="#E0E6F8"/>
<path d="M114.357 5.03081C113.867 5.03339 113.387 4.88807 112.978 4.61328C112.569 4.3385 112.25 3.9466 112.061 3.48726C111.871 3.02791 111.82 2.52181 111.914 2.03307C112.009 1.54433 112.243 1.09497 112.589 0.74192C112.935 0.388871 113.376 0.14804 113.857 0.0499332C114.337 -0.0481734 114.836 0.000862826 115.289 0.190836C115.742 0.380809 116.13 0.70316 116.402 1.11704C116.675 1.53093 116.82 2.01772 116.82 2.51571C116.822 2.84538 116.76 3.17214 116.637 3.47721C116.514 3.78228 116.332 4.05965 116.104 4.29337C115.875 4.52709 115.603 4.71256 115.303 4.83911C115.003 4.96567 114.682 5.03082 114.357 5.03081Z" fill="#E0E6F8"/>
<path d="M142.066 5.03069C141.576 5.03069 141.098 4.88318 140.691 4.60682C140.283 4.33046 139.966 3.93765 139.779 3.47808C139.591 3.0185 139.542 2.5128 139.638 2.02491C139.733 1.53703 139.969 1.08889 140.315 0.737144C140.662 0.3854 141.103 0.145852 141.583 0.0488062C142.063 -0.0482395 142.561 0.00157398 143.014 0.191936C143.466 0.382298 143.853 0.704667 144.125 1.11827C144.397 1.53188 144.542 2.01815 144.542 2.51559C144.542 3.18264 144.281 3.82236 143.817 4.29403C143.353 4.76571 142.723 5.03069 142.066 5.03069Z" fill="#E0E6F8"/>
<path d="M3.45912 33.1662C2.96941 33.1662 2.49076 33.0187 2.08359 32.7424C1.67641 32.466 1.35901 32.0732 1.1716 31.6136C0.984203 31.1541 0.935203 30.6483 1.03074 30.1605C1.12628 29.6726 1.36209 29.2244 1.70836 28.8727C2.05464 28.521 2.49578 28.2814 2.97607 28.1844C3.45637 28.0873 3.95422 28.1371 4.40665 28.3275C4.85908 28.5179 5.24576 28.8402 5.51783 29.2538C5.7899 29.6674 5.9351 30.1537 5.9351 30.6511C5.9351 31.3182 5.67429 31.9579 5.20995 32.4296C4.74561 32.9013 4.11579 33.1662 3.45912 33.1662Z" fill="#E0E6F8"/>
<path d="M31.1806 33.1662C30.6908 33.1662 30.2121 33.0187 29.8049 32.7424C29.3978 32.466 29.0804 32.0732 28.893 31.6136C28.7056 31.1541 28.6566 30.6483 28.7522 30.1605C28.8477 29.6726 29.0835 29.2244 29.4298 28.8727C29.7761 28.521 30.2172 28.2814 30.6975 28.1844C31.1778 28.0873 31.6757 28.1371 32.1281 28.3275C32.5805 28.5179 32.9672 28.8402 33.2393 29.2538C33.5113 29.6674 33.6565 30.1537 33.6565 30.6511C33.6532 31.3171 33.3912 31.9549 32.9276 32.4258C32.464 32.8967 31.8362 33.1628 31.1806 33.1662Z" fill="#E0E6F8"/>
<path d="M58.9146 33.1662C58.4244 33.1688 57.9444 33.0235 57.5355 32.7487C57.1267 32.4739 56.8073 32.082 56.6179 31.6227C56.4286 31.1633 56.3777 30.6572 56.4718 30.1685C56.5659 29.6797 56.8007 29.2304 57.1465 28.8773C57.4922 28.5243 57.9334 28.2834 58.414 28.1853C58.8947 28.0872 59.3931 28.1363 59.8463 28.3262C60.2995 28.5162 60.687 28.8386 60.9596 29.2525C61.2322 29.6663 61.3777 30.1531 61.3777 30.6511C61.3778 31.3159 61.1187 31.9537 60.6571 32.425C60.1956 32.8963 59.569 33.1628 58.9146 33.1662Z" fill="#E0E6F8"/>
<path d="M86.6232 33.1662C86.1335 33.1662 85.6548 33.0187 85.2476 32.7424C84.8405 32.466 84.5231 32.0732 84.3357 31.6136C84.1483 31.1541 84.0992 30.6483 84.1948 30.1605C84.2903 29.6726 84.5261 29.2244 84.8724 28.8727C85.2187 28.521 85.6599 28.2814 86.1402 28.1844C86.6205 28.0873 87.1183 28.1371 87.5708 28.3275C88.0232 28.5179 88.4099 28.8402 88.682 29.2538C88.954 29.6674 89.0992 30.1537 89.0992 30.6511C89.0959 31.3171 88.8339 31.9549 88.3703 32.4258C87.9067 32.8967 87.2789 33.1628 86.6232 33.1662Z" fill="#E0E6F8"/>
<path d="M114.358 33.1662C113.868 33.1688 113.388 33.0235 112.979 32.7487C112.57 32.4739 112.25 32.082 112.061 31.6227C111.872 31.1633 111.821 30.6572 111.915 30.1685C112.009 29.6797 112.244 29.2304 112.59 28.8773C112.935 28.5243 113.376 28.2834 113.857 28.1853C114.338 28.0872 114.836 28.1363 115.289 28.3262C115.743 28.5162 116.13 28.8386 116.403 29.2525C116.675 29.6663 116.821 30.1531 116.821 30.6511C116.821 31.3159 116.562 31.9537 116.1 32.425C115.639 32.8963 115.012 33.1628 114.358 33.1662Z" fill="#E0E6F8"/>
<path d="M142.066 33.1662C141.577 33.1662 141.098 33.0187 140.691 32.7424C140.284 32.466 139.966 32.0732 139.779 31.6136C139.591 31.1541 139.542 30.6483 139.638 30.1605C139.733 29.6726 139.969 29.2244 140.316 28.8727C140.662 28.521 141.103 28.2814 141.583 28.1844C142.064 28.0873 142.561 28.1371 143.014 28.3275C143.466 28.5179 143.853 28.8402 144.125 29.2538C144.397 29.6674 144.542 30.1537 144.542 30.6511C144.539 31.3171 144.277 31.9549 143.813 32.4258C143.35 32.8967 142.722 33.1628 142.066 33.1662Z" fill="#E0E6F8"/>
<path d="M3.45912 61.3017C2.96941 61.3017 2.49076 61.1542 2.08359 60.8779C1.67641 60.6015 1.35901 60.2087 1.1716 59.7491C0.984203 59.2895 0.935203 58.7838 1.03074 58.296C1.12628 57.8081 1.36209 57.3599 1.70836 57.0082C2.05464 56.6564 2.49578 56.4169 2.97607 56.3198C3.45637 56.2228 3.95422 56.2726 4.40665 56.463C4.85908 56.6533 5.24576 56.9757 5.51783 57.3893C5.7899 57.8029 5.9351 58.2892 5.9351 58.7866C5.9351 59.4537 5.67429 60.0934 5.20995 60.5651C4.74561 61.0367 4.11579 61.3017 3.45912 61.3017Z" fill="#E0E6F8"/>
<path d="M31.1789 61.3017C30.6931 61.3014 30.2181 61.1559 29.8131 60.8834C29.4081 60.6108 29.091 60.2233 28.9013 59.769C28.7115 59.3147 28.6575 58.8137 28.746 58.3285C28.8345 57.8433 29.0615 57.3952 29.3989 57.0401C29.7362 56.685 30.169 56.4386 30.6432 56.3315C31.1174 56.2244 31.6122 56.2613 32.0659 56.4378C32.5195 56.6142 32.9122 56.9224 33.1947 57.3238C33.4773 57.7252 33.6373 58.2022 33.6549 58.6954C33.6652 59.0328 33.6089 59.3689 33.4892 59.6839C33.3696 59.9988 33.189 60.2862 32.9583 60.5292C32.7275 60.7721 32.4511 60.9656 32.1455 61.0983C31.8399 61.231 31.5113 61.3001 31.1789 61.3017Z" fill="#E0E6F8"/>
<path d="M58.9144 61.3017C58.4241 61.3043 57.9442 61.159 57.5353 60.8842C57.1264 60.6094 56.8071 60.2175 56.6177 59.7581C56.4283 59.2988 56.3775 58.7927 56.4716 58.304C56.5657 57.8152 56.8005 57.3659 57.1462 57.0128C57.492 56.6598 57.9331 56.4189 58.4138 56.3208C58.8944 56.2227 59.3929 56.2718 59.8461 56.4617C60.2992 56.6517 60.6867 56.974 60.9594 57.3879C61.232 57.8018 61.3775 58.2886 61.3775 58.7866C61.3775 59.4514 61.1185 60.0891 60.6569 60.5604C60.1953 61.0317 59.5688 61.2982 58.9144 61.3017Z" fill="#E0E6F8"/>
<path d="M86.623 61.3017C86.1333 61.3017 85.6546 61.1542 85.2474 60.8779C84.8402 60.6015 84.5229 60.2087 84.3355 59.7491C84.1481 59.2895 84.099 58.7838 84.1945 58.296C84.2901 57.8081 84.5259 57.3599 84.8722 57.0082C85.2184 56.6564 85.6596 56.4169 86.1399 56.3198C86.6202 56.2228 87.1181 56.2726 87.5705 56.463C88.0229 56.6533 88.4096 56.9757 88.6817 57.3893C88.9538 57.8029 89.099 58.2892 89.099 58.7866C89.0956 59.4526 88.8337 60.0903 88.3701 60.5613C87.9064 61.0322 87.2786 61.2983 86.623 61.3017Z" fill="#E0E6F8"/>
<path d="M114.356 61.3017C113.869 61.3039 113.393 61.1606 112.986 60.8896C112.58 60.6187 112.261 60.232 112.069 59.778C111.877 59.3239 111.821 58.8226 111.908 58.3366C111.995 57.8505 112.221 57.4012 112.558 57.0448C112.895 56.6884 113.328 56.4407 113.802 56.3325C114.277 56.2244 114.772 56.2606 115.227 56.4366C115.681 56.6127 116.074 56.9208 116.358 57.3225C116.641 57.7241 116.801 58.2017 116.819 58.6954C116.831 59.0322 116.776 59.368 116.658 59.6829C116.54 59.9977 116.36 60.2853 116.131 60.5284C115.901 60.7715 115.625 60.9652 115.32 61.0981C115.015 61.2309 114.687 61.3002 114.356 61.3017Z" fill="#E0E6F8"/>
<path d="M142.066 61.3017C141.577 61.3017 141.098 61.1542 140.691 60.8779C140.284 60.6015 139.966 60.2087 139.779 59.7491C139.591 59.2895 139.542 58.7838 139.638 58.296C139.733 57.8081 139.969 57.3599 140.316 57.0082C140.662 56.6564 141.103 56.4169 141.583 56.3198C142.064 56.2228 142.561 56.2726 143.014 56.463C143.466 56.6533 143.853 56.9757 144.125 57.3893C144.397 57.8029 144.542 58.2892 144.542 58.7866C144.539 59.4526 144.277 60.0903 143.813 60.5613C143.35 61.0322 142.722 61.2983 142.066 61.3017Z" fill="#E0E6F8"/>
<path d="M3.45912 89.4373C2.96941 89.4373 2.49076 89.2898 2.08359 89.0134C1.67641 88.737 1.35901 88.3442 1.1716 87.8847C0.984203 87.4251 0.935203 86.9194 1.03074 86.4315C1.12628 85.9436 1.36209 85.4955 1.70836 85.1437C2.05464 84.792 2.49578 84.5525 2.97607 84.4554C3.45637 84.3584 3.95422 84.4082 4.40665 84.5985C4.85908 84.7889 5.24576 85.1113 5.51783 85.5249C5.78989 85.9385 5.9351 86.4247 5.9351 86.9222C5.9368 87.2529 5.87398 87.5808 5.75015 87.8867C5.62632 88.1926 5.44396 88.4706 5.2137 88.7045C4.98345 88.9384 4.70985 89.1236 4.40868 89.2493C4.10751 89.3751 3.78474 89.439 3.45912 89.4373Z" fill="#E0E6F8"/>
<path d="M31.1806 89.4373C30.6908 89.4373 30.2121 89.2898 29.8049 89.0134C29.3978 88.7371 29.0804 88.3442 28.893 87.8847C28.7056 87.4251 28.6566 86.9194 28.7522 86.4315C28.8477 85.9436 29.0835 85.4955 29.4298 85.1437C29.7761 84.792 30.2172 84.5525 30.6975 84.4554C31.1778 84.3584 31.6757 84.4082 32.1281 84.5985C32.5805 84.7889 32.9672 85.1113 33.2393 85.5249C33.5113 85.9385 33.6565 86.4247 33.6565 86.9222C33.6565 87.5892 33.3957 88.229 32.9314 88.7006C32.467 89.1723 31.8372 89.4373 31.1806 89.4373Z" fill="#E0E6F8"/>
<path d="M58.9151 89.4372C58.4248 89.4398 57.9449 89.2945 57.536 89.0197C57.1272 88.7449 56.8078 88.353 56.6184 87.8937C56.429 87.4344 56.3782 86.9282 56.4723 86.4395C56.5664 85.9508 56.8012 85.5014 57.147 85.1484C57.4927 84.7953 57.9339 84.5545 58.4145 84.4564C58.8951 84.3583 59.3936 84.4073 59.8468 84.5973C60.3 84.7872 60.6875 85.1096 60.9601 85.5235C61.2327 85.9374 61.3782 86.4242 61.3782 86.9221C61.3799 87.2518 61.3175 87.5786 61.1944 87.8837C61.0714 88.1887 60.8903 88.4661 60.6614 88.6998C60.4325 88.9335 60.1603 89.119 59.8607 89.2456C59.561 89.3721 59.2396 89.4372 58.9151 89.4372Z" fill="#E0E6F8"/>
<path d="M86.6237 89.4373C86.134 89.4373 85.6553 89.2898 85.2481 89.0134C84.8409 88.7371 84.5236 88.3442 84.3362 87.8847C84.1488 87.4251 84.0997 86.9194 84.1953 86.4315C84.2908 85.9436 84.5266 85.4955 84.8729 85.1437C85.2192 84.792 85.6604 84.5525 86.1407 84.4554C86.621 84.3584 87.1188 84.4082 87.5713 84.5985C88.0237 84.7889 88.4104 85.1113 88.6824 85.5249C88.9545 85.9385 89.0997 86.4247 89.0997 86.9222C89.0997 87.5892 88.8388 88.229 88.3745 88.7006C87.9101 89.1723 87.2804 89.4373 86.6237 89.4373Z" fill="#E0E6F8"/>
<path d="M114.358 89.4372C113.868 89.4398 113.388 89.2945 112.979 89.0197C112.57 88.7449 112.251 88.353 112.062 87.8937C111.872 87.4344 111.821 86.9282 111.915 86.4395C112.009 85.9508 112.244 85.5014 112.59 85.1484C112.936 84.7953 113.377 84.5545 113.858 84.4564C114.338 84.3583 114.837 84.4073 115.29 84.5973C115.743 84.7872 116.131 85.1096 116.403 85.5235C116.676 85.9374 116.821 86.4242 116.821 86.9221C116.823 87.2518 116.761 87.5786 116.638 87.8837C116.515 88.1887 116.333 88.4661 116.104 88.6998C115.876 88.9335 115.604 89.119 115.304 89.2456C115.004 89.3721 114.683 89.4372 114.358 89.4372Z" fill="#E0E6F8"/>
<path d="M142.067 89.4373C141.577 89.4373 141.098 89.2898 140.691 89.0134C140.284 88.7371 139.967 88.3442 139.779 87.8847C139.592 87.4251 139.543 86.9194 139.638 86.4315C139.734 85.9436 139.97 85.4955 140.316 85.1437C140.662 84.792 141.103 84.5525 141.584 84.4554C142.064 84.3584 142.562 84.4082 143.014 84.5985C143.467 84.7889 143.853 85.1113 144.125 85.5249C144.398 85.9385 144.543 86.4247 144.543 86.9222C144.543 87.5892 144.282 88.229 143.818 88.7006C143.353 89.1723 142.723 89.4373 142.067 89.4373Z" fill="#E0E6F8"/>
<path d="M3.45912 117.573C2.96941 117.573 2.49076 117.425 2.08359 117.149C1.67641 116.873 1.35901 116.48 1.1716 116.02C0.984203 115.561 0.935203 115.055 1.03074 114.567C1.12628 114.079 1.36209 113.631 1.70836 113.279C2.05464 112.927 2.49578 112.688 2.97607 112.591C3.45637 112.494 3.95422 112.544 4.40665 112.734C4.85908 112.924 5.24576 113.247 5.51783 113.66C5.78989 114.074 5.9351 114.56 5.9351 115.058C5.9368 115.388 5.87398 115.716 5.75015 116.022C5.62632 116.328 5.44396 116.606 5.2137 116.84C4.98345 117.074 4.70985 117.259 4.40868 117.385C4.10751 117.511 3.78474 117.574 3.45912 117.573Z" fill="#E0E6F8"/>
<path d="M31.1806 117.573C30.6908 117.573 30.2121 117.425 29.8049 117.149C29.3978 116.872 29.0804 116.48 28.893 116.02C28.7056 115.561 28.6566 115.055 28.7522 114.567C28.8477 114.079 29.0835 113.631 29.4298 113.279C29.7761 112.927 30.2172 112.688 30.6975 112.591C31.1778 112.494 31.6757 112.544 32.1281 112.734C32.5805 112.924 32.9672 113.247 33.2393 113.66C33.5113 114.074 33.6565 114.56 33.6565 115.058C33.6565 115.725 33.3957 116.364 32.9314 116.836C32.467 117.308 31.8372 117.573 31.1806 117.573Z" fill="#E0E6F8"/>
<path d="M58.9151 117.573C58.4248 117.575 57.9449 117.43 57.536 117.155C57.1272 116.88 56.8078 116.488 56.6184 116.029C56.429 115.57 56.3782 115.064 56.4723 114.575C56.5664 114.086 56.8012 113.637 57.147 113.284C57.4927 112.931 57.9339 112.69 58.4145 112.592C58.8951 112.494 59.3936 112.543 59.8468 112.733C60.3 112.923 60.6875 113.245 60.9601 113.659C61.2327 114.073 61.3782 114.56 61.3782 115.058C61.3799 115.387 61.3175 115.714 61.1944 116.019C61.0714 116.324 60.8903 116.602 60.6614 116.835C60.4325 117.069 60.1603 117.254 59.8607 117.381C59.561 117.508 59.2396 117.573 58.9151 117.573Z" fill="#E0E6F8"/>
<path d="M86.6237 117.573C86.134 117.573 85.6553 117.425 85.2481 117.149C84.8409 116.872 84.5236 116.48 84.3362 116.02C84.1488 115.561 84.0997 115.055 84.1953 114.567C84.2908 114.079 84.5266 113.631 84.8729 113.279C85.2192 112.927 85.6604 112.688 86.1407 112.591C86.621 112.494 87.1188 112.544 87.5713 112.734C88.0237 112.924 88.4104 113.247 88.6824 113.66C88.9545 114.074 89.0997 114.56 89.0997 115.058C89.0997 115.725 88.8388 116.364 88.3745 116.836C87.9101 117.308 87.2804 117.573 86.6237 117.573Z" fill="#E0E6F8"/>
<path d="M114.358 117.573C113.868 117.575 113.388 117.43 112.979 117.155C112.57 116.88 112.251 116.488 112.062 116.029C111.872 115.57 111.821 115.064 111.915 114.575C112.009 114.086 112.244 113.637 112.59 113.284C112.936 112.931 113.377 112.69 113.858 112.592C114.338 112.494 114.837 112.543 115.29 112.733C115.743 112.923 116.131 113.245 116.403 113.659C116.676 114.073 116.821 114.56 116.821 115.058C116.823 115.387 116.761 115.714 116.638 116.019C116.515 116.324 116.333 116.602 116.104 116.835C115.876 117.069 115.604 117.254 115.304 117.381C115.004 117.508 114.683 117.573 114.358 117.573Z" fill="#E0E6F8"/>
<path d="M142.067 117.573C141.577 117.573 141.098 117.425 140.691 117.149C140.284 116.872 139.967 116.48 139.779 116.02C139.592 115.561 139.543 115.055 139.638 114.567C139.734 114.079 139.97 113.631 140.316 113.279C140.662 112.927 141.103 112.688 141.584 112.591C142.064 112.494 142.562 112.544 143.014 112.734C143.467 112.924 143.853 113.247 144.125 113.66C144.398 114.074 144.543 114.56 144.543 115.058C144.543 115.725 144.282 116.364 143.818 116.836C143.353 117.308 142.723 117.573 142.067 117.573Z" fill="#E0E6F8"/>
<path d="M3.45912 145.708C2.96941 145.708 2.49076 145.561 2.08359 145.284C1.67641 145.008 1.35901 144.615 1.1716 144.156C0.984203 143.696 0.935203 143.19 1.03074 142.703C1.12628 142.215 1.36209 141.767 1.70836 141.415C2.05464 141.063 2.49578 140.824 2.97607 140.726C3.45637 140.629 3.95422 140.679 4.40665 140.87C4.85908 141.06 5.24576 141.382 5.51783 141.796C5.7899 142.21 5.9351 142.696 5.9351 143.193C5.9351 143.86 5.67429 144.5 5.20995 144.972C4.74561 145.443 4.11579 145.708 3.45912 145.708Z" fill="#E0E6F8"/>
<path d="M31.1806 145.708C30.6908 145.708 30.2121 145.561 29.8049 145.284C29.3978 145.008 29.0804 144.615 28.893 144.156C28.7056 143.696 28.6566 143.19 28.7522 142.703C28.8477 142.215 29.0835 141.767 29.4298 141.415C29.7761 141.063 30.2172 140.824 30.6975 140.726C31.1778 140.629 31.6757 140.679 32.1281 140.87C32.5805 141.06 32.9672 141.382 33.2393 141.796C33.5113 142.21 33.6565 142.696 33.6565 143.193C33.6532 143.859 33.3912 144.497 32.9276 144.968C32.464 145.439 31.8362 145.705 31.1806 145.708Z" fill="#E0E6F8"/>
<path d="M58.9146 145.708C58.4244 145.711 57.9444 145.566 57.5355 145.291C57.1267 145.016 56.8073 144.624 56.6179 144.165C56.4286 143.705 56.3777 143.199 56.4718 142.711C56.5659 142.222 56.8007 141.772 57.1465 141.419C57.4922 141.066 57.9334 140.826 58.414 140.727C58.8947 140.629 59.3931 140.678 59.8463 140.868C60.2995 141.058 60.687 141.381 60.9596 141.795C61.2322 142.208 61.3777 142.695 61.3777 143.193C61.3778 143.858 61.1187 144.496 60.6571 144.967C60.1956 145.438 59.569 145.705 58.9146 145.708Z" fill="#E0E6F8"/>
<path d="M86.6232 145.708C86.1335 145.708 85.6548 145.561 85.2476 145.284C84.8405 145.008 84.5231 144.615 84.3357 144.156C84.1483 143.696 84.0992 143.19 84.1948 142.703C84.2903 142.215 84.5261 141.767 84.8724 141.415C85.2187 141.063 85.6599 140.824 86.1402 140.726C86.6205 140.629 87.1183 140.679 87.5708 140.87C88.0232 141.06 88.4099 141.382 88.682 141.796C88.954 142.21 89.0992 142.696 89.0992 143.193C89.0959 143.859 88.8339 144.497 88.3703 144.968C87.9067 145.439 87.2789 145.705 86.6232 145.708Z" fill="#E0E6F8"/>
<path d="M114.358 145.708C113.868 145.711 113.388 145.566 112.979 145.291C112.57 145.016 112.25 144.624 112.061 144.165C111.872 143.705 111.821 143.199 111.915 142.711C112.009 142.222 112.244 141.772 112.59 141.419C112.935 141.066 113.376 140.826 113.857 140.727C114.338 140.629 114.836 140.678 115.289 140.868C115.743 141.058 116.13 141.381 116.403 141.795C116.675 142.208 116.821 142.695 116.821 143.193C116.821 143.858 116.562 144.496 116.1 144.967C115.639 145.438 115.012 145.705 114.358 145.708Z" fill="#E0E6F8"/>
<path d="M142.066 145.708C141.577 145.708 141.098 145.561 140.691 145.284C140.284 145.008 139.966 144.615 139.779 144.156C139.591 143.696 139.542 143.19 139.638 142.703C139.733 142.215 139.969 141.767 140.316 141.415C140.662 141.063 141.103 140.824 141.583 140.726C142.064 140.629 142.561 140.679 143.014 140.87C143.466 141.06 143.853 141.382 144.125 141.796C144.397 142.21 144.542 142.696 144.542 143.193C144.539 143.859 144.277 144.497 143.813 144.968C143.35 145.439 142.722 145.705 142.066 145.708Z" fill="#E0E6F8"/>
<path d="M168.476 5.03021C167.986 5.03021 167.508 4.8827 167.1 4.60634C166.693 4.32998 166.376 3.93717 166.188 3.4776C166.001 3.01802 165.952 2.51232 166.048 2.02443C166.143 1.53655 166.379 1.08841 166.725 0.736664C167.071 0.384921 167.513 0.145372 167.993 0.0483265C168.473 -0.0487192 168.971 0.00109428 169.423 0.191456C169.876 0.381818 170.263 0.704187 170.535 1.11779C170.807 1.5314 170.952 2.01767 170.952 2.51511C170.954 2.84588 170.891 3.17371 170.767 3.47963C170.643 3.78556 170.461 4.06351 170.231 4.2974C170 4.53129 169.727 4.71649 169.426 4.84227C169.124 4.96805 168.802 5.03194 168.476 5.03021Z" fill="#E0E6F8"/>
<path d="M196.198 5.03057C195.708 5.03057 195.229 4.88306 194.822 4.6067C194.415 4.33033 194.098 3.93753 193.91 3.47795C193.723 3.01838 193.674 2.51267 193.769 2.02479C193.865 1.53691 194.101 1.08876 194.447 0.737022C194.793 0.385278 195.234 0.14573 195.715 0.0486842C196.195 -0.0483616 196.693 0.00145191 197.145 0.191814C197.598 0.382176 197.984 0.704545 198.256 1.11815C198.528 1.53176 198.674 2.01803 198.674 2.51547C198.674 3.18251 198.413 3.82224 197.948 4.29391C197.484 4.76558 196.854 5.03057 196.198 5.03057Z" fill="#E0E6F8"/>
<path d="M223.932 5.03069C223.442 5.03327 222.962 4.88795 222.553 4.61316C222.144 4.33837 221.825 3.94648 221.635 3.48713C221.446 3.02779 221.395 2.52169 221.489 2.03295C221.583 1.54421 221.818 1.09485 222.164 0.741798C222.51 0.388749 222.951 0.147918 223.431 0.0498112C223.912 -0.0482955 224.41 0.000740756 224.864 0.190714C225.317 0.380687 225.704 0.703038 225.977 1.11692C226.25 1.53081 226.395 2.0176 226.395 2.51559C226.397 2.84526 226.334 3.17202 226.211 3.47709C226.088 3.78216 225.907 4.05953 225.678 4.29325C225.449 4.52697 225.177 4.71244 224.878 4.83899C224.578 4.96555 224.256 5.0307 223.932 5.03069Z" fill="#E0E6F8"/>
<path d="M251.641 5.03057C251.151 5.03057 250.672 4.88306 250.265 4.6067C249.858 4.33033 249.54 3.93753 249.353 3.47795C249.166 3.01838 249.117 2.51267 249.212 2.02479C249.308 1.53691 249.543 1.08876 249.89 0.737022C250.236 0.385278 250.677 0.14573 251.158 0.0486842C251.638 -0.0483616 252.136 0.00145191 252.588 0.191814C253.041 0.382176 253.427 0.704545 253.699 1.11815C253.971 1.53176 254.117 2.01803 254.117 2.51547C254.117 3.18251 253.856 3.82224 253.391 4.29391C252.927 4.76558 252.297 5.03057 251.641 5.03057Z" fill="#E0E6F8"/>
<path d="M279.375 5.03069C278.885 5.03327 278.405 4.88795 277.996 4.61316C277.587 4.33837 277.268 3.94648 277.078 3.48713C276.889 3.02779 276.838 2.52169 276.932 2.03295C277.026 1.54421 277.261 1.09485 277.607 0.741798C277.952 0.388749 278.394 0.147918 278.874 0.0498112C279.355 -0.0482955 279.853 0.000740756 280.307 0.190714C280.76 0.380687 281.147 0.703038 281.42 1.11692C281.692 1.53081 281.838 2.0176 281.838 2.51559C281.84 2.84526 281.777 3.17202 281.654 3.47709C281.531 3.78216 281.35 4.05953 281.121 4.29325C280.892 4.52697 280.62 4.71244 280.32 4.83899C280.021 4.96555 279.699 5.0307 279.375 5.03069Z" fill="#E0E6F8"/>
<path d="M307.084 5.03057C306.594 5.03057 306.115 4.88306 305.708 4.6067C305.301 4.33033 304.984 3.93753 304.796 3.47795C304.609 3.01838 304.56 2.51267 304.655 2.02479C304.751 1.53691 304.987 1.08876 305.333 0.737022C305.679 0.385278 306.12 0.14573 306.601 0.0486842C307.081 -0.0483616 307.579 0.00145191 308.031 0.191814C308.484 0.382176 308.87 0.704545 309.142 1.11815C309.414 1.53176 309.56 2.01803 309.56 2.51547C309.56 3.18251 309.299 3.82224 308.834 4.29391C308.37 4.76558 307.74 5.03057 307.084 5.03057Z" fill="#E0E6F8"/>
<path d="M168.477 33.1661C167.987 33.1661 167.508 33.0186 167.101 32.7422C166.694 32.4659 166.377 32.0731 166.189 31.6135C166.002 31.1539 165.953 30.6482 166.048 30.1603C166.144 29.6725 166.38 29.2243 166.726 28.8726C167.072 28.5208 167.513 28.2813 167.994 28.1842C168.474 28.0872 168.972 28.137 169.424 28.3274C169.877 28.5177 170.263 28.8401 170.535 29.2537C170.807 29.6673 170.953 30.1536 170.953 30.651C170.953 31.3181 170.692 31.9578 170.228 32.4295C169.763 32.9011 169.133 33.1661 168.477 33.1661Z" fill="#E0E6F8"/>
<path d="M196.198 33.1661C195.708 33.1661 195.23 33.0186 194.823 32.7422C194.415 32.4659 194.098 32.0731 193.911 31.6135C193.723 31.1539 193.674 30.6482 193.77 30.1603C193.865 29.6725 194.101 29.2243 194.447 28.8726C194.794 28.5208 195.235 28.2813 195.715 28.1842C196.195 28.0872 196.693 28.137 197.146 28.3274C197.598 28.5177 197.985 28.8401 198.257 29.2537C198.529 29.6673 198.674 30.1536 198.674 30.651C198.671 31.317 198.409 31.9547 197.945 32.4257C197.482 32.8966 196.854 33.1627 196.198 33.1661Z" fill="#E0E6F8"/>
<path d="M223.932 33.1661C223.442 33.1687 222.962 33.0234 222.553 32.7486C222.144 32.4738 221.825 32.0819 221.636 31.6225C221.446 31.1632 221.395 30.6571 221.489 30.1684C221.583 29.6796 221.818 29.2303 222.164 28.8772C222.51 28.5242 222.951 28.2833 223.432 28.1852C223.912 28.0871 224.411 28.1361 224.864 28.3261C225.317 28.5161 225.705 28.8385 225.977 29.2523C226.25 29.6662 226.395 30.153 226.395 30.651C226.395 31.3158 226.136 31.9535 225.675 32.4248C225.213 32.8961 224.587 33.1626 223.932 33.1661Z" fill="#E0E6F8"/>
<path d="M251.641 33.1661C251.151 33.1661 250.672 33.0186 250.265 32.7422C249.858 32.4659 249.541 32.0731 249.353 31.6135C249.166 31.1539 249.117 30.6482 249.212 30.1603C249.308 29.6725 249.544 29.2243 249.89 28.8726C250.236 28.5208 250.677 28.2813 251.158 28.1842C251.638 28.0872 252.136 28.137 252.588 28.3274C253.041 28.5177 253.427 28.8401 253.7 29.2537C253.972 29.6673 254.117 30.1536 254.117 30.651C254.113 31.317 253.852 31.9547 253.388 32.4257C252.924 32.8966 252.296 33.1627 251.641 33.1661Z" fill="#E0E6F8"/>
<path d="M279.375 33.1661C278.885 33.1687 278.405 33.0234 277.996 32.7486C277.587 32.4738 277.268 32.0819 277.079 31.6225C276.889 31.1632 276.838 30.6571 276.932 30.1684C277.027 29.6796 277.261 29.2303 277.607 28.8772C277.953 28.5242 278.394 28.2833 278.875 28.1852C279.355 28.0871 279.854 28.1361 280.307 28.3261C280.76 28.5161 281.148 28.8385 281.42 29.2523C281.693 29.6662 281.838 30.153 281.838 30.651C281.839 31.3158 281.579 31.9535 281.118 32.4248C280.656 32.8961 280.03 33.1626 279.375 33.1661Z" fill="#E0E6F8"/>
<path d="M307.084 33.1661C306.594 33.1661 306.116 33.0186 305.708 32.7422C305.301 32.4659 304.984 32.0731 304.796 31.6135C304.609 31.1539 304.56 30.6482 304.655 30.1603C304.751 29.6725 304.987 29.2243 305.333 28.8726C305.679 28.5208 306.121 28.2813 306.601 28.1842C307.081 28.0872 307.579 28.137 308.031 28.3274C308.484 28.5177 308.871 28.8401 309.143 29.2537C309.415 29.6673 309.56 30.1536 309.56 30.651C309.557 31.317 309.295 31.9547 308.831 32.4257C308.367 32.8966 307.739 33.1627 307.084 33.1661Z" fill="#E0E6F8"/>
<path d="M168.477 61.3016C167.987 61.3016 167.508 61.1541 167.101 60.8777C166.694 60.6014 166.377 60.2086 166.189 59.749C166.002 59.2894 165.953 58.7837 166.048 58.2958C166.144 57.808 166.38 57.3598 166.726 57.008C167.072 56.6563 167.513 56.4168 167.994 56.3197C168.474 56.2227 168.972 56.2725 169.424 56.4628C169.877 56.6532 170.263 56.9756 170.535 57.3892C170.807 57.8028 170.953 58.2891 170.953 58.7865C170.953 59.4535 170.692 60.0933 170.228 60.5649C169.763 61.0366 169.133 61.3016 168.477 61.3016Z" fill="#E0E6F8"/>
<path d="M196.197 61.3016C195.711 61.3013 195.236 61.1558 194.831 60.8832C194.426 60.6107 194.109 60.2231 193.919 59.7689C193.729 59.3146 193.675 58.8136 193.764 58.3284C193.852 57.8432 194.079 57.3951 194.416 57.04C194.754 56.6849 195.187 56.4384 195.661 56.3313C196.135 56.2242 196.63 56.2612 197.083 56.4377C197.537 56.6141 197.93 56.9223 198.212 57.3237C198.495 57.7251 198.655 58.2021 198.672 58.6953C198.683 59.0327 198.626 59.3688 198.507 59.6837C198.387 59.9987 198.207 60.2861 197.976 60.529C197.745 60.772 197.469 60.9655 197.163 61.0981C196.857 61.2308 196.529 61.3 196.197 61.3016Z" fill="#E0E6F8"/>
<path d="M223.932 61.3016C223.442 61.3041 222.962 61.1588 222.553 60.884C222.144 60.6093 221.825 60.2174 221.635 59.758C221.446 59.2987 221.395 58.7926 221.489 58.3038C221.583 57.8151 221.818 57.3657 222.164 57.0127C222.51 56.6596 222.951 56.4188 223.431 56.3207C223.912 56.2226 224.41 56.2716 224.864 56.4616C225.317 56.6516 225.704 56.9739 225.977 57.3878C226.25 57.8017 226.395 58.2885 226.395 58.7865C226.395 59.4513 226.136 60.089 225.674 60.5603C225.213 61.0316 224.586 61.2981 223.932 61.3016Z" fill="#E0E6F8"/>
<path d="M251.641 61.3016C251.151 61.3016 250.672 61.1541 250.265 60.8777C249.858 60.6014 249.54 60.2086 249.353 59.749C249.166 59.2894 249.117 58.7837 249.212 58.2958C249.308 57.808 249.543 57.3598 249.89 57.008C250.236 56.6563 250.677 56.4168 251.158 56.3197C251.638 56.2227 252.136 56.2725 252.588 56.4628C253.041 56.6532 253.427 56.9756 253.699 57.3892C253.971 57.8028 254.117 58.2891 254.117 58.7865C254.113 59.4525 253.851 60.0902 253.388 60.5611C252.924 61.0321 252.296 61.2982 251.641 61.3016Z" fill="#E0E6F8"/>
<path d="M279.373 61.3016C278.887 61.3038 278.411 61.1605 278.004 60.8895C277.597 60.6185 277.278 60.2319 277.086 59.7779C276.895 59.3238 276.839 58.8225 276.926 58.3364C277.013 57.8504 277.239 57.4011 277.576 57.0447C277.913 56.6883 278.345 56.4406 278.82 56.3324C279.294 56.2243 279.79 56.2604 280.244 56.4365C280.699 56.6125 281.092 56.9206 281.375 57.3223C281.658 57.724 281.819 58.2015 281.836 58.6952C281.848 59.032 281.794 59.3678 281.675 59.6827C281.557 59.9976 281.378 60.2852 281.148 60.5283C280.918 60.7714 280.643 60.9651 280.338 61.098C280.033 61.2308 279.705 61.3 279.373 61.3016Z" fill="#E0E6F8"/>
<path d="M307.084 61.3016C306.594 61.3016 306.116 61.1541 305.708 60.8777C305.301 60.6014 304.984 60.2086 304.796 59.749C304.609 59.2894 304.56 58.7837 304.655 58.2958C304.751 57.808 304.987 57.3598 305.333 57.008C305.679 56.6563 306.121 56.4168 306.601 56.3197C307.081 56.2227 307.579 56.2725 308.031 56.4628C308.484 56.6532 308.871 56.9756 309.143 57.3892C309.415 57.8028 309.56 58.2891 309.56 58.7865C309.557 59.4525 309.295 60.0902 308.831 60.5611C308.367 61.0321 307.739 61.2982 307.084 61.3016Z" fill="#E0E6F8"/>
<path d="M168.477 89.4371C167.987 89.4371 167.508 89.2896 167.101 89.0133C166.694 88.7369 166.377 88.3441 166.189 87.8845C166.002 87.425 165.953 86.9193 166.048 86.4314C166.144 85.9435 166.38 85.4954 166.726 85.1436C167.072 84.7919 167.513 84.5523 167.994 84.4553C168.474 84.3582 168.972 84.408 169.424 84.5984C169.877 84.7888 170.263 85.1111 170.535 85.5247C170.807 85.9383 170.953 86.4246 170.953 86.9221C170.954 87.2528 170.892 87.5807 170.768 87.8866C170.644 88.1925 170.462 88.4704 170.231 88.7043C170.001 88.9382 169.727 89.1234 169.426 89.2492C169.125 89.375 168.802 89.4389 168.477 89.4371Z" fill="#E0E6F8"/>
<path d="M196.198 89.4372C195.708 89.4372 195.23 89.2897 194.823 89.0133C194.415 88.7369 194.098 88.3441 193.911 87.8845C193.723 87.425 193.674 86.9193 193.77 86.4314C193.865 85.9435 194.101 85.4954 194.447 85.1436C194.794 84.7919 195.235 84.5523 195.715 84.4553C196.195 84.3582 196.693 84.408 197.146 84.5984C197.598 84.7888 197.985 85.1111 198.257 85.5247C198.529 85.9383 198.674 86.4246 198.674 86.9221C198.674 87.5891 198.413 88.2288 197.949 88.7005C197.485 89.1722 196.855 89.4372 196.198 89.4372Z" fill="#E0E6F8"/>
<path d="M223.933 89.4371C223.442 89.4397 222.962 89.2944 222.554 89.0196C222.145 88.7448 221.825 88.3529 221.636 87.8936C221.447 87.4342 221.396 86.9281 221.49 86.4394C221.584 85.9506 221.819 85.5013 222.165 85.1482C222.51 84.7952 222.951 84.5544 223.432 84.4562C223.913 84.3581 224.411 84.4072 224.864 84.5971C225.318 84.7871 225.705 85.1095 225.978 85.5234C226.25 85.9372 226.396 86.424 226.396 86.922C226.397 87.2517 226.335 87.5785 226.212 87.8835C226.089 88.1886 225.908 88.466 225.679 88.6997C225.45 88.9334 225.178 89.1189 224.878 89.2454C224.579 89.372 224.257 89.4371 223.933 89.4371Z" fill="#E0E6F8"/>
<path d="M251.641 89.4372C251.152 89.4372 250.673 89.2897 250.266 89.0133C249.859 88.7369 249.541 88.3441 249.354 87.8845C249.166 87.425 249.117 86.9193 249.213 86.4314C249.308 85.9435 249.544 85.4954 249.89 85.1436C250.237 84.7919 250.678 84.5523 251.158 84.4553C251.639 84.3582 252.136 84.408 252.589 84.5984C253.041 84.7888 253.428 85.1111 253.7 85.5247C253.972 85.9383 254.117 86.4246 254.117 86.9221C254.117 87.5891 253.856 88.2288 253.392 88.7005C252.928 89.1722 252.298 89.4372 251.641 89.4372Z" fill="#E0E6F8"/>
<path d="M279.376 89.4371C278.886 89.4397 278.406 89.2944 277.997 89.0196C277.588 88.7448 277.269 88.3529 277.079 87.8936C276.89 87.4342 276.839 86.9281 276.933 86.4394C277.027 85.9506 277.262 85.5013 277.608 85.1482C277.953 84.7952 278.395 84.5544 278.875 84.4562C279.356 84.3581 279.854 84.4072 280.307 84.5971C280.761 84.7871 281.148 85.1095 281.421 85.5234C281.693 85.9372 281.839 86.424 281.839 86.922C281.841 87.2517 281.778 87.5785 281.655 87.8835C281.532 88.1886 281.351 88.466 281.122 88.6997C280.893 88.9334 280.621 89.1189 280.321 89.2454C280.022 89.372 279.7 89.4371 279.376 89.4371Z" fill="#E0E6F8"/>
<path d="M307.084 89.4372C306.595 89.4372 306.116 89.2897 305.709 89.0133C305.302 88.7369 304.984 88.3441 304.797 87.8845C304.609 87.425 304.56 86.9193 304.656 86.4314C304.752 85.9435 304.987 85.4954 305.334 85.1436C305.68 84.7919 306.121 84.5523 306.601 84.4553C307.082 84.3582 307.579 84.408 308.032 84.5984C308.484 84.7888 308.871 85.1111 309.143 85.5247C309.415 85.9383 309.56 86.4246 309.56 86.9221C309.56 87.5891 309.3 88.2288 308.835 88.7005C308.371 89.1722 307.741 89.4372 307.084 89.4372Z" fill="#E0E6F8"/>
<path d="M168.477 117.573C167.987 117.573 167.508 117.425 167.101 117.149C166.694 116.872 166.377 116.48 166.189 116.02C166.002 115.56 165.953 115.055 166.048 114.567C166.144 114.079 166.38 113.631 166.726 113.279C167.072 112.927 167.513 112.688 167.994 112.591C168.474 112.494 168.972 112.543 169.424 112.734C169.877 112.924 170.263 113.247 170.535 113.66C170.807 114.074 170.953 114.56 170.953 115.058C170.954 115.388 170.892 115.716 170.768 116.022C170.644 116.328 170.462 116.606 170.231 116.84C170.001 117.074 169.727 117.259 169.426 117.385C169.125 117.51 168.802 117.574 168.477 117.573Z" fill="#E0E6F8"/>
<path d="M196.198 117.573C195.708 117.573 195.23 117.425 194.823 117.149C194.415 116.872 194.098 116.48 193.911 116.02C193.723 115.56 193.674 115.055 193.77 114.567C193.865 114.079 194.101 113.631 194.447 113.279C194.794 112.927 195.235 112.688 195.715 112.591C196.195 112.494 196.693 112.543 197.146 112.734C197.598 112.924 197.985 113.247 198.257 113.66C198.529 114.074 198.674 114.56 198.674 115.058C198.674 115.725 198.413 116.364 197.949 116.836C197.485 117.308 196.855 117.573 196.198 117.573Z" fill="#E0E6F8"/>
<path d="M223.933 117.573C223.442 117.575 222.962 117.43 222.554 117.155C222.145 116.88 221.825 116.488 221.636 116.029C221.447 115.57 221.396 115.064 221.49 114.575C221.584 114.086 221.819 113.637 222.165 113.284C222.51 112.931 222.951 112.69 223.432 112.592C223.913 112.494 224.411 112.543 224.864 112.733C225.318 112.923 225.705 113.245 225.978 113.659C226.25 114.073 226.396 114.559 226.396 115.057C226.397 115.387 226.335 115.714 226.212 116.019C226.089 116.324 225.908 116.601 225.679 116.835C225.45 117.069 225.178 117.254 224.878 117.381C224.579 117.507 224.257 117.573 223.933 117.573Z" fill="#E0E6F8"/>
<path d="M251.641 117.573C251.152 117.573 250.673 117.425 250.266 117.149C249.859 116.872 249.541 116.48 249.354 116.02C249.166 115.56 249.117 115.055 249.213 114.567C249.308 114.079 249.544 113.631 249.89 113.279C250.237 112.927 250.678 112.688 251.158 112.591C251.639 112.494 252.136 112.543 252.589 112.734C253.041 112.924 253.428 113.247 253.7 113.66C253.972 114.074 254.117 114.56 254.117 115.058C254.117 115.725 253.856 116.364 253.392 116.836C252.928 117.308 252.298 117.573 251.641 117.573Z" fill="#E0E6F8"/>
<path d="M279.376 117.573C278.886 117.575 278.406 117.43 277.997 117.155C277.588 116.88 277.269 116.488 277.079 116.029C276.89 115.57 276.839 115.064 276.933 114.575C277.027 114.086 277.262 113.637 277.608 113.284C277.953 112.931 278.395 112.69 278.875 112.592C279.356 112.494 279.854 112.543 280.307 112.733C280.761 112.923 281.148 113.245 281.421 113.659C281.693 114.073 281.839 114.559 281.839 115.057C281.841 115.387 281.778 115.714 281.655 116.019C281.532 116.324 281.351 116.601 281.122 116.835C280.893 117.069 280.621 117.254 280.321 117.381C280.022 117.507 279.7 117.573 279.376 117.573Z" fill="#E0E6F8"/>
<path d="M307.084 117.573C306.595 117.573 306.116 117.425 305.709 117.149C305.302 116.872 304.984 116.48 304.797 116.02C304.609 115.56 304.56 115.055 304.656 114.567C304.752 114.079 304.987 113.631 305.334 113.279C305.68 112.927 306.121 112.688 306.601 112.591C307.082 112.494 307.579 112.543 308.032 112.734C308.484 112.924 308.871 113.247 309.143 113.66C309.415 114.074 309.56 114.56 309.56 115.058C309.56 115.725 309.3 116.364 308.835 116.836C308.371 117.308 307.741 117.573 307.084 117.573Z" fill="#E0E6F8"/>
<path d="M168.477 145.708C167.987 145.708 167.508 145.561 167.101 145.284C166.694 145.008 166.377 144.615 166.189 144.156C166.002 143.696 165.953 143.19 166.048 142.702C166.144 142.215 166.38 141.766 166.726 141.415C167.072 141.063 167.513 140.823 167.994 140.726C168.474 140.629 168.972 140.679 169.424 140.869C169.877 141.06 170.263 141.382 170.535 141.796C170.807 142.209 170.953 142.696 170.953 143.193C170.953 143.86 170.692 144.5 170.228 144.972C169.763 145.443 169.133 145.708 168.477 145.708Z" fill="#E0E6F8"/>
<path d="M196.198 145.708C195.708 145.708 195.23 145.561 194.823 145.284C194.415 145.008 194.098 144.615 193.911 144.156C193.723 143.696 193.674 143.19 193.77 142.702C193.865 142.215 194.101 141.766 194.447 141.415C194.794 141.063 195.235 140.823 195.715 140.726C196.195 140.629 196.693 140.679 197.146 140.869C197.598 141.06 197.985 141.382 198.257 141.796C198.529 142.209 198.674 142.696 198.674 143.193C198.671 143.859 198.409 144.497 197.945 144.968C197.482 145.439 196.854 145.705 196.198 145.708Z" fill="#E0E6F8"/>
<path d="M223.932 145.708C223.442 145.711 222.962 145.565 222.553 145.291C222.144 145.016 221.825 144.624 221.636 144.165C221.446 143.705 221.395 143.199 221.489 142.71C221.583 142.222 221.818 141.772 222.164 141.419C222.51 141.066 222.951 140.825 223.432 140.727C223.912 140.629 224.411 140.678 224.864 140.868C225.317 141.058 225.705 141.381 225.977 141.794C226.25 142.208 226.395 142.695 226.395 143.193C226.395 143.858 226.136 144.496 225.675 144.967C225.213 145.438 224.587 145.705 223.932 145.708Z" fill="#E0E6F8"/>
<path d="M251.641 145.708C251.151 145.708 250.672 145.561 250.265 145.284C249.858 145.008 249.541 144.615 249.353 144.156C249.166 143.696 249.117 143.19 249.212 142.702C249.308 142.215 249.544 141.766 249.89 141.415C250.236 141.063 250.677 140.823 251.158 140.726C251.638 140.629 252.136 140.679 252.588 140.869C253.041 141.06 253.427 141.382 253.7 141.796C253.972 142.209 254.117 142.696 254.117 143.193C254.113 143.859 253.852 144.497 253.388 144.968C252.924 145.439 252.296 145.705 251.641 145.708Z" fill="#E0E6F8"/>
<path d="M279.375 145.708C278.885 145.711 278.405 145.565 277.996 145.291C277.587 145.016 277.268 144.624 277.079 144.165C276.889 143.705 276.838 143.199 276.932 142.71C277.027 142.222 277.261 141.772 277.607 141.419C277.953 141.066 278.394 140.825 278.875 140.727C279.355 140.629 279.854 140.678 280.307 140.868C280.76 141.058 281.148 141.381 281.42 141.794C281.693 142.208 281.838 142.695 281.838 143.193C281.839 143.858 281.579 144.496 281.118 144.967C280.656 145.438 280.03 145.705 279.375 145.708Z" fill="#E0E6F8"/>
<path d="M307.084 145.708C306.594 145.708 306.116 145.561 305.708 145.284C305.301 145.008 304.984 144.615 304.796 144.156C304.609 143.696 304.56 143.19 304.655 142.702C304.751 142.215 304.987 141.766 305.333 141.415C305.679 141.063 306.121 140.823 306.601 140.726C307.081 140.629 307.579 140.679 308.031 140.869C308.484 141.06 308.871 141.382 309.143 141.796C309.415 142.209 309.56 142.696 309.56 143.193C309.557 143.859 309.295 144.497 308.831 144.968C308.367 145.439 307.739 145.705 307.084 145.708Z" fill="#E0E6F8"/>
<path d="M335.476 5.03021C334.986 5.03021 334.508 4.8827 334.1 4.60634C333.693 4.32998 333.376 3.93717 333.188 3.4776C333.001 3.01802 332.952 2.51232 333.048 2.02443C333.143 1.53655 333.379 1.08841 333.725 0.736664C334.071 0.384921 334.513 0.145372 334.993 0.0483265C335.473 -0.0487192 335.971 0.00109428 336.423 0.191456C336.876 0.381818 337.263 0.704187 337.535 1.11779C337.807 1.5314 337.952 2.01767 337.952 2.51511C337.954 2.84588 337.891 3.17371 337.767 3.47963C337.643 3.78556 337.461 4.06351 337.231 4.2974C337 4.53129 336.727 4.71649 336.426 4.84227C336.124 4.96805 335.802 5.03194 335.476 5.03021Z" fill="#E0E6F8"/>
<path d="M363.198 5.03057C362.708 5.03057 362.229 4.88306 361.822 4.6067C361.415 4.33033 361.098 3.93753 360.91 3.47795C360.723 3.01838 360.674 2.51267 360.769 2.02479C360.865 1.53691 361.101 1.08876 361.447 0.737022C361.793 0.385278 362.234 0.14573 362.715 0.0486842C363.195 -0.0483616 363.693 0.00145191 364.145 0.191814C364.598 0.382176 364.984 0.704545 365.256 1.11815C365.528 1.53176 365.674 2.01803 365.674 2.51547C365.674 3.18251 365.413 3.82224 364.948 4.29391C364.484 4.76558 363.854 5.03057 363.198 5.03057Z" fill="#E0E6F8"/>
<path d="M390.932 5.03069C390.442 5.03327 389.962 4.88795 389.553 4.61316C389.144 4.33837 388.825 3.94648 388.635 3.48713C388.446 3.02779 388.395 2.52169 388.489 2.03295C388.583 1.54421 388.818 1.09485 389.164 0.741798C389.51 0.388749 389.951 0.147918 390.431 0.0498112C390.912 -0.0482955 391.41 0.000740756 391.864 0.190714C392.317 0.380687 392.704 0.703038 392.977 1.11692C393.25 1.53081 393.395 2.0176 393.395 2.51559C393.397 2.84526 393.334 3.17202 393.211 3.47709C393.088 3.78216 392.907 4.05953 392.678 4.29325C392.449 4.52697 392.177 4.71244 391.878 4.83899C391.578 4.96555 391.256 5.0307 390.932 5.03069Z" fill="#E0E6F8"/>
<path d="M418.641 5.03057C418.151 5.03057 417.672 4.88306 417.265 4.6067C416.858 4.33033 416.54 3.93753 416.353 3.47795C416.166 3.01838 416.117 2.51267 416.212 2.02479C416.308 1.53691 416.543 1.08876 416.89 0.737022C417.236 0.385278 417.677 0.14573 418.158 0.0486842C418.638 -0.0483616 419.136 0.00145191 419.588 0.191814C420.041 0.382176 420.427 0.704545 420.699 1.11815C420.971 1.53176 421.117 2.01803 421.117 2.51547C421.117 3.18251 420.856 3.82224 420.391 4.29391C419.927 4.76558 419.297 5.03057 418.641 5.03057Z" fill="#E0E6F8"/>
<path d="M446.375 5.03069C445.885 5.03327 445.405 4.88795 444.996 4.61316C444.587 4.33837 444.268 3.94648 444.078 3.48713C443.889 3.02779 443.838 2.52169 443.932 2.03295C444.026 1.54421 444.261 1.09485 444.607 0.741798C444.952 0.388749 445.394 0.147918 445.874 0.0498112C446.355 -0.0482955 446.853 0.000740756 447.307 0.190714C447.76 0.380687 448.147 0.703038 448.42 1.11692C448.692 1.53081 448.838 2.0176 448.838 2.51559C448.84 2.84526 448.777 3.17202 448.654 3.47709C448.531 3.78216 448.35 4.05953 448.121 4.29325C447.892 4.52697 447.62 4.71244 447.32 4.83899C447.021 4.96555 446.699 5.0307 446.375 5.03069Z" fill="#E0E6F8"/>
<path d="M335.477 33.1661C334.987 33.1661 334.508 33.0186 334.101 32.7422C333.694 32.4659 333.377 32.0731 333.189 31.6135C333.002 31.1539 332.953 30.6482 333.048 30.1603C333.144 29.6725 333.38 29.2243 333.726 28.8726C334.072 28.5208 334.513 28.2813 334.994 28.1842C335.474 28.0872 335.972 28.137 336.424 28.3274C336.877 28.5177 337.263 28.8401 337.535 29.2537C337.807 29.6673 337.953 30.1536 337.953 30.651C337.953 31.3181 337.692 31.9578 337.228 32.4295C336.763 32.9011 336.133 33.1661 335.477 33.1661Z" fill="#E0E6F8"/>
<path d="M363.198 33.1661C362.708 33.1661 362.23 33.0186 361.823 32.7422C361.415 32.4659 361.098 32.0731 360.911 31.6135C360.723 31.1539 360.674 30.6482 360.77 30.1603C360.865 29.6725 361.101 29.2243 361.447 28.8726C361.794 28.5208 362.235 28.2813 362.715 28.1842C363.195 28.0872 363.693 28.137 364.146 28.3274C364.598 28.5177 364.985 28.8401 365.257 29.2537C365.529 29.6673 365.674 30.1536 365.674 30.651C365.671 31.317 365.409 31.9547 364.945 32.4257C364.482 32.8966 363.854 33.1627 363.198 33.1661Z" fill="#E0E6F8"/>
<path d="M390.932 33.1661C390.442 33.1687 389.962 33.0234 389.553 32.7486C389.144 32.4738 388.825 32.0819 388.636 31.6225C388.446 31.1632 388.395 30.6571 388.489 30.1684C388.583 29.6796 388.818 29.2303 389.164 28.8772C389.51 28.5242 389.951 28.2833 390.432 28.1852C390.912 28.0871 391.411 28.1361 391.864 28.3261C392.317 28.5161 392.705 28.8385 392.977 29.2523C393.25 29.6662 393.395 30.153 393.395 30.651C393.395 31.3158 393.136 31.9535 392.675 32.4248C392.213 32.8961 391.587 33.1626 390.932 33.1661Z" fill="#E0E6F8"/>
<path d="M418.641 33.1661C418.151 33.1661 417.672 33.0186 417.265 32.7422C416.858 32.4659 416.541 32.0731 416.353 31.6135C416.166 31.1539 416.117 30.6482 416.212 30.1603C416.308 29.6725 416.544 29.2243 416.89 28.8726C417.236 28.5208 417.677 28.2813 418.158 28.1842C418.638 28.0872 419.136 28.137 419.588 28.3274C420.041 28.5177 420.427 28.8401 420.7 29.2537C420.972 29.6673 421.117 30.1536 421.117 30.651C421.113 31.317 420.852 31.9547 420.388 32.4257C419.924 32.8966 419.296 33.1627 418.641 33.1661Z" fill="#E0E6F8"/>
<path d="M446.375 33.1661C445.885 33.1687 445.405 33.0234 444.996 32.7486C444.587 32.4738 444.268 32.0819 444.079 31.6225C443.889 31.1632 443.838 30.6571 443.932 30.1684C444.027 29.6796 444.261 29.2303 444.607 28.8772C444.953 28.5242 445.394 28.2833 445.875 28.1852C446.355 28.0871 446.854 28.1361 447.307 28.3261C447.76 28.5161 448.148 28.8385 448.42 29.2523C448.693 29.6662 448.838 30.153 448.838 30.651C448.839 31.3158 448.579 31.9535 448.118 32.4248C447.656 32.8961 447.03 33.1626 446.375 33.1661Z" fill="#E0E6F8"/>
<path d="M335.477 61.3016C334.987 61.3016 334.508 61.1541 334.101 60.8777C333.694 60.6014 333.377 60.2086 333.189 59.749C333.002 59.2894 332.953 58.7837 333.048 58.2958C333.144 57.808 333.38 57.3598 333.726 57.008C334.072 56.6563 334.513 56.4168 334.994 56.3197C335.474 56.2227 335.972 56.2725 336.424 56.4628C336.877 56.6532 337.263 56.9756 337.535 57.3892C337.807 57.8028 337.953 58.2891 337.953 58.7865C337.953 59.4535 337.692 60.0933 337.228 60.5649C336.763 61.0366 336.133 61.3016 335.477 61.3016Z" fill="#E0E6F8"/>
<path d="M363.197 61.3016C362.711 61.3013 362.236 61.1558 361.831 60.8832C361.426 60.6107 361.109 60.2231 360.919 59.7689C360.729 59.3146 360.675 58.8136 360.764 58.3284C360.852 57.8432 361.079 57.3951 361.416 57.04C361.754 56.6849 362.187 56.4384 362.661 56.3313C363.135 56.2242 363.63 56.2612 364.083 56.4377C364.537 56.6141 364.93 56.9223 365.212 57.3237C365.495 57.7251 365.655 58.2021 365.672 58.6953C365.683 59.0327 365.626 59.3688 365.507 59.6837C365.387 59.9987 365.207 60.2861 364.976 60.529C364.745 60.772 364.469 60.9655 364.163 61.0981C363.857 61.2308 363.529 61.3 363.197 61.3016Z" fill="#E0E6F8"/>
<path d="M390.932 61.3016C390.442 61.3041 389.962 61.1588 389.553 60.884C389.144 60.6093 388.825 60.2174 388.635 59.758C388.446 59.2987 388.395 58.7926 388.489 58.3038C388.583 57.8151 388.818 57.3657 389.164 57.0127C389.51 56.6596 389.951 56.4188 390.431 56.3207C390.912 56.2226 391.41 56.2716 391.864 56.4616C392.317 56.6516 392.704 56.9739 392.977 57.3878C393.25 57.8017 393.395 58.2885 393.395 58.7865C393.395 59.4513 393.136 60.089 392.674 60.5603C392.213 61.0316 391.586 61.2981 390.932 61.3016Z" fill="#E0E6F8"/>
<path d="M418.641 61.3016C418.151 61.3016 417.672 61.1541 417.265 60.8777C416.858 60.6014 416.54 60.2086 416.353 59.749C416.166 59.2894 416.117 58.7837 416.212 58.2958C416.308 57.808 416.543 57.3598 416.89 57.008C417.236 56.6563 417.677 56.4168 418.158 56.3197C418.638 56.2227 419.136 56.2725 419.588 56.4628C420.041 56.6532 420.427 56.9756 420.699 57.3892C420.971 57.8028 421.117 58.2891 421.117 58.7865C421.113 59.4525 420.851 60.0902 420.388 60.5611C419.924 61.0321 419.296 61.2982 418.641 61.3016Z" fill="#E0E6F8"/>
<path d="M446.373 61.3016C445.887 61.3038 445.411 61.1605 445.004 60.8895C444.597 60.6185 444.278 60.2319 444.086 59.7779C443.895 59.3238 443.839 58.8225 443.926 58.3364C444.013 57.8504 444.239 57.4011 444.576 57.0447C444.913 56.6883 445.345 56.4406 445.82 56.3324C446.294 56.2243 446.79 56.2604 447.244 56.4365C447.699 56.6125 448.092 56.9206 448.375 57.3223C448.658 57.724 448.819 58.2015 448.836 58.6952C448.848 59.032 448.794 59.3678 448.675 59.6827C448.557 59.9976 448.378 60.2852 448.148 60.5283C447.918 60.7714 447.643 60.9651 447.338 61.098C447.033 61.2308 446.705 61.3 446.373 61.3016Z" fill="#E0E6F8"/>
<path d="M335.477 89.4371C334.987 89.4371 334.508 89.2896 334.101 89.0133C333.694 88.7369 333.377 88.3441 333.189 87.8845C333.002 87.425 332.953 86.9193 333.048 86.4314C333.144 85.9435 333.38 85.4954 333.726 85.1436C334.072 84.7919 334.513 84.5523 334.994 84.4553C335.474 84.3582 335.972 84.408 336.424 84.5984C336.877 84.7888 337.263 85.1111 337.535 85.5247C337.807 85.9383 337.953 86.4246 337.953 86.9221C337.954 87.2528 337.892 87.5807 337.768 87.8866C337.644 88.1925 337.462 88.4704 337.231 88.7043C337.001 88.9382 336.727 89.1234 336.426 89.2492C336.125 89.375 335.802 89.4389 335.477 89.4371Z" fill="#E0E6F8"/>
<path d="M363.198 89.4372C362.708 89.4372 362.23 89.2897 361.823 89.0133C361.415 88.7369 361.098 88.3441 360.911 87.8845C360.723 87.425 360.674 86.9193 360.77 86.4314C360.865 85.9435 361.101 85.4954 361.447 85.1436C361.794 84.7919 362.235 84.5523 362.715 84.4553C363.195 84.3582 363.693 84.408 364.146 84.5984C364.598 84.7888 364.985 85.1111 365.257 85.5247C365.529 85.9383 365.674 86.4246 365.674 86.9221C365.674 87.5891 365.413 88.2288 364.949 88.7005C364.485 89.1722 363.855 89.4372 363.198 89.4372Z" fill="#E0E6F8"/>
<path d="M390.933 89.4371C390.442 89.4397 389.962 89.2944 389.554 89.0196C389.145 88.7448 388.825 88.3529 388.636 87.8936C388.447 87.4342 388.396 86.9281 388.49 86.4394C388.584 85.9506 388.819 85.5013 389.165 85.1482C389.51 84.7952 389.951 84.5544 390.432 84.4562C390.913 84.3581 391.411 84.4072 391.864 84.5971C392.318 84.7871 392.705 85.1095 392.978 85.5234C393.25 85.9372 393.396 86.424 393.396 86.922C393.397 87.2517 393.335 87.5785 393.212 87.8835C393.089 88.1886 392.908 88.466 392.679 88.6997C392.45 88.9334 392.178 89.1189 391.878 89.2454C391.579 89.372 391.257 89.4371 390.933 89.4371Z" fill="#E0E6F8"/>
<path d="M418.641 89.4372C418.152 89.4372 417.673 89.2897 417.266 89.0133C416.859 88.7369 416.541 88.3441 416.354 87.8845C416.166 87.425 416.117 86.9193 416.213 86.4314C416.308 85.9435 416.544 85.4954 416.89 85.1436C417.237 84.7919 417.678 84.5523 418.158 84.4553C418.639 84.3582 419.136 84.408 419.589 84.5984C420.041 84.7888 420.428 85.1111 420.7 85.5247C420.972 85.9383 421.117 86.4246 421.117 86.9221C421.117 87.5891 420.856 88.2288 420.392 88.7005C419.928 89.1722 419.298 89.4372 418.641 89.4372Z" fill="#E0E6F8"/>
<path d="M446.376 89.4371C445.886 89.4397 445.406 89.2944 444.997 89.0196C444.588 88.7448 444.269 88.3529 444.079 87.8936C443.89 87.4342 443.839 86.9281 443.933 86.4394C444.027 85.9506 444.262 85.5013 444.608 85.1482C444.953 84.7952 445.395 84.5544 445.875 84.4562C446.356 84.3581 446.854 84.4072 447.307 84.5971C447.761 84.7871 448.148 85.1095 448.421 85.5234C448.693 85.9372 448.839 86.424 448.839 86.922C448.841 87.2517 448.778 87.5785 448.655 87.8835C448.532 88.1886 448.351 88.466 448.122 88.6997C447.893 88.9334 447.621 89.1189 447.321 89.2454C447.022 89.372 446.7 89.4371 446.376 89.4371Z" fill="#E0E6F8"/>
<path d="M335.477 117.573C334.987 117.573 334.508 117.425 334.101 117.149C333.694 116.872 333.377 116.48 333.189 116.02C333.002 115.56 332.953 115.055 333.048 114.567C333.144 114.079 333.38 113.631 333.726 113.279C334.072 112.927 334.513 112.688 334.994 112.591C335.474 112.494 335.972 112.543 336.424 112.734C336.877 112.924 337.263 113.247 337.535 113.66C337.807 114.074 337.953 114.56 337.953 115.058C337.954 115.388 337.892 115.716 337.768 116.022C337.644 116.328 337.462 116.606 337.231 116.84C337.001 117.074 336.727 117.259 336.426 117.385C336.125 117.51 335.802 117.574 335.477 117.573Z" fill="#E0E6F8"/>
<path d="M363.198 117.573C362.708 117.573 362.23 117.425 361.823 117.149C361.415 116.872 361.098 116.48 360.911 116.02C360.723 115.56 360.674 115.055 360.77 114.567C360.865 114.079 361.101 113.631 361.447 113.279C361.794 112.927 362.235 112.688 362.715 112.591C363.195 112.494 363.693 112.543 364.146 112.734C364.598 112.924 364.985 113.247 365.257 113.66C365.529 114.074 365.674 114.56 365.674 115.058C365.674 115.725 365.413 116.364 364.949 116.836C364.485 117.308 363.855 117.573 363.198 117.573Z" fill="#E0E6F8"/>
<path d="M390.933 117.573C390.442 117.575 389.962 117.43 389.554 117.155C389.145 116.88 388.825 116.488 388.636 116.029C388.447 115.57 388.396 115.064 388.49 114.575C388.584 114.086 388.819 113.637 389.165 113.284C389.51 112.931 389.951 112.69 390.432 112.592C390.913 112.494 391.411 112.543 391.864 112.733C392.318 112.923 392.705 113.245 392.978 113.659C393.25 114.073 393.396 114.559 393.396 115.057C393.397 115.387 393.335 115.714 393.212 116.019C393.089 116.324 392.908 116.601 392.679 116.835C392.45 117.069 392.178 117.254 391.878 117.381C391.579 117.507 391.257 117.573 390.933 117.573Z" fill="#E0E6F8"/>
<path d="M418.641 117.573C418.152 117.573 417.673 117.425 417.266 117.149C416.859 116.872 416.541 116.48 416.354 116.02C416.166 115.56 416.117 115.055 416.213 114.567C416.308 114.079 416.544 113.631 416.89 113.279C417.237 112.927 417.678 112.688 418.158 112.591C418.639 112.494 419.136 112.543 419.589 112.734C420.041 112.924 420.428 113.247 420.7 113.66C420.972 114.074 421.117 114.56 421.117 115.058C421.117 115.725 420.856 116.364 420.392 116.836C419.928 117.308 419.298 117.573 418.641 117.573Z" fill="#E0E6F8"/>
<path d="M446.376 117.573C445.886 117.575 445.406 117.43 444.997 117.155C444.588 116.88 444.269 116.488 444.079 116.029C443.89 115.57 443.839 115.064 443.933 114.575C444.027 114.086 444.262 113.637 444.608 113.284C444.953 112.931 445.395 112.69 445.875 112.592C446.356 112.494 446.854 112.543 447.307 112.733C447.761 112.923 448.148 113.245 448.421 113.659C448.693 114.073 448.839 114.559 448.839 115.057C448.841 115.387 448.778 115.714 448.655 116.019C448.532 116.324 448.351 116.601 448.122 116.835C447.893 117.069 447.621 117.254 447.321 117.381C447.022 117.507 446.7 117.573 446.376 117.573Z" fill="#E0E6F8"/>
<path d="M335.477 145.708C334.987 145.708 334.508 145.561 334.101 145.284C333.694 145.008 333.377 144.615 333.189 144.156C333.002 143.696 332.953 143.19 333.048 142.702C333.144 142.215 333.38 141.766 333.726 141.415C334.072 141.063 334.513 140.823 334.994 140.726C335.474 140.629 335.972 140.679 336.424 140.869C336.877 141.06 337.263 141.382 337.535 141.796C337.807 142.209 337.953 142.696 337.953 143.193C337.953 143.86 337.692 144.5 337.228 144.972C336.763 145.443 336.133 145.708 335.477 145.708Z" fill="#E0E6F8"/>
<path d="M363.198 145.708C362.708 145.708 362.23 145.561 361.823 145.284C361.415 145.008 361.098 144.615 360.911 144.156C360.723 143.696 360.674 143.19 360.77 142.702C360.865 142.215 361.101 141.766 361.447 141.415C361.794 141.063 362.235 140.823 362.715 140.726C363.195 140.629 363.693 140.679 364.146 140.869C364.598 141.06 364.985 141.382 365.257 141.796C365.529 142.209 365.674 142.696 365.674 143.193C365.671 143.859 365.409 144.497 364.945 144.968C364.482 145.439 363.854 145.705 363.198 145.708Z" fill="#E0E6F8"/>
<path d="M390.932 145.708C390.442 145.711 389.962 145.565 389.553 145.291C389.144 145.016 388.825 144.624 388.636 144.165C388.446 143.705 388.395 143.199 388.489 142.71C388.583 142.222 388.818 141.772 389.164 141.419C389.51 141.066 389.951 140.825 390.432 140.727C390.912 140.629 391.411 140.678 391.864 140.868C392.317 141.058 392.705 141.381 392.977 141.794C393.25 142.208 393.395 142.695 393.395 143.193C393.395 143.858 393.136 144.496 392.675 144.967C392.213 145.438 391.587 145.705 390.932 145.708Z" fill="#E0E6F8"/>
<path d="M418.641 145.708C418.151 145.708 417.672 145.561 417.265 145.284C416.858 145.008 416.541 144.615 416.353 144.156C416.166 143.696 416.117 143.19 416.212 142.702C416.308 142.215 416.544 141.766 416.89 141.415C417.236 141.063 417.677 140.823 418.158 140.726C418.638 140.629 419.136 140.679 419.588 140.869C420.041 141.06 420.427 141.382 420.7 141.796C420.972 142.209 421.117 142.696 421.117 143.193C421.113 143.859 420.852 144.497 420.388 144.968C419.924 145.439 419.296 145.705 418.641 145.708Z" fill="#E0E6F8"/>
<path d="M446.375 145.708C445.885 145.711 445.405 145.565 444.996 145.291C444.587 145.016 444.268 144.624 444.079 144.165C443.889 143.705 443.838 143.199 443.932 142.71C444.027 142.222 444.261 141.772 444.607 141.419C444.953 141.066 445.394 140.825 445.875 140.727C446.355 140.629 446.854 140.678 447.307 140.868C447.76 141.058 448.148 141.381 448.42 141.794C448.693 142.208 448.838 142.695 448.838 143.193C448.839 143.858 448.579 144.496 448.118 144.967C447.656 145.438 447.03 145.705 446.375 145.708Z" fill="#E0E6F8"/>
</svg>
