<svg width="179" height="180" viewBox="0 0 179 180" fill="none" xmlns="http://www.w3.org/2000/svg">
<path d="M3.07524 6.20163C2.46701 6.20163 1.87251 6.01977 1.36678 5.67905C0.861052 5.33833 0.466823 4.85405 0.234062 4.28745C0.00130193 3.72085 -0.0595577 3.09738 0.0591026 2.49588C0.177763 1.89438 0.470653 1.34187 0.900738 0.908216C1.33082 0.47456 1.87873 0.179226 2.47528 0.0595806C3.07183 -0.0600648 3.69018 0.00134911 4.25211 0.236042C4.81404 0.470735 5.29432 0.868176 5.63224 1.3781C5.97016 1.88803 6.15051 2.48754 6.15051 3.10082C6.15262 3.50862 6.07459 3.91279 5.92079 4.28996C5.76699 4.66713 5.54049 5.0098 5.25451 5.29816C4.96852 5.58653 4.6287 5.81485 4.25464 5.96992C3.88057 6.125 3.47968 6.20376 3.07524 6.20163Z" fill="#6D86E0" fill-opacity="0.21"/>
<path d="M37.5064 6.20212C36.8982 6.20212 36.3036 6.02026 35.7978 5.67954C35.2921 5.33882 34.898 4.85453 34.6652 4.28794C34.4325 3.72134 34.3716 3.09787 34.4903 2.49637C34.6089 1.89487 34.9018 1.34236 35.3319 0.908704C35.762 0.475048 36.3099 0.179714 36.9064 0.0600689C37.503 -0.0595765 38.1213 0.00183739 38.6833 0.23653C39.2452 0.471223 39.7255 0.868664 40.0634 1.37859C40.4013 1.88852 40.5817 2.48802 40.5817 3.10131C40.5817 3.92369 40.2577 4.7124 39.681 5.29391C39.1043 5.87542 38.322 6.20212 37.5064 6.20212Z" fill="#6D86E0" fill-opacity="0.21"/>
<path d="M71.9536 6.20219C71.3447 6.20537 70.7486 6.02621 70.2408 5.68743C69.733 5.34865 69.3363 4.86549 69.1011 4.29918C68.8659 3.73286 68.8027 3.1089 68.9196 2.50634C69.0365 1.90379 69.3281 1.34978 69.7575 0.914514C70.187 0.47925 70.7349 0.182334 71.3319 0.0613806C71.9289 -0.0595728 72.548 0.000882821 73.1108 0.235096C73.6737 0.46931 74.155 0.866728 74.4936 1.377C74.8322 1.88726 75.0129 2.48742 75.0129 3.10138C75.015 3.50782 74.9375 3.91068 74.7847 4.28679C74.6319 4.66291 74.4069 5.00487 74.1226 5.29301C73.8383 5.58116 73.5003 5.80982 73.1281 5.96585C72.7558 6.12188 72.3567 6.2022 71.9536 6.20219Z" fill="#6D86E0" fill-opacity="0.21"/>
<path d="M106.369 6.20212C105.761 6.20212 105.166 6.02026 104.66 5.67954C104.155 5.33882 103.76 4.85453 103.528 4.28794C103.295 3.72134 103.234 3.09787 103.353 2.49637C103.471 1.89487 103.764 1.34236 104.194 0.908704C104.624 0.475048 105.172 0.179714 105.769 0.0600689C106.365 -0.0595765 106.984 0.00183739 107.546 0.23653C108.108 0.471223 108.588 0.868664 108.926 1.37859C109.264 1.88852 109.444 2.48802 109.444 3.10131C109.444 3.92369 109.12 4.7124 108.543 5.29391C107.967 5.87542 107.185 6.20212 106.369 6.20212Z" fill="#6D86E0" fill-opacity="0.21"/>
<path d="M140.816 6.20219C140.207 6.20537 139.611 6.02621 139.103 5.68743C138.595 5.34865 138.199 4.86549 137.964 4.29918C137.728 3.73286 137.665 3.1089 137.782 2.50634C137.899 1.90379 138.191 1.34978 138.62 0.914514C139.049 0.47925 139.597 0.182334 140.194 0.0613806C140.791 -0.0595728 141.41 0.000882821 141.973 0.235096C142.536 0.46931 143.017 0.866728 143.356 1.377C143.695 1.88726 143.875 2.48742 143.875 3.10138C143.878 3.50782 143.8 3.91068 143.647 4.28679C143.494 4.66291 143.269 5.00487 142.985 5.29301C142.701 5.58116 142.363 5.80982 141.991 5.96585C141.618 6.12188 141.219 6.2022 140.816 6.20219Z" fill="#6D86E0" fill-opacity="0.21"/>
<path d="M175.231 6.20212C174.623 6.20212 174.028 6.02026 173.523 5.67954C173.017 5.33882 172.623 4.85453 172.39 4.28794C172.157 3.72134 172.096 3.09787 172.215 2.49637C172.334 1.89487 172.627 1.34236 173.057 0.908704C173.487 0.475048 174.035 0.179714 174.631 0.0600689C175.228 -0.0595765 175.846 0.00183739 176.408 0.23653C176.97 0.471223 177.45 0.868664 177.788 1.37859C178.126 1.88852 178.307 2.48802 178.307 3.10131C178.307 3.92369 177.983 4.7124 177.406 5.29391C176.829 5.87542 176.047 6.20212 175.231 6.20212Z" fill="#6D86E0" fill-opacity="0.21"/>
<path d="M3.07609 40.8897C2.46786 40.8897 1.87336 40.7079 1.36763 40.3671C0.861907 40.0264 0.467678 39.5422 0.234917 38.9756C0.00215643 38.409 -0.0587032 37.7855 0.0599571 37.184C0.178617 36.5825 0.471507 36.03 0.901593 35.5963C1.33168 35.1627 1.87959 34.8673 2.47613 34.7477C3.07268 34.628 3.69103 34.6895 4.25296 34.9242C4.8149 35.1588 5.29518 35.5563 5.6331 36.0662C5.97101 36.5761 6.15136 37.1756 6.15136 37.7889C6.15136 38.6113 5.82742 39.4 5.25069 39.9815C4.67397 40.563 3.89171 40.8897 3.07609 40.8897Z" fill="#6D86E0" fill-opacity="0.21"/>
<path d="M37.5074 40.8897C36.8991 40.8897 36.3045 40.7079 35.7988 40.3671C35.2931 40.0264 34.899 39.5422 34.6662 38.9756C34.4334 38.409 34.3726 37.7855 34.4912 37.184C34.6099 36.5825 34.9028 36.03 35.3329 35.5963C35.763 35.1627 36.3109 34.8673 36.9074 34.7477C37.504 34.628 38.1223 34.6895 38.6842 34.9242C39.2462 35.1588 39.7265 35.5563 40.0644 36.0662C40.4023 36.5761 40.5826 37.1756 40.5826 37.7889C40.5784 38.61 40.2531 39.3963 39.6773 39.9769C39.1015 40.5575 38.3217 40.8855 37.5074 40.8897Z" fill="#6D86E0" fill-opacity="0.21"/>
<path d="M71.954 40.8897C71.3451 40.8929 70.749 40.7137 70.2412 40.3749C69.7333 40.0362 69.3367 39.553 69.1014 38.9867C68.8662 38.4204 68.8031 37.7964 68.92 37.1939C69.0368 36.5913 69.3285 36.0373 69.7579 35.602C70.1874 35.1668 70.7353 34.8698 71.3323 34.7489C71.9292 34.6279 72.5484 34.6884 73.1112 34.9226C73.6741 35.1568 74.1554 35.5543 74.494 36.0645C74.8326 36.5748 75.0133 37.1749 75.0133 37.7889C75.0133 38.6085 74.6916 39.3948 74.1183 39.9758C73.545 40.5569 72.7669 40.8855 71.954 40.8897Z" fill="#6D86E0" fill-opacity="0.21"/>
<path d="M106.369 40.8897C105.761 40.8897 105.167 40.7079 104.661 40.3671C104.155 40.0264 103.761 39.5422 103.528 38.9756C103.295 38.409 103.234 37.7855 103.353 37.184C103.472 36.5825 103.765 36.03 104.195 35.5963C104.625 35.1627 105.173 34.8673 105.769 34.7477C106.366 34.628 106.984 34.6895 107.546 34.9242C108.108 35.1588 108.588 35.5563 108.926 36.0662C109.264 36.5761 109.445 37.1756 109.445 37.7889C109.44 38.61 109.115 39.3963 108.539 39.9769C107.963 40.5575 107.184 40.8855 106.369 40.8897Z" fill="#6D86E0" fill-opacity="0.21"/>
<path d="M140.816 40.8897C140.208 40.8929 139.611 40.7137 139.104 40.3749C138.596 40.0362 138.199 39.553 137.964 38.9867C137.729 38.4204 137.666 37.7964 137.782 37.1939C137.899 36.5913 138.191 36.0373 138.62 35.602C139.05 35.1668 139.598 34.8698 140.195 34.7489C140.792 34.6279 141.411 34.6884 141.974 34.9226C142.536 35.1568 143.018 35.5543 143.356 36.0645C143.695 36.5748 143.876 37.1749 143.876 37.7889C143.876 38.6085 143.554 39.3948 142.981 39.9758C142.407 40.5569 141.629 40.8855 140.816 40.8897Z" fill="#6D86E0" fill-opacity="0.21"/>
<path d="M175.232 40.8897C174.623 40.8897 174.029 40.7079 173.523 40.3671C173.018 40.0264 172.623 39.5422 172.391 38.9756C172.158 38.409 172.097 37.7855 172.216 37.184C172.334 36.5825 172.627 36.03 173.057 35.5963C173.487 35.1627 174.035 34.8673 174.632 34.7477C175.228 34.628 175.847 34.6895 176.409 34.9242C176.971 35.1588 177.451 35.5563 177.789 36.0662C178.127 36.5761 178.307 37.1756 178.307 37.7889C178.303 38.61 177.977 39.3963 177.402 39.9769C176.826 40.5575 176.046 40.8855 175.232 40.8897Z" fill="#6D86E0" fill-opacity="0.21"/>
<path d="M3.07609 75.5772C2.46786 75.5772 1.87336 75.3954 1.36763 75.0547C0.861907 74.7139 0.467678 74.2296 0.234917 73.663C0.00215643 73.0964 -0.0587032 72.473 0.0599571 71.8715C0.178617 71.27 0.471507 70.7175 0.901593 70.2838C1.33168 69.8502 1.87959 69.5548 2.47613 69.4352C3.07268 69.3155 3.69103 69.377 4.25296 69.6117C4.8149 69.8463 5.29518 70.2438 5.6331 70.7537C5.97101 71.2636 6.15136 71.8632 6.15136 72.4764C6.15136 73.2988 5.82742 74.0875 5.25069 74.669C4.67397 75.2505 3.89171 75.5772 3.07609 75.5772Z" fill="#6D86E0" fill-opacity="0.21"/>
<path d="M37.5053 75.5772C36.902 75.5768 36.312 75.3974 35.8089 75.0614C35.3059 74.7254 34.9121 74.2476 34.6764 73.6876C34.4407 73.1275 34.3737 72.5099 34.4836 71.9116C34.5935 71.3134 34.8755 70.761 35.2945 70.3232C35.7135 69.8854 36.2509 69.5816 36.8399 69.4495C37.429 69.3175 38.0434 69.3631 38.6069 69.5806C39.1705 69.7981 39.6581 70.178 40.0091 70.673C40.36 71.1679 40.5587 71.7559 40.5806 72.3639C40.5934 72.78 40.5235 73.1943 40.3748 73.5826C40.2262 73.9709 40.002 74.3253 39.7153 74.6247C39.4287 74.9242 39.0854 75.1628 38.7059 75.3264C38.3263 75.49 37.9181 75.5753 37.5053 75.5772Z" fill="#6D86E0" fill-opacity="0.21"/>
<path d="M71.9536 75.5772C71.3447 75.5804 70.7486 75.4012 70.2408 75.0624C69.733 74.7237 69.3363 74.2405 69.1011 73.6742C68.8659 73.1079 68.8027 72.4839 68.9196 71.8814C69.0365 71.2788 69.3281 70.7248 69.7575 70.2895C70.187 69.8543 70.7349 69.5573 71.3319 69.4364C71.9289 69.3154 72.548 69.3759 73.1109 69.6101C73.6737 69.8443 74.155 70.2417 74.4936 70.752C74.8322 71.2623 75.0129 71.8624 75.0129 72.4764C75.013 73.296 74.6912 74.0823 74.1179 74.6633C73.5446 75.2444 72.7665 75.5729 71.9536 75.5772Z" fill="#6D86E0" fill-opacity="0.21"/>
<path d="M106.369 75.5772C105.761 75.5772 105.166 75.3954 104.66 75.0547C104.155 74.7139 103.76 74.2296 103.528 73.663C103.295 73.0964 103.234 72.473 103.353 71.8715C103.471 71.27 103.764 70.7175 104.194 70.2838C104.624 69.8502 105.172 69.5548 105.769 69.4352C106.365 69.3155 106.984 69.377 107.546 69.6117C108.108 69.8463 108.588 70.2438 108.926 70.7537C109.264 71.2636 109.444 71.8632 109.444 72.4764C109.44 73.2975 109.115 74.0837 108.539 74.6643C107.963 75.2449 107.183 75.573 106.369 75.5772Z" fill="#6D86E0" fill-opacity="0.21"/>
<path d="M140.814 75.5772C140.21 75.5799 139.619 75.4033 139.113 75.0692C138.608 74.7351 138.212 74.2584 137.974 73.6987C137.736 73.1389 137.666 72.5208 137.775 71.9215C137.883 71.3223 138.163 70.7684 138.582 70.329C139 69.8896 139.537 69.5842 140.127 69.4508C140.716 69.3175 141.332 69.3621 141.896 69.5792C142.46 69.7962 142.949 70.176 143.301 70.6713C143.652 71.1665 143.851 71.7552 143.873 72.3639C143.888 72.7791 143.82 73.1932 143.674 73.5814C143.527 73.9696 143.304 74.3241 143.019 74.6238C142.733 74.9235 142.391 75.1624 142.012 75.3262C141.634 75.49 141.226 75.5753 140.814 75.5772Z" fill="#6D86E0" fill-opacity="0.21"/>
<path d="M175.232 75.5772C174.623 75.5772 174.029 75.3954 173.523 75.0547C173.018 74.7139 172.623 74.2296 172.391 73.663C172.158 73.0964 172.097 72.473 172.216 71.8715C172.334 71.27 172.627 70.7175 173.057 70.2838C173.487 69.8502 174.035 69.5548 174.632 69.4352C175.228 69.3155 175.847 69.377 176.409 69.6117C176.971 69.8463 177.451 70.2438 177.789 70.7537C178.127 71.2636 178.307 71.8632 178.307 72.4764C178.303 73.2975 177.977 74.0837 177.402 74.6643C176.826 75.2449 176.046 75.573 175.232 75.5772Z" fill="#6D86E0" fill-opacity="0.21"/>
<path d="M3.07609 110.265C2.46786 110.265 1.87336 110.083 1.36763 109.742C0.861907 109.402 0.467677 108.917 0.234917 108.351C0.00215643 107.784 -0.0587032 107.161 0.0599571 106.559C0.178617 105.958 0.471507 105.405 0.901593 104.972C1.33168 104.538 1.87959 104.243 2.47613 104.123C3.07268 104.003 3.69103 104.065 4.25296 104.299C4.8149 104.534 5.29518 104.932 5.63309 105.441C5.97101 105.951 6.15136 106.551 6.15136 107.164C6.15347 107.572 6.07545 107.976 5.92165 108.353C5.76785 108.73 5.54135 109.073 5.25536 109.362C4.96937 109.65 4.62956 109.878 4.25549 110.033C3.88143 110.188 3.48054 110.267 3.07609 110.265Z" fill="#6D86E0" fill-opacity="0.21"/>
<path d="M37.5074 110.265C36.8991 110.265 36.3045 110.083 35.7988 109.742C35.2931 109.402 34.899 108.917 34.6662 108.351C34.4334 107.784 34.3726 107.161 34.4912 106.559C34.6099 105.958 34.9028 105.405 35.3329 104.972C35.763 104.538 36.3109 104.243 36.9074 104.123C37.504 104.003 38.1223 104.065 38.6842 104.299C39.2462 104.534 39.7265 104.932 40.0644 105.441C40.4023 105.951 40.5826 106.551 40.5826 107.164C40.5826 107.987 40.2587 108.775 39.682 109.357C39.1052 109.938 38.323 110.265 37.5074 110.265Z" fill="#6D86E0" fill-opacity="0.21"/>
<path d="M71.9545 110.265C71.3456 110.268 70.7495 110.089 70.2416 109.75C69.7338 109.411 69.3371 108.928 69.1019 108.362C68.8667 107.796 68.8036 107.172 68.9205 106.569C69.0373 105.967 69.329 105.413 69.7584 104.977C70.1878 104.542 70.7358 104.245 71.3327 104.124C71.9297 104.003 72.5488 104.064 73.1117 104.298C73.6746 104.532 74.1558 104.929 74.4945 105.44C74.8331 105.95 75.0138 106.55 75.0138 107.164C75.0159 107.571 74.9383 107.973 74.7855 108.35C74.6327 108.726 74.4077 109.068 74.1234 109.356C73.8391 109.644 73.5011 109.873 73.1289 110.029C72.7567 110.185 72.3576 110.265 71.9545 110.265Z" fill="#6D86E0" fill-opacity="0.21"/>
<path d="M106.37 110.265C105.762 110.265 105.167 110.083 104.661 109.742C104.155 109.402 103.761 108.917 103.529 108.351C103.296 107.784 103.235 107.161 103.354 106.559C103.472 105.958 103.765 105.405 104.195 104.972C104.625 104.538 105.173 104.243 105.77 104.123C106.366 104.003 106.985 104.065 107.547 104.299C108.109 104.534 108.589 104.932 108.927 105.441C109.265 105.951 109.445 106.551 109.445 107.164C109.445 107.987 109.121 108.775 108.544 109.357C107.968 109.938 107.185 110.265 106.37 110.265Z" fill="#6D86E0" fill-opacity="0.21"/>
<path d="M140.817 110.265C140.208 110.268 139.612 110.089 139.104 109.75C138.596 109.411 138.2 108.928 137.964 108.362C137.729 107.796 137.666 107.172 137.783 106.569C137.9 105.967 138.191 105.413 138.621 104.977C139.05 104.542 139.598 104.245 140.195 104.124C140.792 104.003 141.411 104.064 141.974 104.298C142.537 104.532 143.018 104.929 143.357 105.44C143.696 105.95 143.876 106.55 143.876 107.164C143.878 107.571 143.801 107.973 143.648 108.35C143.495 108.726 143.27 109.068 142.986 109.356C142.702 109.644 142.364 109.873 141.991 110.029C141.619 110.185 141.22 110.265 140.817 110.265Z" fill="#6D86E0" fill-opacity="0.21"/>
<path d="M175.232 110.265C174.624 110.265 174.029 110.083 173.524 109.742C173.018 109.402 172.624 108.917 172.391 108.351C172.158 107.784 172.097 107.161 172.216 106.559C172.335 105.958 172.628 105.405 173.058 104.972C173.488 104.538 174.036 104.243 174.632 104.123C175.229 104.003 175.847 104.065 176.409 104.299C176.971 104.534 177.451 104.932 177.789 105.441C178.127 105.951 178.307 106.551 178.307 107.164C178.307 107.987 177.983 108.775 177.407 109.357C176.83 109.938 176.048 110.265 175.232 110.265Z" fill="#6D86E0" fill-opacity="0.21"/>
<path d="M3.07609 144.952C2.46786 144.952 1.87336 144.771 1.36763 144.43C0.861907 144.089 0.467677 143.605 0.234917 143.038C0.00215643 142.472 -0.0587032 141.848 0.0599571 141.247C0.178617 140.645 0.471507 140.093 0.901593 139.659C1.33168 139.225 1.87959 138.93 2.47613 138.81C3.07268 138.691 3.69103 138.752 4.25296 138.987C4.8149 139.222 5.29518 139.619 5.63309 140.129C5.97101 140.639 6.15136 141.238 6.15136 141.852C6.15347 142.259 6.07545 142.664 5.92165 143.041C5.76785 143.418 5.54135 143.761 5.25536 144.049C4.96937 144.337 4.62956 144.566 4.25549 144.721C3.88143 144.876 3.48054 144.955 3.07609 144.952Z" fill="#6D86E0" fill-opacity="0.21"/>
<path d="M37.5074 144.952C36.8991 144.952 36.3045 144.771 35.7988 144.43C35.2931 144.089 34.899 143.605 34.6662 143.038C34.4334 142.472 34.3726 141.848 34.4912 141.247C34.6099 140.645 34.9028 140.093 35.3329 139.659C35.763 139.225 36.3109 138.93 36.9074 138.81C37.504 138.691 38.1223 138.752 38.6842 138.987C39.2462 139.222 39.7265 139.619 40.0644 140.129C40.4023 140.639 40.5826 141.238 40.5826 141.852C40.5826 142.674 40.2587 143.463 39.682 144.044C39.1052 144.626 38.323 144.952 37.5074 144.952Z" fill="#6D86E0" fill-opacity="0.21"/>
<path d="M71.9545 144.952C71.3456 144.956 70.7495 144.776 70.2416 144.438C69.7338 144.099 69.3371 143.616 69.1019 143.049C68.8667 142.483 68.8036 141.859 68.9205 141.257C69.0373 140.654 69.329 140.1 69.7584 139.665C70.1878 139.23 70.7358 138.933 71.3327 138.812C71.9297 138.691 72.5488 138.751 73.1117 138.985C73.6746 139.22 74.1558 139.617 74.4945 140.127C74.8331 140.638 75.0138 141.238 75.0138 141.852C75.0159 142.258 74.9383 142.661 74.7855 143.037C74.6327 143.413 74.4077 143.755 74.1234 144.043C73.8391 144.331 73.5011 144.56 73.1289 144.716C72.7567 144.872 72.3576 144.952 71.9545 144.952Z" fill="#6D86E0" fill-opacity="0.21"/>
<path d="M106.37 144.952C105.762 144.952 105.167 144.771 104.661 144.43C104.155 144.089 103.761 143.605 103.529 143.038C103.296 142.472 103.235 141.848 103.354 141.247C103.472 140.645 103.765 140.093 104.195 139.659C104.625 139.225 105.173 138.93 105.77 138.81C106.366 138.691 106.985 138.752 107.547 138.987C108.109 139.222 108.589 139.619 108.927 140.129C109.265 140.639 109.445 141.238 109.445 141.852C109.445 142.674 109.121 143.463 108.544 144.044C107.968 144.626 107.185 144.952 106.37 144.952Z" fill="#6D86E0" fill-opacity="0.21"/>
<path d="M140.817 144.952C140.208 144.956 139.612 144.776 139.104 144.438C138.596 144.099 138.2 143.616 137.964 143.049C137.729 142.483 137.666 141.859 137.783 141.257C137.9 140.654 138.191 140.1 138.621 139.665C139.05 139.23 139.598 138.933 140.195 138.812C140.792 138.691 141.411 138.751 141.974 138.985C142.537 139.22 143.018 139.617 143.357 140.127C143.696 140.638 143.876 141.238 143.876 141.852C143.878 142.258 143.801 142.661 143.648 143.037C143.495 143.413 143.27 143.755 142.986 144.043C142.702 144.331 142.364 144.56 141.991 144.716C141.619 144.872 141.22 144.952 140.817 144.952Z" fill="#6D86E0" fill-opacity="0.21"/>
<path d="M175.232 144.952C174.624 144.952 174.029 144.771 173.524 144.43C173.018 144.089 172.624 143.605 172.391 143.038C172.158 142.472 172.097 141.848 172.216 141.247C172.335 140.645 172.628 140.093 173.058 139.659C173.488 139.225 174.036 138.93 174.632 138.81C175.229 138.691 175.847 138.752 176.409 138.987C176.971 139.222 177.451 139.619 177.789 140.129C178.127 140.639 178.307 141.238 178.307 141.852C178.307 142.674 177.983 143.463 177.407 144.044C176.83 144.626 176.048 144.952 175.232 144.952Z" fill="#6D86E0" fill-opacity="0.21"/>
<path d="M3.07609 179.64C2.46786 179.64 1.87336 179.458 1.36763 179.118C0.861907 178.777 0.467678 178.293 0.234917 177.726C0.00215643 177.16 -0.0587032 176.536 0.0599571 175.935C0.178617 175.333 0.471507 174.781 0.901593 174.347C1.33168 173.913 1.87959 173.618 2.47613 173.498C3.07268 173.379 3.69103 173.44 4.25296 173.675C4.8149 173.909 5.29518 174.307 5.6331 174.817C5.97101 175.327 6.15136 175.926 6.15136 176.54C6.15136 177.362 5.82742 178.151 5.25069 178.732C4.67397 179.314 3.89171 179.64 3.07609 179.64Z" fill="#6D86E0" fill-opacity="0.21"/>
<path d="M37.5074 179.64C36.8991 179.64 36.3045 179.458 35.7988 179.118C35.2931 178.777 34.899 178.293 34.6662 177.726C34.4334 177.16 34.3726 176.536 34.4912 175.935C34.6099 175.333 34.9028 174.781 35.3329 174.347C35.763 173.913 36.3109 173.618 36.9074 173.498C37.504 173.379 38.1223 173.44 38.6842 173.675C39.2462 173.909 39.7265 174.307 40.0644 174.817C40.4023 175.327 40.5826 175.926 40.5826 176.54C40.5784 177.361 40.2531 178.147 39.6773 178.727C39.1015 179.308 38.3217 179.636 37.5074 179.64Z" fill="#6D86E0" fill-opacity="0.21"/>
<path d="M71.954 179.64C71.3451 179.643 70.749 179.464 70.2412 179.126C69.7333 178.787 69.3367 178.304 69.1014 177.737C68.8662 177.171 68.8031 176.547 68.92 175.944C69.0368 175.342 69.3285 174.788 69.7579 174.353C70.1874 173.917 70.7353 173.62 71.3323 173.499C71.9292 173.379 72.5484 173.439 73.1112 173.673C73.6741 173.907 74.1554 174.305 74.494 174.815C74.8326 175.325 75.0133 175.926 75.0133 176.539C75.0133 177.359 74.6916 178.145 74.1183 178.726C73.545 179.307 72.7669 179.636 71.954 179.64Z" fill="#6D86E0" fill-opacity="0.21"/>
<path d="M106.369 179.64C105.761 179.64 105.167 179.458 104.661 179.118C104.155 178.777 103.761 178.293 103.528 177.726C103.295 177.16 103.234 176.536 103.353 175.935C103.472 175.333 103.765 174.781 104.195 174.347C104.625 173.913 105.173 173.618 105.769 173.498C106.366 173.379 106.984 173.44 107.546 173.675C108.108 173.909 108.588 174.307 108.926 174.817C109.264 175.327 109.445 175.926 109.445 176.54C109.44 177.361 109.115 178.147 108.539 178.727C107.963 179.308 107.184 179.636 106.369 179.64Z" fill="#6D86E0" fill-opacity="0.21"/>
<path d="M140.816 179.64C140.208 179.643 139.611 179.464 139.104 179.126C138.596 178.787 138.199 178.304 137.964 177.737C137.729 177.171 137.666 176.547 137.782 175.944C137.899 175.342 138.191 174.788 138.62 174.353C139.05 173.917 139.598 173.62 140.195 173.499C140.792 173.379 141.411 173.439 141.974 173.673C142.536 173.907 143.018 174.305 143.356 174.815C143.695 175.325 143.876 175.926 143.876 176.539C143.876 177.359 143.554 178.145 142.981 178.726C142.407 179.307 141.629 179.636 140.816 179.64Z" fill="#6D86E0" fill-opacity="0.21"/>
<path d="M175.232 179.64C174.623 179.64 174.029 179.458 173.523 179.118C173.018 178.777 172.623 178.293 172.391 177.726C172.158 177.16 172.097 176.536 172.216 175.935C172.334 175.333 172.627 174.781 173.057 174.347C173.487 173.913 174.035 173.618 174.632 173.498C175.228 173.379 175.847 173.44 176.409 173.675C176.971 173.909 177.451 174.307 177.789 174.817C178.127 175.327 178.307 175.926 178.307 176.54C178.303 177.361 177.977 178.147 177.402 178.727C176.826 179.308 176.046 179.636 175.232 179.64Z" fill="#6D86E0" fill-opacity="0.21"/>
</svg>
